M48
; DRILL file {KiCad 9.0.7} date 2026-03-08T21:49:53-0700
; FORMAT={-:-/ absolute / metric / decimal}
; #@! TF.CreationDate,2026-03-08T21:49:53-07:00
; #@! TF.GenerationSoftware,Kicad,Pcbnew,9.0.7
; #@! TF.FileFunction,NonPlated,1,2,NPTH
FMAT,2
METRIC
; #@! TA.AperFunction,NonPlated,NPTH,ComponentDrill
T1C1.750
; #@! TA.AperFunction,NonPlated,NPTH,ComponentDrill
T2C4.000
%
G90
G05
T1
X3.89Y-50.087
X3.89Y-73.9
X6.271Y-150.1
X8.652Y-92.95
X11.034Y-112.0
X14.05Y-50.087
X14.05Y-73.9
X15.796Y-131.05
X16.431Y-150.1
X18.812Y-92.95
X21.194Y-112.0
X22.94Y-73.9
X25.956Y-131.05
X30.084Y-150.1
X32.465Y-50.087
X32.465Y-92.95
X33.1Y-73.9
X37.227Y-112.0
X40.244Y-150.1
X41.99Y-73.9
X42.625Y-50.087
X42.625Y-92.95
X46.752Y-131.05
X47.387Y-112.0
X51.515Y-50.087
X51.515Y-92.95
X52.15Y-73.9
X53.896Y-150.1
X56.277Y-112.0
X56.912Y-131.05
X61.04Y-73.9
X61.675Y-50.087
X61.675Y-92.95
X64.056Y-150.1
X65.802Y-131.05
X66.438Y-112.0
X70.565Y-50.087
X70.565Y-92.95
X71.2Y-73.9
X75.328Y-112.0
X75.962Y-131.05
X80.09Y-73.9
X80.725Y-50.087
X80.725Y-92.95
X84.852Y-131.05
X85.487Y-112.0
X89.615Y-50.087
X89.615Y-92.95
X90.25Y-73.9
X94.377Y-112.0
X95.012Y-131.05
X99.14Y-73.9
X99.775Y-50.087
X99.775Y-92.95
X103.902Y-131.05
X104.537Y-112.0
X108.665Y-92.95
X109.3Y-73.9
X113.427Y-112.0
X114.062Y-131.05
X118.19Y-73.9
X118.825Y-92.95
X122.953Y-50.087
X122.953Y-131.05
X123.587Y-112.0
X125.334Y-150.1
X127.715Y-92.95
X128.35Y-73.9
X132.477Y-112.0
X133.112Y-50.087
X133.112Y-131.05
X135.494Y-150.1
X137.24Y-73.9
X137.875Y-92.95
X142.002Y-50.087
X142.002Y-131.05
X142.637Y-112.0
X146.765Y-92.95
X147.4Y-73.9
X151.528Y-112.0
X152.162Y-50.087
X152.162Y-131.05
X156.29Y-73.9
X156.925Y-92.95
X161.052Y-50.087
X161.052Y-131.05
X161.688Y-112.0
X165.815Y-92.95
X166.45Y-73.9
X170.577Y-112.0
X171.213Y-50.087
X171.213Y-131.05
X175.34Y-73.9
X175.975Y-92.95
X180.102Y-50.087
X180.102Y-131.05
X180.737Y-112.0
X184.865Y-92.95
X185.5Y-73.9
X189.627Y-112.0
X190.262Y-50.087
X190.262Y-131.05
X194.39Y-73.9
X195.025Y-92.95
X196.771Y-150.1
X199.153Y-131.05
X199.787Y-112.0
X203.915Y-92.95
X204.55Y-73.9
X206.931Y-150.1
X208.677Y-112.0
X209.312Y-131.05
X213.44Y-50.087
X213.44Y-73.9
X214.075Y-92.95
X218.202Y-131.05
X218.837Y-112.0
X220.584Y-150.1
X222.965Y-92.95
X223.6Y-50.087
X223.6Y-73.9
X227.727Y-112.0
X228.362Y-131.05
X230.744Y-150.1
X232.49Y-50.087
X232.49Y-73.9
X233.125Y-92.95
X237.887Y-112.0
X242.015Y-92.95
X242.65Y-50.087
X242.65Y-73.9
X244.396Y-150.1
X251.54Y-50.087
X252.175Y-92.95
X253.921Y-131.05
X254.556Y-150.1
X258.684Y-112.0
X261.065Y-73.9
X261.7Y-50.087
X264.081Y-131.05
X265.827Y-92.95
X268.209Y-150.1
X268.844Y-112.0
X271.225Y-73.9
X275.988Y-92.95
X278.369Y-150.1
X294.402Y-83.425
X294.402Y-102.475
X294.402Y-121.525
X294.402Y-140.575
X304.562Y-83.425
X304.562Y-102.475
X304.562Y-121.525
X304.562Y-140.575
T2
X8.97Y-50.087
X8.97Y-73.9
X11.351Y-150.1
X13.732Y-92.95
X16.114Y-112.0
X20.876Y-131.05
X28.02Y-73.9
X35.164Y-150.1
X37.545Y-50.087
X37.545Y-92.95
X42.307Y-112.0
X47.07Y-73.9
X51.832Y-131.05
X56.595Y-50.087
X56.595Y-92.95
X58.976Y-150.1
X61.357Y-112.0
X66.12Y-73.9
X70.882Y-131.05
X75.645Y-50.087
X75.645Y-92.95
X80.407Y-112.0
X85.17Y-73.9
X89.932Y-131.05
X94.695Y-50.087
X94.695Y-92.95
X99.457Y-112.0
X104.22Y-73.9
X108.983Y-131.05
X113.745Y-92.95
X118.507Y-112.0
X123.27Y-73.9
X128.032Y-50.087
X128.032Y-131.05
X130.414Y-150.1
X132.795Y-92.95
X137.558Y-112.0
X142.32Y-73.9
X147.082Y-50.087
X147.082Y-131.05
X151.845Y-92.95
X156.607Y-112.0
X161.37Y-73.9
X166.132Y-50.087
X166.132Y-131.05
X170.895Y-92.95
X175.657Y-112.0
X180.42Y-73.9
X185.183Y-50.087
X185.183Y-131.05
X189.945Y-92.95
X194.707Y-112.0
X199.47Y-73.9
X201.851Y-150.1
X204.232Y-131.05
X208.995Y-92.95
X213.757Y-112.0
X218.52Y-50.087
X218.52Y-73.9
X223.282Y-131.05
X225.664Y-150.1
X228.045Y-92.95
X232.807Y-112.0
X237.57Y-50.087
X237.57Y-73.9
X247.095Y-92.95
X249.476Y-150.1
X256.62Y-50.087
X259.001Y-131.05
X263.764Y-112.0
X266.145Y-73.9
X270.907Y-92.95
X273.289Y-150.1
X299.482Y-83.425
X299.482Y-102.475
X299.482Y-121.525
X299.482Y-140.575
M30
