%TF.GenerationSoftware,KiCad,Pcbnew,9.0.7*%
%TF.CreationDate,2026-03-08T21:49:53-07:00*%
%TF.ProjectId,customKeyboard.kicad_pcb,63757374-6f6d-44b6-9579-626f6172642e,rev?*%
%TF.SameCoordinates,Original*%
%TF.FileFunction,Drillmap*%
%TF.FilePolarity,Positive*%
%FSLAX45Y45*%
G04 Gerber Fmt 4.5, Leading zero omitted, Abs format (unit mm)*
G04 Created by KiCad (PCBNEW 9.0.7) date 2026-03-08 21:49:53*
%MOMM*%
%LPD*%
G01*
G04 APERTURE LIST*
%ADD10C,0.050000*%
%ADD11C,0.200000*%
%ADD12C,0.109220*%
%ADD13C,0.150000*%
G04 APERTURE END LIST*
D10*
X-350000Y-3100000D02*
X31750000Y-3100000D01*
X31750000Y-16850000D01*
X-350000Y-16850000D01*
X-350000Y-3100000D01*
D11*
D12*
X27921390Y-3779390D02*
X28030610Y-3888610D01*
X28030610Y-3779390D02*
X27921390Y-3888610D01*
X27921390Y-4033390D02*
X28030610Y-4142610D01*
X28030610Y-4033390D02*
X27921390Y-4142610D01*
X27921390Y-4287390D02*
X28030610Y-4396610D01*
X28030610Y-4287390D02*
X27921390Y-4396610D01*
X27921390Y-4541390D02*
X28030610Y-4650610D01*
X28030610Y-4541390D02*
X27921390Y-4650610D01*
X27921390Y-4795390D02*
X28030610Y-4904610D01*
X28030610Y-4795390D02*
X27921390Y-4904610D01*
X27921390Y-5049390D02*
X28030610Y-5158610D01*
X28030610Y-5049390D02*
X27921390Y-5158610D01*
X27921390Y-5303390D02*
X28030610Y-5412610D01*
X28030610Y-5303390D02*
X27921390Y-5412610D01*
X27921390Y-5557390D02*
X28030610Y-5666610D01*
X28030610Y-5557390D02*
X27921390Y-5666610D01*
X27921390Y-5811390D02*
X28030610Y-5920610D01*
X28030610Y-5811390D02*
X27921390Y-5920610D01*
X27921390Y-6065390D02*
X28030610Y-6174610D01*
X28030610Y-6065390D02*
X27921390Y-6174610D01*
X27921390Y-6319390D02*
X28030610Y-6428610D01*
X28030610Y-6319390D02*
X27921390Y-6428610D01*
X27921390Y-6573390D02*
X28030610Y-6682610D01*
X28030610Y-6573390D02*
X27921390Y-6682610D01*
X28175390Y-6065390D02*
X28284610Y-6174610D01*
X28284610Y-6065390D02*
X28175390Y-6174610D01*
X28429390Y-6065390D02*
X28538610Y-6174610D01*
X28538610Y-6065390D02*
X28429390Y-6174610D01*
X28683390Y-6065390D02*
X28792610Y-6174610D01*
X28792610Y-6065390D02*
X28683390Y-6174610D01*
X29445390Y-3779390D02*
X29554610Y-3888610D01*
X29554610Y-3779390D02*
X29445390Y-3888610D01*
X29445390Y-4033390D02*
X29554610Y-4142610D01*
X29554610Y-4033390D02*
X29445390Y-4142610D01*
X29445390Y-4287390D02*
X29554610Y-4396610D01*
X29554610Y-4287390D02*
X29445390Y-4396610D01*
X29445390Y-4541390D02*
X29554610Y-4650610D01*
X29554610Y-4541390D02*
X29445390Y-4650610D01*
X29445390Y-4795390D02*
X29554610Y-4904610D01*
X29554610Y-4795390D02*
X29445390Y-4904610D01*
X29445390Y-5049390D02*
X29554610Y-5158610D01*
X29554610Y-5049390D02*
X29445390Y-5158610D01*
X29445390Y-5303390D02*
X29554610Y-5412610D01*
X29554610Y-5303390D02*
X29445390Y-5412610D01*
X29445390Y-5557390D02*
X29554610Y-5666610D01*
X29554610Y-5557390D02*
X29445390Y-5666610D01*
X29445390Y-5811390D02*
X29554610Y-5920610D01*
X29554610Y-5811390D02*
X29445390Y-5920610D01*
X29445390Y-6065390D02*
X29554610Y-6174610D01*
X29554610Y-6065390D02*
X29445390Y-6174610D01*
X29445390Y-6319390D02*
X29554610Y-6428610D01*
X29554610Y-6319390D02*
X29445390Y-6428610D01*
X29445390Y-6573390D02*
X29554610Y-6682610D01*
X29554610Y-6573390D02*
X29445390Y-6682610D01*
D13*
X591000Y-4754750D02*
G75*
G02*
X441000Y-4754750I-75000J0D01*
G01*
X441000Y-4754750D02*
G75*
G02*
X591000Y-4754750I75000J0D01*
G01*
X591000Y-7136000D02*
G75*
G02*
X441000Y-7136000I-75000J0D01*
G01*
X441000Y-7136000D02*
G75*
G02*
X591000Y-7136000I75000J0D01*
G01*
X829125Y-14756000D02*
G75*
G02*
X679125Y-14756000I-75000J0D01*
G01*
X679125Y-14756000D02*
G75*
G02*
X829125Y-14756000I75000J0D01*
G01*
X1067250Y-9041000D02*
G75*
G02*
X917250Y-9041000I-75000J0D01*
G01*
X917250Y-9041000D02*
G75*
G02*
X1067250Y-9041000I75000J0D01*
G01*
X1226000Y-4500750D02*
G75*
G02*
X1076000Y-4500750I-75000J0D01*
G01*
X1076000Y-4500750D02*
G75*
G02*
X1226000Y-4500750I75000J0D01*
G01*
X1226000Y-6882000D02*
G75*
G02*
X1076000Y-6882000I-75000J0D01*
G01*
X1076000Y-6882000D02*
G75*
G02*
X1226000Y-6882000I75000J0D01*
G01*
X1305375Y-10946000D02*
G75*
G02*
X1155375Y-10946000I-75000J0D01*
G01*
X1155375Y-10946000D02*
G75*
G02*
X1305375Y-10946000I75000J0D01*
G01*
X1464125Y-14502000D02*
G75*
G02*
X1314125Y-14502000I-75000J0D01*
G01*
X1314125Y-14502000D02*
G75*
G02*
X1464125Y-14502000I75000J0D01*
G01*
X1702250Y-8787000D02*
G75*
G02*
X1552250Y-8787000I-75000J0D01*
G01*
X1552250Y-8787000D02*
G75*
G02*
X1702250Y-8787000I75000J0D01*
G01*
X1781625Y-12851000D02*
G75*
G02*
X1631625Y-12851000I-75000J0D01*
G01*
X1631625Y-12851000D02*
G75*
G02*
X1781625Y-12851000I75000J0D01*
G01*
X1940375Y-10692000D02*
G75*
G02*
X1790375Y-10692000I-75000J0D01*
G01*
X1790375Y-10692000D02*
G75*
G02*
X1940375Y-10692000I75000J0D01*
G01*
X2416625Y-12597000D02*
G75*
G02*
X2266625Y-12597000I-75000J0D01*
G01*
X2266625Y-12597000D02*
G75*
G02*
X2416625Y-12597000I75000J0D01*
G01*
X2496000Y-7136000D02*
G75*
G02*
X2346000Y-7136000I-75000J0D01*
G01*
X2346000Y-7136000D02*
G75*
G02*
X2496000Y-7136000I75000J0D01*
G01*
X3131000Y-6882000D02*
G75*
G02*
X2981000Y-6882000I-75000J0D01*
G01*
X2981000Y-6882000D02*
G75*
G02*
X3131000Y-6882000I75000J0D01*
G01*
X3210375Y-14756000D02*
G75*
G02*
X3060375Y-14756000I-75000J0D01*
G01*
X3060375Y-14756000D02*
G75*
G02*
X3210375Y-14756000I75000J0D01*
G01*
X3448500Y-4754750D02*
G75*
G02*
X3298500Y-4754750I-75000J0D01*
G01*
X3298500Y-4754750D02*
G75*
G02*
X3448500Y-4754750I75000J0D01*
G01*
X3448500Y-9041000D02*
G75*
G02*
X3298500Y-9041000I-75000J0D01*
G01*
X3298500Y-9041000D02*
G75*
G02*
X3448500Y-9041000I75000J0D01*
G01*
X3845375Y-14502000D02*
G75*
G02*
X3695375Y-14502000I-75000J0D01*
G01*
X3695375Y-14502000D02*
G75*
G02*
X3845375Y-14502000I75000J0D01*
G01*
X3924750Y-10946000D02*
G75*
G02*
X3774750Y-10946000I-75000J0D01*
G01*
X3774750Y-10946000D02*
G75*
G02*
X3924750Y-10946000I75000J0D01*
G01*
X4083500Y-4500750D02*
G75*
G02*
X3933500Y-4500750I-75000J0D01*
G01*
X3933500Y-4500750D02*
G75*
G02*
X4083500Y-4500750I75000J0D01*
G01*
X4083500Y-8787000D02*
G75*
G02*
X3933500Y-8787000I-75000J0D01*
G01*
X3933500Y-8787000D02*
G75*
G02*
X4083500Y-8787000I75000J0D01*
G01*
X4401000Y-7136000D02*
G75*
G02*
X4251000Y-7136000I-75000J0D01*
G01*
X4251000Y-7136000D02*
G75*
G02*
X4401000Y-7136000I75000J0D01*
G01*
X4559750Y-10692000D02*
G75*
G02*
X4409750Y-10692000I-75000J0D01*
G01*
X4409750Y-10692000D02*
G75*
G02*
X4559750Y-10692000I75000J0D01*
G01*
X4877250Y-12851000D02*
G75*
G02*
X4727250Y-12851000I-75000J0D01*
G01*
X4727250Y-12851000D02*
G75*
G02*
X4877250Y-12851000I75000J0D01*
G01*
X5036000Y-6882000D02*
G75*
G02*
X4886000Y-6882000I-75000J0D01*
G01*
X4886000Y-6882000D02*
G75*
G02*
X5036000Y-6882000I75000J0D01*
G01*
X5353500Y-4754750D02*
G75*
G02*
X5203500Y-4754750I-75000J0D01*
G01*
X5203500Y-4754750D02*
G75*
G02*
X5353500Y-4754750I75000J0D01*
G01*
X5353500Y-9041000D02*
G75*
G02*
X5203500Y-9041000I-75000J0D01*
G01*
X5203500Y-9041000D02*
G75*
G02*
X5353500Y-9041000I75000J0D01*
G01*
X5512250Y-12597000D02*
G75*
G02*
X5362250Y-12597000I-75000J0D01*
G01*
X5362250Y-12597000D02*
G75*
G02*
X5512250Y-12597000I75000J0D01*
G01*
X5591625Y-14756000D02*
G75*
G02*
X5441625Y-14756000I-75000J0D01*
G01*
X5441625Y-14756000D02*
G75*
G02*
X5591625Y-14756000I75000J0D01*
G01*
X5829750Y-10946000D02*
G75*
G02*
X5679750Y-10946000I-75000J0D01*
G01*
X5679750Y-10946000D02*
G75*
G02*
X5829750Y-10946000I75000J0D01*
G01*
X5988500Y-4500750D02*
G75*
G02*
X5838500Y-4500750I-75000J0D01*
G01*
X5838500Y-4500750D02*
G75*
G02*
X5988500Y-4500750I75000J0D01*
G01*
X5988500Y-8787000D02*
G75*
G02*
X5838500Y-8787000I-75000J0D01*
G01*
X5838500Y-8787000D02*
G75*
G02*
X5988500Y-8787000I75000J0D01*
G01*
X6226625Y-14502000D02*
G75*
G02*
X6076625Y-14502000I-75000J0D01*
G01*
X6076625Y-14502000D02*
G75*
G02*
X6226625Y-14502000I75000J0D01*
G01*
X6306000Y-7136000D02*
G75*
G02*
X6156000Y-7136000I-75000J0D01*
G01*
X6156000Y-7136000D02*
G75*
G02*
X6306000Y-7136000I75000J0D01*
G01*
X6464750Y-10692000D02*
G75*
G02*
X6314750Y-10692000I-75000J0D01*
G01*
X6314750Y-10692000D02*
G75*
G02*
X6464750Y-10692000I75000J0D01*
G01*
X6782250Y-12851000D02*
G75*
G02*
X6632250Y-12851000I-75000J0D01*
G01*
X6632250Y-12851000D02*
G75*
G02*
X6782250Y-12851000I75000J0D01*
G01*
X6941000Y-6882000D02*
G75*
G02*
X6791000Y-6882000I-75000J0D01*
G01*
X6791000Y-6882000D02*
G75*
G02*
X6941000Y-6882000I75000J0D01*
G01*
X7258500Y-4754750D02*
G75*
G02*
X7108500Y-4754750I-75000J0D01*
G01*
X7108500Y-4754750D02*
G75*
G02*
X7258500Y-4754750I75000J0D01*
G01*
X7258500Y-9041000D02*
G75*
G02*
X7108500Y-9041000I-75000J0D01*
G01*
X7108500Y-9041000D02*
G75*
G02*
X7258500Y-9041000I75000J0D01*
G01*
X7417250Y-12597000D02*
G75*
G02*
X7267250Y-12597000I-75000J0D01*
G01*
X7267250Y-12597000D02*
G75*
G02*
X7417250Y-12597000I75000J0D01*
G01*
X7734750Y-10946000D02*
G75*
G02*
X7584750Y-10946000I-75000J0D01*
G01*
X7584750Y-10946000D02*
G75*
G02*
X7734750Y-10946000I75000J0D01*
G01*
X7893500Y-4500750D02*
G75*
G02*
X7743500Y-4500750I-75000J0D01*
G01*
X7743500Y-4500750D02*
G75*
G02*
X7893500Y-4500750I75000J0D01*
G01*
X7893500Y-8787000D02*
G75*
G02*
X7743500Y-8787000I-75000J0D01*
G01*
X7743500Y-8787000D02*
G75*
G02*
X7893500Y-8787000I75000J0D01*
G01*
X8211000Y-7136000D02*
G75*
G02*
X8061000Y-7136000I-75000J0D01*
G01*
X8061000Y-7136000D02*
G75*
G02*
X8211000Y-7136000I75000J0D01*
G01*
X8369750Y-10692000D02*
G75*
G02*
X8219750Y-10692000I-75000J0D01*
G01*
X8219750Y-10692000D02*
G75*
G02*
X8369750Y-10692000I75000J0D01*
G01*
X8687250Y-12851000D02*
G75*
G02*
X8537250Y-12851000I-75000J0D01*
G01*
X8537250Y-12851000D02*
G75*
G02*
X8687250Y-12851000I75000J0D01*
G01*
X8846000Y-6882000D02*
G75*
G02*
X8696000Y-6882000I-75000J0D01*
G01*
X8696000Y-6882000D02*
G75*
G02*
X8846000Y-6882000I75000J0D01*
G01*
X9163500Y-4754750D02*
G75*
G02*
X9013500Y-4754750I-75000J0D01*
G01*
X9013500Y-4754750D02*
G75*
G02*
X9163500Y-4754750I75000J0D01*
G01*
X9163500Y-9041000D02*
G75*
G02*
X9013500Y-9041000I-75000J0D01*
G01*
X9013500Y-9041000D02*
G75*
G02*
X9163500Y-9041000I75000J0D01*
G01*
X9322250Y-12597000D02*
G75*
G02*
X9172250Y-12597000I-75000J0D01*
G01*
X9172250Y-12597000D02*
G75*
G02*
X9322250Y-12597000I75000J0D01*
G01*
X9639750Y-10946000D02*
G75*
G02*
X9489750Y-10946000I-75000J0D01*
G01*
X9489750Y-10946000D02*
G75*
G02*
X9639750Y-10946000I75000J0D01*
G01*
X9798500Y-4500750D02*
G75*
G02*
X9648500Y-4500750I-75000J0D01*
G01*
X9648500Y-4500750D02*
G75*
G02*
X9798500Y-4500750I75000J0D01*
G01*
X9798500Y-8787000D02*
G75*
G02*
X9648500Y-8787000I-75000J0D01*
G01*
X9648500Y-8787000D02*
G75*
G02*
X9798500Y-8787000I75000J0D01*
G01*
X10116000Y-7136000D02*
G75*
G02*
X9966000Y-7136000I-75000J0D01*
G01*
X9966000Y-7136000D02*
G75*
G02*
X10116000Y-7136000I75000J0D01*
G01*
X10274750Y-10692000D02*
G75*
G02*
X10124750Y-10692000I-75000J0D01*
G01*
X10124750Y-10692000D02*
G75*
G02*
X10274750Y-10692000I75000J0D01*
G01*
X10592250Y-12851000D02*
G75*
G02*
X10442250Y-12851000I-75000J0D01*
G01*
X10442250Y-12851000D02*
G75*
G02*
X10592250Y-12851000I75000J0D01*
G01*
X10751000Y-6882000D02*
G75*
G02*
X10601000Y-6882000I-75000J0D01*
G01*
X10601000Y-6882000D02*
G75*
G02*
X10751000Y-6882000I75000J0D01*
G01*
X11068500Y-9041000D02*
G75*
G02*
X10918500Y-9041000I-75000J0D01*
G01*
X10918500Y-9041000D02*
G75*
G02*
X11068500Y-9041000I75000J0D01*
G01*
X11227250Y-12597000D02*
G75*
G02*
X11077250Y-12597000I-75000J0D01*
G01*
X11077250Y-12597000D02*
G75*
G02*
X11227250Y-12597000I75000J0D01*
G01*
X11544750Y-10946000D02*
G75*
G02*
X11394750Y-10946000I-75000J0D01*
G01*
X11394750Y-10946000D02*
G75*
G02*
X11544750Y-10946000I75000J0D01*
G01*
X11703500Y-8787000D02*
G75*
G02*
X11553500Y-8787000I-75000J0D01*
G01*
X11553500Y-8787000D02*
G75*
G02*
X11703500Y-8787000I75000J0D01*
G01*
X12021000Y-7136000D02*
G75*
G02*
X11871000Y-7136000I-75000J0D01*
G01*
X11871000Y-7136000D02*
G75*
G02*
X12021000Y-7136000I75000J0D01*
G01*
X12179750Y-10692000D02*
G75*
G02*
X12029750Y-10692000I-75000J0D01*
G01*
X12029750Y-10692000D02*
G75*
G02*
X12179750Y-10692000I75000J0D01*
G01*
X12497250Y-4754750D02*
G75*
G02*
X12347250Y-4754750I-75000J0D01*
G01*
X12347250Y-4754750D02*
G75*
G02*
X12497250Y-4754750I75000J0D01*
G01*
X12497250Y-12851000D02*
G75*
G02*
X12347250Y-12851000I-75000J0D01*
G01*
X12347250Y-12851000D02*
G75*
G02*
X12497250Y-12851000I75000J0D01*
G01*
X12656000Y-6882000D02*
G75*
G02*
X12506000Y-6882000I-75000J0D01*
G01*
X12506000Y-6882000D02*
G75*
G02*
X12656000Y-6882000I75000J0D01*
G01*
X12735375Y-14756000D02*
G75*
G02*
X12585375Y-14756000I-75000J0D01*
G01*
X12585375Y-14756000D02*
G75*
G02*
X12735375Y-14756000I75000J0D01*
G01*
X12973500Y-9041000D02*
G75*
G02*
X12823500Y-9041000I-75000J0D01*
G01*
X12823500Y-9041000D02*
G75*
G02*
X12973500Y-9041000I75000J0D01*
G01*
X13132250Y-4500750D02*
G75*
G02*
X12982250Y-4500750I-75000J0D01*
G01*
X12982250Y-4500750D02*
G75*
G02*
X13132250Y-4500750I75000J0D01*
G01*
X13132250Y-12597000D02*
G75*
G02*
X12982250Y-12597000I-75000J0D01*
G01*
X12982250Y-12597000D02*
G75*
G02*
X13132250Y-12597000I75000J0D01*
G01*
X13370375Y-14502000D02*
G75*
G02*
X13220375Y-14502000I-75000J0D01*
G01*
X13220375Y-14502000D02*
G75*
G02*
X13370375Y-14502000I75000J0D01*
G01*
X13449750Y-10946000D02*
G75*
G02*
X13299750Y-10946000I-75000J0D01*
G01*
X13299750Y-10946000D02*
G75*
G02*
X13449750Y-10946000I75000J0D01*
G01*
X13608500Y-8787000D02*
G75*
G02*
X13458500Y-8787000I-75000J0D01*
G01*
X13458500Y-8787000D02*
G75*
G02*
X13608500Y-8787000I75000J0D01*
G01*
X13926000Y-7136000D02*
G75*
G02*
X13776000Y-7136000I-75000J0D01*
G01*
X13776000Y-7136000D02*
G75*
G02*
X13926000Y-7136000I75000J0D01*
G01*
X14084750Y-10692000D02*
G75*
G02*
X13934750Y-10692000I-75000J0D01*
G01*
X13934750Y-10692000D02*
G75*
G02*
X14084750Y-10692000I75000J0D01*
G01*
X14402250Y-4754750D02*
G75*
G02*
X14252250Y-4754750I-75000J0D01*
G01*
X14252250Y-4754750D02*
G75*
G02*
X14402250Y-4754750I75000J0D01*
G01*
X14402250Y-12851000D02*
G75*
G02*
X14252250Y-12851000I-75000J0D01*
G01*
X14252250Y-12851000D02*
G75*
G02*
X14402250Y-12851000I75000J0D01*
G01*
X14561000Y-6882000D02*
G75*
G02*
X14411000Y-6882000I-75000J0D01*
G01*
X14411000Y-6882000D02*
G75*
G02*
X14561000Y-6882000I75000J0D01*
G01*
X14878500Y-9041000D02*
G75*
G02*
X14728500Y-9041000I-75000J0D01*
G01*
X14728500Y-9041000D02*
G75*
G02*
X14878500Y-9041000I75000J0D01*
G01*
X15037250Y-4500750D02*
G75*
G02*
X14887250Y-4500750I-75000J0D01*
G01*
X14887250Y-4500750D02*
G75*
G02*
X15037250Y-4500750I75000J0D01*
G01*
X15037250Y-12597000D02*
G75*
G02*
X14887250Y-12597000I-75000J0D01*
G01*
X14887250Y-12597000D02*
G75*
G02*
X15037250Y-12597000I75000J0D01*
G01*
X15354750Y-10946000D02*
G75*
G02*
X15204750Y-10946000I-75000J0D01*
G01*
X15204750Y-10946000D02*
G75*
G02*
X15354750Y-10946000I75000J0D01*
G01*
X15513500Y-8787000D02*
G75*
G02*
X15363500Y-8787000I-75000J0D01*
G01*
X15363500Y-8787000D02*
G75*
G02*
X15513500Y-8787000I75000J0D01*
G01*
X15831000Y-7136000D02*
G75*
G02*
X15681000Y-7136000I-75000J0D01*
G01*
X15681000Y-7136000D02*
G75*
G02*
X15831000Y-7136000I75000J0D01*
G01*
X15989750Y-10692000D02*
G75*
G02*
X15839750Y-10692000I-75000J0D01*
G01*
X15839750Y-10692000D02*
G75*
G02*
X15989750Y-10692000I75000J0D01*
G01*
X16307250Y-4754750D02*
G75*
G02*
X16157250Y-4754750I-75000J0D01*
G01*
X16157250Y-4754750D02*
G75*
G02*
X16307250Y-4754750I75000J0D01*
G01*
X16307250Y-12851000D02*
G75*
G02*
X16157250Y-12851000I-75000J0D01*
G01*
X16157250Y-12851000D02*
G75*
G02*
X16307250Y-12851000I75000J0D01*
G01*
X16466000Y-6882000D02*
G75*
G02*
X16316000Y-6882000I-75000J0D01*
G01*
X16316000Y-6882000D02*
G75*
G02*
X16466000Y-6882000I75000J0D01*
G01*
X16783500Y-9041000D02*
G75*
G02*
X16633500Y-9041000I-75000J0D01*
G01*
X16633500Y-9041000D02*
G75*
G02*
X16783500Y-9041000I75000J0D01*
G01*
X16942250Y-4500750D02*
G75*
G02*
X16792250Y-4500750I-75000J0D01*
G01*
X16792250Y-4500750D02*
G75*
G02*
X16942250Y-4500750I75000J0D01*
G01*
X16942250Y-12597000D02*
G75*
G02*
X16792250Y-12597000I-75000J0D01*
G01*
X16792250Y-12597000D02*
G75*
G02*
X16942250Y-12597000I75000J0D01*
G01*
X17259750Y-10946000D02*
G75*
G02*
X17109750Y-10946000I-75000J0D01*
G01*
X17109750Y-10946000D02*
G75*
G02*
X17259750Y-10946000I75000J0D01*
G01*
X17418500Y-8787000D02*
G75*
G02*
X17268500Y-8787000I-75000J0D01*
G01*
X17268500Y-8787000D02*
G75*
G02*
X17418500Y-8787000I75000J0D01*
G01*
X17736000Y-7136000D02*
G75*
G02*
X17586000Y-7136000I-75000J0D01*
G01*
X17586000Y-7136000D02*
G75*
G02*
X17736000Y-7136000I75000J0D01*
G01*
X17894750Y-10692000D02*
G75*
G02*
X17744750Y-10692000I-75000J0D01*
G01*
X17744750Y-10692000D02*
G75*
G02*
X17894750Y-10692000I75000J0D01*
G01*
X18212250Y-4754750D02*
G75*
G02*
X18062250Y-4754750I-75000J0D01*
G01*
X18062250Y-4754750D02*
G75*
G02*
X18212250Y-4754750I75000J0D01*
G01*
X18212250Y-12851000D02*
G75*
G02*
X18062250Y-12851000I-75000J0D01*
G01*
X18062250Y-12851000D02*
G75*
G02*
X18212250Y-12851000I75000J0D01*
G01*
X18371000Y-6882000D02*
G75*
G02*
X18221000Y-6882000I-75000J0D01*
G01*
X18221000Y-6882000D02*
G75*
G02*
X18371000Y-6882000I75000J0D01*
G01*
X18688500Y-9041000D02*
G75*
G02*
X18538500Y-9041000I-75000J0D01*
G01*
X18538500Y-9041000D02*
G75*
G02*
X18688500Y-9041000I75000J0D01*
G01*
X18847250Y-4500750D02*
G75*
G02*
X18697250Y-4500750I-75000J0D01*
G01*
X18697250Y-4500750D02*
G75*
G02*
X18847250Y-4500750I75000J0D01*
G01*
X18847250Y-12597000D02*
G75*
G02*
X18697250Y-12597000I-75000J0D01*
G01*
X18697250Y-12597000D02*
G75*
G02*
X18847250Y-12597000I75000J0D01*
G01*
X19164750Y-10946000D02*
G75*
G02*
X19014750Y-10946000I-75000J0D01*
G01*
X19014750Y-10946000D02*
G75*
G02*
X19164750Y-10946000I75000J0D01*
G01*
X19323500Y-8787000D02*
G75*
G02*
X19173500Y-8787000I-75000J0D01*
G01*
X19173500Y-8787000D02*
G75*
G02*
X19323500Y-8787000I75000J0D01*
G01*
X19641000Y-7136000D02*
G75*
G02*
X19491000Y-7136000I-75000J0D01*
G01*
X19491000Y-7136000D02*
G75*
G02*
X19641000Y-7136000I75000J0D01*
G01*
X19799750Y-10692000D02*
G75*
G02*
X19649750Y-10692000I-75000J0D01*
G01*
X19649750Y-10692000D02*
G75*
G02*
X19799750Y-10692000I75000J0D01*
G01*
X19879125Y-14756000D02*
G75*
G02*
X19729125Y-14756000I-75000J0D01*
G01*
X19729125Y-14756000D02*
G75*
G02*
X19879125Y-14756000I75000J0D01*
G01*
X20117250Y-12851000D02*
G75*
G02*
X19967250Y-12851000I-75000J0D01*
G01*
X19967250Y-12851000D02*
G75*
G02*
X20117250Y-12851000I75000J0D01*
G01*
X20276000Y-6882000D02*
G75*
G02*
X20126000Y-6882000I-75000J0D01*
G01*
X20126000Y-6882000D02*
G75*
G02*
X20276000Y-6882000I75000J0D01*
G01*
X20514125Y-14502000D02*
G75*
G02*
X20364125Y-14502000I-75000J0D01*
G01*
X20364125Y-14502000D02*
G75*
G02*
X20514125Y-14502000I75000J0D01*
G01*
X20593500Y-9041000D02*
G75*
G02*
X20443500Y-9041000I-75000J0D01*
G01*
X20443500Y-9041000D02*
G75*
G02*
X20593500Y-9041000I75000J0D01*
G01*
X20752250Y-12597000D02*
G75*
G02*
X20602250Y-12597000I-75000J0D01*
G01*
X20602250Y-12597000D02*
G75*
G02*
X20752250Y-12597000I75000J0D01*
G01*
X21069750Y-10946000D02*
G75*
G02*
X20919750Y-10946000I-75000J0D01*
G01*
X20919750Y-10946000D02*
G75*
G02*
X21069750Y-10946000I75000J0D01*
G01*
X21228500Y-8787000D02*
G75*
G02*
X21078500Y-8787000I-75000J0D01*
G01*
X21078500Y-8787000D02*
G75*
G02*
X21228500Y-8787000I75000J0D01*
G01*
X21546000Y-4754750D02*
G75*
G02*
X21396000Y-4754750I-75000J0D01*
G01*
X21396000Y-4754750D02*
G75*
G02*
X21546000Y-4754750I75000J0D01*
G01*
X21546000Y-7136000D02*
G75*
G02*
X21396000Y-7136000I-75000J0D01*
G01*
X21396000Y-7136000D02*
G75*
G02*
X21546000Y-7136000I75000J0D01*
G01*
X21704750Y-10692000D02*
G75*
G02*
X21554750Y-10692000I-75000J0D01*
G01*
X21554750Y-10692000D02*
G75*
G02*
X21704750Y-10692000I75000J0D01*
G01*
X22022250Y-12851000D02*
G75*
G02*
X21872250Y-12851000I-75000J0D01*
G01*
X21872250Y-12851000D02*
G75*
G02*
X22022250Y-12851000I75000J0D01*
G01*
X22181000Y-4500750D02*
G75*
G02*
X22031000Y-4500750I-75000J0D01*
G01*
X22031000Y-4500750D02*
G75*
G02*
X22181000Y-4500750I75000J0D01*
G01*
X22181000Y-6882000D02*
G75*
G02*
X22031000Y-6882000I-75000J0D01*
G01*
X22031000Y-6882000D02*
G75*
G02*
X22181000Y-6882000I75000J0D01*
G01*
X22260375Y-14756000D02*
G75*
G02*
X22110375Y-14756000I-75000J0D01*
G01*
X22110375Y-14756000D02*
G75*
G02*
X22260375Y-14756000I75000J0D01*
G01*
X22498500Y-9041000D02*
G75*
G02*
X22348500Y-9041000I-75000J0D01*
G01*
X22348500Y-9041000D02*
G75*
G02*
X22498500Y-9041000I75000J0D01*
G01*
X22657250Y-12597000D02*
G75*
G02*
X22507250Y-12597000I-75000J0D01*
G01*
X22507250Y-12597000D02*
G75*
G02*
X22657250Y-12597000I75000J0D01*
G01*
X22895375Y-14502000D02*
G75*
G02*
X22745375Y-14502000I-75000J0D01*
G01*
X22745375Y-14502000D02*
G75*
G02*
X22895375Y-14502000I75000J0D01*
G01*
X22974750Y-10946000D02*
G75*
G02*
X22824750Y-10946000I-75000J0D01*
G01*
X22824750Y-10946000D02*
G75*
G02*
X22974750Y-10946000I75000J0D01*
G01*
X23133500Y-8787000D02*
G75*
G02*
X22983500Y-8787000I-75000J0D01*
G01*
X22983500Y-8787000D02*
G75*
G02*
X23133500Y-8787000I75000J0D01*
G01*
X23451000Y-4754750D02*
G75*
G02*
X23301000Y-4754750I-75000J0D01*
G01*
X23301000Y-4754750D02*
G75*
G02*
X23451000Y-4754750I75000J0D01*
G01*
X23451000Y-7136000D02*
G75*
G02*
X23301000Y-7136000I-75000J0D01*
G01*
X23301000Y-7136000D02*
G75*
G02*
X23451000Y-7136000I75000J0D01*
G01*
X23609750Y-10692000D02*
G75*
G02*
X23459750Y-10692000I-75000J0D01*
G01*
X23459750Y-10692000D02*
G75*
G02*
X23609750Y-10692000I75000J0D01*
G01*
X24086000Y-4500750D02*
G75*
G02*
X23936000Y-4500750I-75000J0D01*
G01*
X23936000Y-4500750D02*
G75*
G02*
X24086000Y-4500750I75000J0D01*
G01*
X24086000Y-6882000D02*
G75*
G02*
X23936000Y-6882000I-75000J0D01*
G01*
X23936000Y-6882000D02*
G75*
G02*
X24086000Y-6882000I75000J0D01*
G01*
X24403500Y-9041000D02*
G75*
G02*
X24253500Y-9041000I-75000J0D01*
G01*
X24253500Y-9041000D02*
G75*
G02*
X24403500Y-9041000I75000J0D01*
G01*
X24641625Y-14756000D02*
G75*
G02*
X24491625Y-14756000I-75000J0D01*
G01*
X24491625Y-14756000D02*
G75*
G02*
X24641625Y-14756000I75000J0D01*
G01*
X25038500Y-8787000D02*
G75*
G02*
X24888500Y-8787000I-75000J0D01*
G01*
X24888500Y-8787000D02*
G75*
G02*
X25038500Y-8787000I75000J0D01*
G01*
X25276625Y-14502000D02*
G75*
G02*
X25126625Y-14502000I-75000J0D01*
G01*
X25126625Y-14502000D02*
G75*
G02*
X25276625Y-14502000I75000J0D01*
G01*
X25356000Y-4754750D02*
G75*
G02*
X25206000Y-4754750I-75000J0D01*
G01*
X25206000Y-4754750D02*
G75*
G02*
X25356000Y-4754750I75000J0D01*
G01*
X25594125Y-12851000D02*
G75*
G02*
X25444125Y-12851000I-75000J0D01*
G01*
X25444125Y-12851000D02*
G75*
G02*
X25594125Y-12851000I75000J0D01*
G01*
X25991000Y-4500750D02*
G75*
G02*
X25841000Y-4500750I-75000J0D01*
G01*
X25841000Y-4500750D02*
G75*
G02*
X25991000Y-4500750I75000J0D01*
G01*
X26070375Y-10946000D02*
G75*
G02*
X25920375Y-10946000I-75000J0D01*
G01*
X25920375Y-10946000D02*
G75*
G02*
X26070375Y-10946000I75000J0D01*
G01*
X26229125Y-12597000D02*
G75*
G02*
X26079125Y-12597000I-75000J0D01*
G01*
X26079125Y-12597000D02*
G75*
G02*
X26229125Y-12597000I75000J0D01*
G01*
X26308500Y-7136000D02*
G75*
G02*
X26158500Y-7136000I-75000J0D01*
G01*
X26158500Y-7136000D02*
G75*
G02*
X26308500Y-7136000I75000J0D01*
G01*
X26705375Y-10692000D02*
G75*
G02*
X26555375Y-10692000I-75000J0D01*
G01*
X26555375Y-10692000D02*
G75*
G02*
X26705375Y-10692000I75000J0D01*
G01*
X26784750Y-9041000D02*
G75*
G02*
X26634750Y-9041000I-75000J0D01*
G01*
X26634750Y-9041000D02*
G75*
G02*
X26784750Y-9041000I75000J0D01*
G01*
X26943500Y-6882000D02*
G75*
G02*
X26793500Y-6882000I-75000J0D01*
G01*
X26793500Y-6882000D02*
G75*
G02*
X26943500Y-6882000I75000J0D01*
G01*
X27022875Y-14756000D02*
G75*
G02*
X26872875Y-14756000I-75000J0D01*
G01*
X26872875Y-14756000D02*
G75*
G02*
X27022875Y-14756000I75000J0D01*
G01*
X27419750Y-8787000D02*
G75*
G02*
X27269750Y-8787000I-75000J0D01*
G01*
X27269750Y-8787000D02*
G75*
G02*
X27419750Y-8787000I75000J0D01*
G01*
X27657875Y-14502000D02*
G75*
G02*
X27507875Y-14502000I-75000J0D01*
G01*
X27507875Y-14502000D02*
G75*
G02*
X27657875Y-14502000I75000J0D01*
G01*
X29642250Y-8088500D02*
G75*
G02*
X29492250Y-8088500I-75000J0D01*
G01*
X29492250Y-8088500D02*
G75*
G02*
X29642250Y-8088500I75000J0D01*
G01*
X29642250Y-9993500D02*
G75*
G02*
X29492250Y-9993500I-75000J0D01*
G01*
X29492250Y-9993500D02*
G75*
G02*
X29642250Y-9993500I75000J0D01*
G01*
X29642250Y-11898500D02*
G75*
G02*
X29492250Y-11898500I-75000J0D01*
G01*
X29492250Y-11898500D02*
G75*
G02*
X29642250Y-11898500I75000J0D01*
G01*
X29642250Y-13803500D02*
G75*
G02*
X29492250Y-13803500I-75000J0D01*
G01*
X29492250Y-13803500D02*
G75*
G02*
X29642250Y-13803500I75000J0D01*
G01*
X30277250Y-7834500D02*
G75*
G02*
X30127250Y-7834500I-75000J0D01*
G01*
X30127250Y-7834500D02*
G75*
G02*
X30277250Y-7834500I75000J0D01*
G01*
X30277250Y-9739500D02*
G75*
G02*
X30127250Y-9739500I-75000J0D01*
G01*
X30127250Y-9739500D02*
G75*
G02*
X30277250Y-9739500I75000J0D01*
G01*
X30277250Y-11644500D02*
G75*
G02*
X30127250Y-11644500I-75000J0D01*
G01*
X30127250Y-11644500D02*
G75*
G02*
X30277250Y-11644500I75000J0D01*
G01*
X30277250Y-13549500D02*
G75*
G02*
X30127250Y-13549500I-75000J0D01*
G01*
X30127250Y-13549500D02*
G75*
G02*
X30277250Y-13549500I75000J0D01*
G01*
D11*
X-91723Y-17163984D02*
X-91723Y-16963984D01*
X-91723Y-16963984D02*
X-44104Y-16963984D01*
X-44104Y-16963984D02*
X-15533Y-16973508D01*
X-15533Y-16973508D02*
X3515Y-16992555D01*
X3515Y-16992555D02*
X13039Y-17011603D01*
X13039Y-17011603D02*
X22562Y-17049698D01*
X22562Y-17049698D02*
X22562Y-17078270D01*
X22562Y-17078270D02*
X13039Y-17116365D01*
X13039Y-17116365D02*
X3515Y-17135412D01*
X3515Y-17135412D02*
X-15533Y-17154460D01*
X-15533Y-17154460D02*
X-44104Y-17163984D01*
X-44104Y-17163984D02*
X-91723Y-17163984D01*
X108277Y-17163984D02*
X108277Y-17030650D01*
X108277Y-17068746D02*
X117801Y-17049698D01*
X117801Y-17049698D02*
X127324Y-17040174D01*
X127324Y-17040174D02*
X146372Y-17030650D01*
X146372Y-17030650D02*
X165420Y-17030650D01*
X232086Y-17163984D02*
X232086Y-17030650D01*
X232086Y-16963984D02*
X222562Y-16973508D01*
X222562Y-16973508D02*
X232086Y-16983031D01*
X232086Y-16983031D02*
X241610Y-16973508D01*
X241610Y-16973508D02*
X232086Y-16963984D01*
X232086Y-16963984D02*
X232086Y-16983031D01*
X355896Y-17163984D02*
X336848Y-17154460D01*
X336848Y-17154460D02*
X327324Y-17135412D01*
X327324Y-17135412D02*
X327324Y-16963984D01*
X460658Y-17163984D02*
X441610Y-17154460D01*
X441610Y-17154460D02*
X432086Y-17135412D01*
X432086Y-17135412D02*
X432086Y-16963984D01*
X689229Y-17163984D02*
X689229Y-16963984D01*
X689229Y-16963984D02*
X755896Y-17106841D01*
X755896Y-17106841D02*
X822562Y-16963984D01*
X822562Y-16963984D02*
X822562Y-17163984D01*
X1003515Y-17163984D02*
X1003515Y-17059222D01*
X1003515Y-17059222D02*
X993991Y-17040174D01*
X993991Y-17040174D02*
X974943Y-17030650D01*
X974943Y-17030650D02*
X936848Y-17030650D01*
X936848Y-17030650D02*
X917801Y-17040174D01*
X1003515Y-17154460D02*
X984467Y-17163984D01*
X984467Y-17163984D02*
X936848Y-17163984D01*
X936848Y-17163984D02*
X917801Y-17154460D01*
X917801Y-17154460D02*
X908277Y-17135412D01*
X908277Y-17135412D02*
X908277Y-17116365D01*
X908277Y-17116365D02*
X917801Y-17097317D01*
X917801Y-17097317D02*
X936848Y-17087793D01*
X936848Y-17087793D02*
X984467Y-17087793D01*
X984467Y-17087793D02*
X1003515Y-17078270D01*
X1098753Y-17030650D02*
X1098753Y-17230650D01*
X1098753Y-17040174D02*
X1117801Y-17030650D01*
X1117801Y-17030650D02*
X1155896Y-17030650D01*
X1155896Y-17030650D02*
X1174944Y-17040174D01*
X1174944Y-17040174D02*
X1184467Y-17049698D01*
X1184467Y-17049698D02*
X1193991Y-17068746D01*
X1193991Y-17068746D02*
X1193991Y-17125889D01*
X1193991Y-17125889D02*
X1184467Y-17144936D01*
X1184467Y-17144936D02*
X1174944Y-17154460D01*
X1174944Y-17154460D02*
X1155896Y-17163984D01*
X1155896Y-17163984D02*
X1117801Y-17163984D01*
X1117801Y-17163984D02*
X1098753Y-17154460D01*
X1279705Y-17144936D02*
X1289229Y-17154460D01*
X1289229Y-17154460D02*
X1279705Y-17163984D01*
X1279705Y-17163984D02*
X1270182Y-17154460D01*
X1270182Y-17154460D02*
X1279705Y-17144936D01*
X1279705Y-17144936D02*
X1279705Y-17163984D01*
X1279705Y-17040174D02*
X1289229Y-17049698D01*
X1289229Y-17049698D02*
X1279705Y-17059222D01*
X1279705Y-17059222D02*
X1270182Y-17049698D01*
X1270182Y-17049698D02*
X1279705Y-17040174D01*
X1279705Y-17040174D02*
X1279705Y-17059222D01*
D12*
X-461720Y-17437890D02*
X-352500Y-17547110D01*
X-352500Y-17437890D02*
X-461720Y-17547110D01*
D11*
X13039Y-17583984D02*
X-101247Y-17583984D01*
X-44104Y-17583984D02*
X-44104Y-17383984D01*
X-44104Y-17383984D02*
X-63152Y-17412555D01*
X-63152Y-17412555D02*
X-82199Y-17431603D01*
X-82199Y-17431603D02*
X-101247Y-17441127D01*
X98753Y-17564936D02*
X108277Y-17574460D01*
X108277Y-17574460D02*
X98753Y-17583984D01*
X98753Y-17583984D02*
X89229Y-17574460D01*
X89229Y-17574460D02*
X98753Y-17564936D01*
X98753Y-17564936D02*
X98753Y-17583984D01*
X232086Y-17383984D02*
X251134Y-17383984D01*
X251134Y-17383984D02*
X270182Y-17393508D01*
X270182Y-17393508D02*
X279705Y-17403031D01*
X279705Y-17403031D02*
X289229Y-17422079D01*
X289229Y-17422079D02*
X298753Y-17460174D01*
X298753Y-17460174D02*
X298753Y-17507793D01*
X298753Y-17507793D02*
X289229Y-17545889D01*
X289229Y-17545889D02*
X279705Y-17564936D01*
X279705Y-17564936D02*
X270182Y-17574460D01*
X270182Y-17574460D02*
X251134Y-17583984D01*
X251134Y-17583984D02*
X232086Y-17583984D01*
X232086Y-17583984D02*
X213039Y-17574460D01*
X213039Y-17574460D02*
X203515Y-17564936D01*
X203515Y-17564936D02*
X193991Y-17545889D01*
X193991Y-17545889D02*
X184467Y-17507793D01*
X184467Y-17507793D02*
X184467Y-17460174D01*
X184467Y-17460174D02*
X193991Y-17422079D01*
X193991Y-17422079D02*
X203515Y-17403031D01*
X203515Y-17403031D02*
X213039Y-17393508D01*
X213039Y-17393508D02*
X232086Y-17383984D01*
X393991Y-17583984D02*
X432086Y-17583984D01*
X432086Y-17583984D02*
X451134Y-17574460D01*
X451134Y-17574460D02*
X460658Y-17564936D01*
X460658Y-17564936D02*
X479705Y-17536365D01*
X479705Y-17536365D02*
X489229Y-17498270D01*
X489229Y-17498270D02*
X489229Y-17422079D01*
X489229Y-17422079D02*
X479705Y-17403031D01*
X479705Y-17403031D02*
X470182Y-17393508D01*
X470182Y-17393508D02*
X451134Y-17383984D01*
X451134Y-17383984D02*
X413039Y-17383984D01*
X413039Y-17383984D02*
X393991Y-17393508D01*
X393991Y-17393508D02*
X384467Y-17403031D01*
X384467Y-17403031D02*
X374943Y-17422079D01*
X374943Y-17422079D02*
X374943Y-17469698D01*
X374943Y-17469698D02*
X384467Y-17488746D01*
X384467Y-17488746D02*
X393991Y-17498270D01*
X393991Y-17498270D02*
X413039Y-17507793D01*
X413039Y-17507793D02*
X451134Y-17507793D01*
X451134Y-17507793D02*
X470182Y-17498270D01*
X470182Y-17498270D02*
X479705Y-17488746D01*
X479705Y-17488746D02*
X489229Y-17469698D01*
X565420Y-17403031D02*
X574944Y-17393508D01*
X574944Y-17393508D02*
X593991Y-17383984D01*
X593991Y-17383984D02*
X641610Y-17383984D01*
X641610Y-17383984D02*
X660658Y-17393508D01*
X660658Y-17393508D02*
X670182Y-17403031D01*
X670182Y-17403031D02*
X679705Y-17422079D01*
X679705Y-17422079D02*
X679705Y-17441127D01*
X679705Y-17441127D02*
X670182Y-17469698D01*
X670182Y-17469698D02*
X555896Y-17583984D01*
X555896Y-17583984D02*
X679705Y-17583984D01*
X765420Y-17583984D02*
X765420Y-17450650D01*
X765420Y-17469698D02*
X774943Y-17460174D01*
X774943Y-17460174D02*
X793991Y-17450650D01*
X793991Y-17450650D02*
X822563Y-17450650D01*
X822563Y-17450650D02*
X841610Y-17460174D01*
X841610Y-17460174D02*
X851134Y-17479222D01*
X851134Y-17479222D02*
X851134Y-17583984D01*
X851134Y-17479222D02*
X860658Y-17460174D01*
X860658Y-17460174D02*
X879705Y-17450650D01*
X879705Y-17450650D02*
X908277Y-17450650D01*
X908277Y-17450650D02*
X927324Y-17460174D01*
X927324Y-17460174D02*
X936848Y-17479222D01*
X936848Y-17479222D02*
X936848Y-17583984D01*
X1032086Y-17583984D02*
X1032086Y-17450650D01*
X1032086Y-17469698D02*
X1041610Y-17460174D01*
X1041610Y-17460174D02*
X1060658Y-17450650D01*
X1060658Y-17450650D02*
X1089229Y-17450650D01*
X1089229Y-17450650D02*
X1108277Y-17460174D01*
X1108277Y-17460174D02*
X1117801Y-17479222D01*
X1117801Y-17479222D02*
X1117801Y-17583984D01*
X1117801Y-17479222D02*
X1127325Y-17460174D01*
X1127325Y-17460174D02*
X1146372Y-17450650D01*
X1146372Y-17450650D02*
X1174944Y-17450650D01*
X1174944Y-17450650D02*
X1193991Y-17460174D01*
X1193991Y-17460174D02*
X1203515Y-17479222D01*
X1203515Y-17479222D02*
X1203515Y-17583984D01*
X1593991Y-17374460D02*
X1422563Y-17631603D01*
X1851134Y-17383984D02*
X1870182Y-17383984D01*
X1870182Y-17383984D02*
X1889229Y-17393508D01*
X1889229Y-17393508D02*
X1898753Y-17403031D01*
X1898753Y-17403031D02*
X1908277Y-17422079D01*
X1908277Y-17422079D02*
X1917801Y-17460174D01*
X1917801Y-17460174D02*
X1917801Y-17507793D01*
X1917801Y-17507793D02*
X1908277Y-17545889D01*
X1908277Y-17545889D02*
X1898753Y-17564936D01*
X1898753Y-17564936D02*
X1889229Y-17574460D01*
X1889229Y-17574460D02*
X1870182Y-17583984D01*
X1870182Y-17583984D02*
X1851134Y-17583984D01*
X1851134Y-17583984D02*
X1832086Y-17574460D01*
X1832086Y-17574460D02*
X1822563Y-17564936D01*
X1822563Y-17564936D02*
X1813039Y-17545889D01*
X1813039Y-17545889D02*
X1803515Y-17507793D01*
X1803515Y-17507793D02*
X1803515Y-17460174D01*
X1803515Y-17460174D02*
X1813039Y-17422079D01*
X1813039Y-17422079D02*
X1822563Y-17403031D01*
X1822563Y-17403031D02*
X1832086Y-17393508D01*
X1832086Y-17393508D02*
X1851134Y-17383984D01*
X2003515Y-17564936D02*
X2013039Y-17574460D01*
X2013039Y-17574460D02*
X2003515Y-17583984D01*
X2003515Y-17583984D02*
X1993991Y-17574460D01*
X1993991Y-17574460D02*
X2003515Y-17564936D01*
X2003515Y-17564936D02*
X2003515Y-17583984D01*
X2136848Y-17383984D02*
X2155896Y-17383984D01*
X2155896Y-17383984D02*
X2174944Y-17393508D01*
X2174944Y-17393508D02*
X2184468Y-17403031D01*
X2184468Y-17403031D02*
X2193991Y-17422079D01*
X2193991Y-17422079D02*
X2203515Y-17460174D01*
X2203515Y-17460174D02*
X2203515Y-17507793D01*
X2203515Y-17507793D02*
X2193991Y-17545889D01*
X2193991Y-17545889D02*
X2184468Y-17564936D01*
X2184468Y-17564936D02*
X2174944Y-17574460D01*
X2174944Y-17574460D02*
X2155896Y-17583984D01*
X2155896Y-17583984D02*
X2136848Y-17583984D01*
X2136848Y-17583984D02*
X2117801Y-17574460D01*
X2117801Y-17574460D02*
X2108277Y-17564936D01*
X2108277Y-17564936D02*
X2098753Y-17545889D01*
X2098753Y-17545889D02*
X2089229Y-17507793D01*
X2089229Y-17507793D02*
X2089229Y-17460174D01*
X2089229Y-17460174D02*
X2098753Y-17422079D01*
X2098753Y-17422079D02*
X2108277Y-17403031D01*
X2108277Y-17403031D02*
X2117801Y-17393508D01*
X2117801Y-17393508D02*
X2136848Y-17383984D01*
X2374944Y-17450650D02*
X2374944Y-17583984D01*
X2327325Y-17374460D02*
X2279706Y-17517317D01*
X2279706Y-17517317D02*
X2403515Y-17517317D01*
X2460658Y-17383984D02*
X2584468Y-17383984D01*
X2584468Y-17383984D02*
X2517801Y-17460174D01*
X2517801Y-17460174D02*
X2546372Y-17460174D01*
X2546372Y-17460174D02*
X2565420Y-17469698D01*
X2565420Y-17469698D02*
X2574944Y-17479222D01*
X2574944Y-17479222D02*
X2584468Y-17498270D01*
X2584468Y-17498270D02*
X2584468Y-17545889D01*
X2584468Y-17545889D02*
X2574944Y-17564936D01*
X2574944Y-17564936D02*
X2565420Y-17574460D01*
X2565420Y-17574460D02*
X2546372Y-17583984D01*
X2546372Y-17583984D02*
X2489229Y-17583984D01*
X2489229Y-17583984D02*
X2470182Y-17574460D01*
X2470182Y-17574460D02*
X2460658Y-17564936D01*
X2708277Y-17383984D02*
X2727325Y-17383984D01*
X2727325Y-17383984D02*
X2746372Y-17393508D01*
X2746372Y-17393508D02*
X2755896Y-17403031D01*
X2755896Y-17403031D02*
X2765420Y-17422079D01*
X2765420Y-17422079D02*
X2774944Y-17460174D01*
X2774944Y-17460174D02*
X2774944Y-17507793D01*
X2774944Y-17507793D02*
X2765420Y-17545889D01*
X2765420Y-17545889D02*
X2755896Y-17564936D01*
X2755896Y-17564936D02*
X2746372Y-17574460D01*
X2746372Y-17574460D02*
X2727325Y-17583984D01*
X2727325Y-17583984D02*
X2708277Y-17583984D01*
X2708277Y-17583984D02*
X2689229Y-17574460D01*
X2689229Y-17574460D02*
X2679706Y-17564936D01*
X2679706Y-17564936D02*
X2670182Y-17545889D01*
X2670182Y-17545889D02*
X2660658Y-17507793D01*
X2660658Y-17507793D02*
X2660658Y-17460174D01*
X2660658Y-17460174D02*
X2670182Y-17422079D01*
X2670182Y-17422079D02*
X2679706Y-17403031D01*
X2679706Y-17403031D02*
X2689229Y-17393508D01*
X2689229Y-17393508D02*
X2708277Y-17383984D01*
X2851134Y-17383984D02*
X2851134Y-17422079D01*
X2927325Y-17383984D02*
X2927325Y-17422079D01*
X3222563Y-17660174D02*
X3213039Y-17650650D01*
X3213039Y-17650650D02*
X3193991Y-17622079D01*
X3193991Y-17622079D02*
X3184468Y-17603031D01*
X3184468Y-17603031D02*
X3174944Y-17574460D01*
X3174944Y-17574460D02*
X3165420Y-17526841D01*
X3165420Y-17526841D02*
X3165420Y-17488746D01*
X3165420Y-17488746D02*
X3174944Y-17441127D01*
X3174944Y-17441127D02*
X3184468Y-17412555D01*
X3184468Y-17412555D02*
X3193991Y-17393508D01*
X3193991Y-17393508D02*
X3213039Y-17364936D01*
X3213039Y-17364936D02*
X3222563Y-17355412D01*
X3289229Y-17403031D02*
X3298753Y-17393508D01*
X3298753Y-17393508D02*
X3317801Y-17383984D01*
X3317801Y-17383984D02*
X3365420Y-17383984D01*
X3365420Y-17383984D02*
X3384468Y-17393508D01*
X3384468Y-17393508D02*
X3393991Y-17403031D01*
X3393991Y-17403031D02*
X3403515Y-17422079D01*
X3403515Y-17422079D02*
X3403515Y-17441127D01*
X3403515Y-17441127D02*
X3393991Y-17469698D01*
X3393991Y-17469698D02*
X3279706Y-17583984D01*
X3279706Y-17583984D02*
X3403515Y-17583984D01*
X3470182Y-17383984D02*
X3603515Y-17383984D01*
X3603515Y-17383984D02*
X3517801Y-17583984D01*
X3832087Y-17583984D02*
X3832087Y-17383984D01*
X3917801Y-17583984D02*
X3917801Y-17479222D01*
X3917801Y-17479222D02*
X3908277Y-17460174D01*
X3908277Y-17460174D02*
X3889230Y-17450650D01*
X3889230Y-17450650D02*
X3860658Y-17450650D01*
X3860658Y-17450650D02*
X3841610Y-17460174D01*
X3841610Y-17460174D02*
X3832087Y-17469698D01*
X4041610Y-17583984D02*
X4022563Y-17574460D01*
X4022563Y-17574460D02*
X4013039Y-17564936D01*
X4013039Y-17564936D02*
X4003515Y-17545889D01*
X4003515Y-17545889D02*
X4003515Y-17488746D01*
X4003515Y-17488746D02*
X4013039Y-17469698D01*
X4013039Y-17469698D02*
X4022563Y-17460174D01*
X4022563Y-17460174D02*
X4041610Y-17450650D01*
X4041610Y-17450650D02*
X4070182Y-17450650D01*
X4070182Y-17450650D02*
X4089230Y-17460174D01*
X4089230Y-17460174D02*
X4098753Y-17469698D01*
X4098753Y-17469698D02*
X4108277Y-17488746D01*
X4108277Y-17488746D02*
X4108277Y-17545889D01*
X4108277Y-17545889D02*
X4098753Y-17564936D01*
X4098753Y-17564936D02*
X4089230Y-17574460D01*
X4089230Y-17574460D02*
X4070182Y-17583984D01*
X4070182Y-17583984D02*
X4041610Y-17583984D01*
X4222563Y-17583984D02*
X4203515Y-17574460D01*
X4203515Y-17574460D02*
X4193991Y-17555412D01*
X4193991Y-17555412D02*
X4193991Y-17383984D01*
X4374944Y-17574460D02*
X4355896Y-17583984D01*
X4355896Y-17583984D02*
X4317801Y-17583984D01*
X4317801Y-17583984D02*
X4298753Y-17574460D01*
X4298753Y-17574460D02*
X4289230Y-17555412D01*
X4289230Y-17555412D02*
X4289230Y-17479222D01*
X4289230Y-17479222D02*
X4298753Y-17460174D01*
X4298753Y-17460174D02*
X4317801Y-17450650D01*
X4317801Y-17450650D02*
X4355896Y-17450650D01*
X4355896Y-17450650D02*
X4374944Y-17460174D01*
X4374944Y-17460174D02*
X4384468Y-17479222D01*
X4384468Y-17479222D02*
X4384468Y-17498270D01*
X4384468Y-17498270D02*
X4289230Y-17517317D01*
X4460658Y-17574460D02*
X4479706Y-17583984D01*
X4479706Y-17583984D02*
X4517801Y-17583984D01*
X4517801Y-17583984D02*
X4536849Y-17574460D01*
X4536849Y-17574460D02*
X4546373Y-17555412D01*
X4546373Y-17555412D02*
X4546373Y-17545889D01*
X4546373Y-17545889D02*
X4536849Y-17526841D01*
X4536849Y-17526841D02*
X4517801Y-17517317D01*
X4517801Y-17517317D02*
X4489230Y-17517317D01*
X4489230Y-17517317D02*
X4470182Y-17507793D01*
X4470182Y-17507793D02*
X4460658Y-17488746D01*
X4460658Y-17488746D02*
X4460658Y-17479222D01*
X4460658Y-17479222D02*
X4470182Y-17460174D01*
X4470182Y-17460174D02*
X4489230Y-17450650D01*
X4489230Y-17450650D02*
X4517801Y-17450650D01*
X4517801Y-17450650D02*
X4536849Y-17460174D01*
X4613039Y-17660174D02*
X4622563Y-17650650D01*
X4622563Y-17650650D02*
X4641611Y-17622079D01*
X4641611Y-17622079D02*
X4651134Y-17603031D01*
X4651134Y-17603031D02*
X4660658Y-17574460D01*
X4660658Y-17574460D02*
X4670182Y-17526841D01*
X4670182Y-17526841D02*
X4670182Y-17488746D01*
X4670182Y-17488746D02*
X4660658Y-17441127D01*
X4660658Y-17441127D02*
X4651134Y-17412555D01*
X4651134Y-17412555D02*
X4641611Y-17393508D01*
X4641611Y-17393508D02*
X4622563Y-17364936D01*
X4622563Y-17364936D02*
X4613039Y-17355412D01*
D13*
X-352500Y-17756500D02*
G75*
G02*
X-502500Y-17756500I-75000J0D01*
G01*
X-502500Y-17756500D02*
G75*
G02*
X-352500Y-17756500I75000J0D01*
G01*
D11*
X13039Y-17847984D02*
X-101247Y-17847984D01*
X-44104Y-17847984D02*
X-44104Y-17647984D01*
X-44104Y-17647984D02*
X-63152Y-17676555D01*
X-63152Y-17676555D02*
X-82199Y-17695603D01*
X-82199Y-17695603D02*
X-101247Y-17705127D01*
X98753Y-17828936D02*
X108277Y-17838460D01*
X108277Y-17838460D02*
X98753Y-17847984D01*
X98753Y-17847984D02*
X89229Y-17838460D01*
X89229Y-17838460D02*
X98753Y-17828936D01*
X98753Y-17828936D02*
X98753Y-17847984D01*
X289229Y-17647984D02*
X193991Y-17647984D01*
X193991Y-17647984D02*
X184467Y-17743222D01*
X184467Y-17743222D02*
X193991Y-17733698D01*
X193991Y-17733698D02*
X213039Y-17724174D01*
X213039Y-17724174D02*
X260658Y-17724174D01*
X260658Y-17724174D02*
X279705Y-17733698D01*
X279705Y-17733698D02*
X289229Y-17743222D01*
X289229Y-17743222D02*
X298753Y-17762270D01*
X298753Y-17762270D02*
X298753Y-17809889D01*
X298753Y-17809889D02*
X289229Y-17828936D01*
X289229Y-17828936D02*
X279705Y-17838460D01*
X279705Y-17838460D02*
X260658Y-17847984D01*
X260658Y-17847984D02*
X213039Y-17847984D01*
X213039Y-17847984D02*
X193991Y-17838460D01*
X193991Y-17838460D02*
X184467Y-17828936D01*
X422562Y-17647984D02*
X441610Y-17647984D01*
X441610Y-17647984D02*
X460658Y-17657508D01*
X460658Y-17657508D02*
X470182Y-17667031D01*
X470182Y-17667031D02*
X479705Y-17686079D01*
X479705Y-17686079D02*
X489229Y-17724174D01*
X489229Y-17724174D02*
X489229Y-17771793D01*
X489229Y-17771793D02*
X479705Y-17809889D01*
X479705Y-17809889D02*
X470182Y-17828936D01*
X470182Y-17828936D02*
X460658Y-17838460D01*
X460658Y-17838460D02*
X441610Y-17847984D01*
X441610Y-17847984D02*
X422562Y-17847984D01*
X422562Y-17847984D02*
X403515Y-17838460D01*
X403515Y-17838460D02*
X393991Y-17828936D01*
X393991Y-17828936D02*
X384467Y-17809889D01*
X384467Y-17809889D02*
X374943Y-17771793D01*
X374943Y-17771793D02*
X374943Y-17724174D01*
X374943Y-17724174D02*
X384467Y-17686079D01*
X384467Y-17686079D02*
X393991Y-17667031D01*
X393991Y-17667031D02*
X403515Y-17657508D01*
X403515Y-17657508D02*
X422562Y-17647984D01*
X613039Y-17647984D02*
X632086Y-17647984D01*
X632086Y-17647984D02*
X651134Y-17657508D01*
X651134Y-17657508D02*
X660658Y-17667031D01*
X660658Y-17667031D02*
X670182Y-17686079D01*
X670182Y-17686079D02*
X679705Y-17724174D01*
X679705Y-17724174D02*
X679705Y-17771793D01*
X679705Y-17771793D02*
X670182Y-17809889D01*
X670182Y-17809889D02*
X660658Y-17828936D01*
X660658Y-17828936D02*
X651134Y-17838460D01*
X651134Y-17838460D02*
X632086Y-17847984D01*
X632086Y-17847984D02*
X613039Y-17847984D01*
X613039Y-17847984D02*
X593991Y-17838460D01*
X593991Y-17838460D02*
X584467Y-17828936D01*
X584467Y-17828936D02*
X574944Y-17809889D01*
X574944Y-17809889D02*
X565420Y-17771793D01*
X565420Y-17771793D02*
X565420Y-17724174D01*
X565420Y-17724174D02*
X574944Y-17686079D01*
X574944Y-17686079D02*
X584467Y-17667031D01*
X584467Y-17667031D02*
X593991Y-17657508D01*
X593991Y-17657508D02*
X613039Y-17647984D01*
X765420Y-17847984D02*
X765420Y-17714650D01*
X765420Y-17733698D02*
X774943Y-17724174D01*
X774943Y-17724174D02*
X793991Y-17714650D01*
X793991Y-17714650D02*
X822563Y-17714650D01*
X822563Y-17714650D02*
X841610Y-17724174D01*
X841610Y-17724174D02*
X851134Y-17743222D01*
X851134Y-17743222D02*
X851134Y-17847984D01*
X851134Y-17743222D02*
X860658Y-17724174D01*
X860658Y-17724174D02*
X879705Y-17714650D01*
X879705Y-17714650D02*
X908277Y-17714650D01*
X908277Y-17714650D02*
X927324Y-17724174D01*
X927324Y-17724174D02*
X936848Y-17743222D01*
X936848Y-17743222D02*
X936848Y-17847984D01*
X1032086Y-17847984D02*
X1032086Y-17714650D01*
X1032086Y-17733698D02*
X1041610Y-17724174D01*
X1041610Y-17724174D02*
X1060658Y-17714650D01*
X1060658Y-17714650D02*
X1089229Y-17714650D01*
X1089229Y-17714650D02*
X1108277Y-17724174D01*
X1108277Y-17724174D02*
X1117801Y-17743222D01*
X1117801Y-17743222D02*
X1117801Y-17847984D01*
X1117801Y-17743222D02*
X1127325Y-17724174D01*
X1127325Y-17724174D02*
X1146372Y-17714650D01*
X1146372Y-17714650D02*
X1174944Y-17714650D01*
X1174944Y-17714650D02*
X1193991Y-17724174D01*
X1193991Y-17724174D02*
X1203515Y-17743222D01*
X1203515Y-17743222D02*
X1203515Y-17847984D01*
X1593991Y-17638460D02*
X1422563Y-17895603D01*
X1851134Y-17647984D02*
X1870182Y-17647984D01*
X1870182Y-17647984D02*
X1889229Y-17657508D01*
X1889229Y-17657508D02*
X1898753Y-17667031D01*
X1898753Y-17667031D02*
X1908277Y-17686079D01*
X1908277Y-17686079D02*
X1917801Y-17724174D01*
X1917801Y-17724174D02*
X1917801Y-17771793D01*
X1917801Y-17771793D02*
X1908277Y-17809889D01*
X1908277Y-17809889D02*
X1898753Y-17828936D01*
X1898753Y-17828936D02*
X1889229Y-17838460D01*
X1889229Y-17838460D02*
X1870182Y-17847984D01*
X1870182Y-17847984D02*
X1851134Y-17847984D01*
X1851134Y-17847984D02*
X1832086Y-17838460D01*
X1832086Y-17838460D02*
X1822563Y-17828936D01*
X1822563Y-17828936D02*
X1813039Y-17809889D01*
X1813039Y-17809889D02*
X1803515Y-17771793D01*
X1803515Y-17771793D02*
X1803515Y-17724174D01*
X1803515Y-17724174D02*
X1813039Y-17686079D01*
X1813039Y-17686079D02*
X1822563Y-17667031D01*
X1822563Y-17667031D02*
X1832086Y-17657508D01*
X1832086Y-17657508D02*
X1851134Y-17647984D01*
X2003515Y-17828936D02*
X2013039Y-17838460D01*
X2013039Y-17838460D02*
X2003515Y-17847984D01*
X2003515Y-17847984D02*
X1993991Y-17838460D01*
X1993991Y-17838460D02*
X2003515Y-17828936D01*
X2003515Y-17828936D02*
X2003515Y-17847984D01*
X2136848Y-17647984D02*
X2155896Y-17647984D01*
X2155896Y-17647984D02*
X2174944Y-17657508D01*
X2174944Y-17657508D02*
X2184468Y-17667031D01*
X2184468Y-17667031D02*
X2193991Y-17686079D01*
X2193991Y-17686079D02*
X2203515Y-17724174D01*
X2203515Y-17724174D02*
X2203515Y-17771793D01*
X2203515Y-17771793D02*
X2193991Y-17809889D01*
X2193991Y-17809889D02*
X2184468Y-17828936D01*
X2184468Y-17828936D02*
X2174944Y-17838460D01*
X2174944Y-17838460D02*
X2155896Y-17847984D01*
X2155896Y-17847984D02*
X2136848Y-17847984D01*
X2136848Y-17847984D02*
X2117801Y-17838460D01*
X2117801Y-17838460D02*
X2108277Y-17828936D01*
X2108277Y-17828936D02*
X2098753Y-17809889D01*
X2098753Y-17809889D02*
X2089229Y-17771793D01*
X2089229Y-17771793D02*
X2089229Y-17724174D01*
X2089229Y-17724174D02*
X2098753Y-17686079D01*
X2098753Y-17686079D02*
X2108277Y-17667031D01*
X2108277Y-17667031D02*
X2117801Y-17657508D01*
X2117801Y-17657508D02*
X2136848Y-17647984D01*
X2384468Y-17647984D02*
X2289229Y-17647984D01*
X2289229Y-17647984D02*
X2279706Y-17743222D01*
X2279706Y-17743222D02*
X2289229Y-17733698D01*
X2289229Y-17733698D02*
X2308277Y-17724174D01*
X2308277Y-17724174D02*
X2355896Y-17724174D01*
X2355896Y-17724174D02*
X2374944Y-17733698D01*
X2374944Y-17733698D02*
X2384468Y-17743222D01*
X2384468Y-17743222D02*
X2393991Y-17762270D01*
X2393991Y-17762270D02*
X2393991Y-17809889D01*
X2393991Y-17809889D02*
X2384468Y-17828936D01*
X2384468Y-17828936D02*
X2374944Y-17838460D01*
X2374944Y-17838460D02*
X2355896Y-17847984D01*
X2355896Y-17847984D02*
X2308277Y-17847984D01*
X2308277Y-17847984D02*
X2289229Y-17838460D01*
X2289229Y-17838460D02*
X2279706Y-17828936D01*
X2489229Y-17847984D02*
X2527325Y-17847984D01*
X2527325Y-17847984D02*
X2546372Y-17838460D01*
X2546372Y-17838460D02*
X2555896Y-17828936D01*
X2555896Y-17828936D02*
X2574944Y-17800365D01*
X2574944Y-17800365D02*
X2584468Y-17762270D01*
X2584468Y-17762270D02*
X2584468Y-17686079D01*
X2584468Y-17686079D02*
X2574944Y-17667031D01*
X2574944Y-17667031D02*
X2565420Y-17657508D01*
X2565420Y-17657508D02*
X2546372Y-17647984D01*
X2546372Y-17647984D02*
X2508277Y-17647984D01*
X2508277Y-17647984D02*
X2489229Y-17657508D01*
X2489229Y-17657508D02*
X2479706Y-17667031D01*
X2479706Y-17667031D02*
X2470182Y-17686079D01*
X2470182Y-17686079D02*
X2470182Y-17733698D01*
X2470182Y-17733698D02*
X2479706Y-17752746D01*
X2479706Y-17752746D02*
X2489229Y-17762270D01*
X2489229Y-17762270D02*
X2508277Y-17771793D01*
X2508277Y-17771793D02*
X2546372Y-17771793D01*
X2546372Y-17771793D02*
X2565420Y-17762270D01*
X2565420Y-17762270D02*
X2574944Y-17752746D01*
X2574944Y-17752746D02*
X2584468Y-17733698D01*
X2774944Y-17847984D02*
X2660658Y-17847984D01*
X2717801Y-17847984D02*
X2717801Y-17647984D01*
X2717801Y-17647984D02*
X2698753Y-17676555D01*
X2698753Y-17676555D02*
X2679706Y-17695603D01*
X2679706Y-17695603D02*
X2660658Y-17705127D01*
X2851134Y-17647984D02*
X2851134Y-17686079D01*
X2927325Y-17647984D02*
X2927325Y-17686079D01*
X3222563Y-17924174D02*
X3213039Y-17914650D01*
X3213039Y-17914650D02*
X3193991Y-17886079D01*
X3193991Y-17886079D02*
X3184468Y-17867031D01*
X3184468Y-17867031D02*
X3174944Y-17838460D01*
X3174944Y-17838460D02*
X3165420Y-17790841D01*
X3165420Y-17790841D02*
X3165420Y-17752746D01*
X3165420Y-17752746D02*
X3174944Y-17705127D01*
X3174944Y-17705127D02*
X3184468Y-17676555D01*
X3184468Y-17676555D02*
X3193991Y-17657508D01*
X3193991Y-17657508D02*
X3213039Y-17628936D01*
X3213039Y-17628936D02*
X3222563Y-17619412D01*
X3403515Y-17847984D02*
X3289229Y-17847984D01*
X3346372Y-17847984D02*
X3346372Y-17647984D01*
X3346372Y-17647984D02*
X3327325Y-17676555D01*
X3327325Y-17676555D02*
X3308277Y-17695603D01*
X3308277Y-17695603D02*
X3289229Y-17705127D01*
X3584468Y-17647984D02*
X3489229Y-17647984D01*
X3489229Y-17647984D02*
X3479706Y-17743222D01*
X3479706Y-17743222D02*
X3489229Y-17733698D01*
X3489229Y-17733698D02*
X3508277Y-17724174D01*
X3508277Y-17724174D02*
X3555896Y-17724174D01*
X3555896Y-17724174D02*
X3574944Y-17733698D01*
X3574944Y-17733698D02*
X3584468Y-17743222D01*
X3584468Y-17743222D02*
X3593991Y-17762270D01*
X3593991Y-17762270D02*
X3593991Y-17809889D01*
X3593991Y-17809889D02*
X3584468Y-17828936D01*
X3584468Y-17828936D02*
X3574944Y-17838460D01*
X3574944Y-17838460D02*
X3555896Y-17847984D01*
X3555896Y-17847984D02*
X3508277Y-17847984D01*
X3508277Y-17847984D02*
X3489229Y-17838460D01*
X3489229Y-17838460D02*
X3479706Y-17828936D01*
X3765420Y-17714650D02*
X3765420Y-17847984D01*
X3717801Y-17638460D02*
X3670182Y-17781317D01*
X3670182Y-17781317D02*
X3793991Y-17781317D01*
X4022563Y-17847984D02*
X4022563Y-17647984D01*
X4108277Y-17847984D02*
X4108277Y-17743222D01*
X4108277Y-17743222D02*
X4098753Y-17724174D01*
X4098753Y-17724174D02*
X4079706Y-17714650D01*
X4079706Y-17714650D02*
X4051134Y-17714650D01*
X4051134Y-17714650D02*
X4032087Y-17724174D01*
X4032087Y-17724174D02*
X4022563Y-17733698D01*
X4232087Y-17847984D02*
X4213039Y-17838460D01*
X4213039Y-17838460D02*
X4203515Y-17828936D01*
X4203515Y-17828936D02*
X4193991Y-17809889D01*
X4193991Y-17809889D02*
X4193991Y-17752746D01*
X4193991Y-17752746D02*
X4203515Y-17733698D01*
X4203515Y-17733698D02*
X4213039Y-17724174D01*
X4213039Y-17724174D02*
X4232087Y-17714650D01*
X4232087Y-17714650D02*
X4260658Y-17714650D01*
X4260658Y-17714650D02*
X4279706Y-17724174D01*
X4279706Y-17724174D02*
X4289230Y-17733698D01*
X4289230Y-17733698D02*
X4298753Y-17752746D01*
X4298753Y-17752746D02*
X4298753Y-17809889D01*
X4298753Y-17809889D02*
X4289230Y-17828936D01*
X4289230Y-17828936D02*
X4279706Y-17838460D01*
X4279706Y-17838460D02*
X4260658Y-17847984D01*
X4260658Y-17847984D02*
X4232087Y-17847984D01*
X4413039Y-17847984D02*
X4393992Y-17838460D01*
X4393992Y-17838460D02*
X4384468Y-17819412D01*
X4384468Y-17819412D02*
X4384468Y-17647984D01*
X4565420Y-17838460D02*
X4546373Y-17847984D01*
X4546373Y-17847984D02*
X4508277Y-17847984D01*
X4508277Y-17847984D02*
X4489230Y-17838460D01*
X4489230Y-17838460D02*
X4479706Y-17819412D01*
X4479706Y-17819412D02*
X4479706Y-17743222D01*
X4479706Y-17743222D02*
X4489230Y-17724174D01*
X4489230Y-17724174D02*
X4508277Y-17714650D01*
X4508277Y-17714650D02*
X4546373Y-17714650D01*
X4546373Y-17714650D02*
X4565420Y-17724174D01*
X4565420Y-17724174D02*
X4574944Y-17743222D01*
X4574944Y-17743222D02*
X4574944Y-17762270D01*
X4574944Y-17762270D02*
X4479706Y-17781317D01*
X4651134Y-17838460D02*
X4670182Y-17847984D01*
X4670182Y-17847984D02*
X4708277Y-17847984D01*
X4708277Y-17847984D02*
X4727325Y-17838460D01*
X4727325Y-17838460D02*
X4736849Y-17819412D01*
X4736849Y-17819412D02*
X4736849Y-17809889D01*
X4736849Y-17809889D02*
X4727325Y-17790841D01*
X4727325Y-17790841D02*
X4708277Y-17781317D01*
X4708277Y-17781317D02*
X4679706Y-17781317D01*
X4679706Y-17781317D02*
X4660658Y-17771793D01*
X4660658Y-17771793D02*
X4651134Y-17752746D01*
X4651134Y-17752746D02*
X4651134Y-17743222D01*
X4651134Y-17743222D02*
X4660658Y-17724174D01*
X4660658Y-17724174D02*
X4679706Y-17714650D01*
X4679706Y-17714650D02*
X4708277Y-17714650D01*
X4708277Y-17714650D02*
X4727325Y-17724174D01*
X4803515Y-17924174D02*
X4813039Y-17914650D01*
X4813039Y-17914650D02*
X4832087Y-17886079D01*
X4832087Y-17886079D02*
X4841611Y-17867031D01*
X4841611Y-17867031D02*
X4851134Y-17838460D01*
X4851134Y-17838460D02*
X4860658Y-17790841D01*
X4860658Y-17790841D02*
X4860658Y-17752746D01*
X4860658Y-17752746D02*
X4851134Y-17705127D01*
X4851134Y-17705127D02*
X4841611Y-17676555D01*
X4841611Y-17676555D02*
X4832087Y-17657508D01*
X4832087Y-17657508D02*
X4813039Y-17628936D01*
X4813039Y-17628936D02*
X4803515Y-17619412D01*
M02*
