%TF.GenerationSoftware,KiCad,Pcbnew,9.0.7*%
%TF.CreationDate,2026-03-08T21:49:53-07:00*%
%TF.ProjectId,customKeyboard.kicad_pcb,63757374-6f6d-44b6-9579-626f6172642e,rev?*%
%TF.SameCoordinates,Original*%
%TF.FileFunction,Drillmap*%
%TF.FilePolarity,Positive*%
%FSLAX45Y45*%
G04 Gerber Fmt 4.5, Leading zero omitted, Abs format (unit mm)*
G04 Created by KiCad (PCBNEW 9.0.7) date 2026-03-08 21:49:53*
%MOMM*%
%LPD*%
G01*
G04 APERTURE LIST*
%ADD10C,0.050000*%
%ADD11C,0.200000*%
%ADD12C,0.175000*%
%ADD13C,0.400000*%
G04 APERTURE END LIST*
D10*
X-350000Y-3100000D02*
X31750000Y-3100000D01*
X31750000Y-16850000D01*
X-350000Y-16850000D01*
X-350000Y-3100000D01*
D11*
D12*
X301500Y-4921250D02*
X476500Y-5096250D01*
X476500Y-4921250D02*
X301500Y-5096250D01*
X301500Y-7302500D02*
X476500Y-7477500D01*
X476500Y-7302500D02*
X301500Y-7477500D01*
X539625Y-14922500D02*
X714625Y-15097500D01*
X714625Y-14922500D02*
X539625Y-15097500D01*
X777750Y-9207500D02*
X952750Y-9382500D01*
X952750Y-9207500D02*
X777750Y-9382500D01*
X1015875Y-11112500D02*
X1190875Y-11287500D01*
X1190875Y-11112500D02*
X1015875Y-11287500D01*
X1317500Y-4921250D02*
X1492500Y-5096250D01*
X1492500Y-4921250D02*
X1317500Y-5096250D01*
X1317500Y-7302500D02*
X1492500Y-7477500D01*
X1492500Y-7302500D02*
X1317500Y-7477500D01*
X1492125Y-13017500D02*
X1667125Y-13192500D01*
X1667125Y-13017500D02*
X1492125Y-13192500D01*
X1555625Y-14922500D02*
X1730625Y-15097500D01*
X1730625Y-14922500D02*
X1555625Y-15097500D01*
X1793750Y-9207500D02*
X1968750Y-9382500D01*
X1968750Y-9207500D02*
X1793750Y-9382500D01*
X2031875Y-11112500D02*
X2206875Y-11287500D01*
X2206875Y-11112500D02*
X2031875Y-11287500D01*
X2206500Y-7302500D02*
X2381500Y-7477500D01*
X2381500Y-7302500D02*
X2206500Y-7477500D01*
X2508125Y-13017500D02*
X2683125Y-13192500D01*
X2683125Y-13017500D02*
X2508125Y-13192500D01*
X2920875Y-14922500D02*
X3095875Y-15097500D01*
X3095875Y-14922500D02*
X2920875Y-15097500D01*
X3159000Y-4921250D02*
X3334000Y-5096250D01*
X3334000Y-4921250D02*
X3159000Y-5096250D01*
X3159000Y-9207500D02*
X3334000Y-9382500D01*
X3334000Y-9207500D02*
X3159000Y-9382500D01*
X3222500Y-7302500D02*
X3397500Y-7477500D01*
X3397500Y-7302500D02*
X3222500Y-7477500D01*
X3635250Y-11112500D02*
X3810250Y-11287500D01*
X3810250Y-11112500D02*
X3635250Y-11287500D01*
X3936875Y-14922500D02*
X4111875Y-15097500D01*
X4111875Y-14922500D02*
X3936875Y-15097500D01*
X4111500Y-7302500D02*
X4286500Y-7477500D01*
X4286500Y-7302500D02*
X4111500Y-7477500D01*
X4175000Y-4921250D02*
X4350000Y-5096250D01*
X4350000Y-4921250D02*
X4175000Y-5096250D01*
X4175000Y-9207500D02*
X4350000Y-9382500D01*
X4350000Y-9207500D02*
X4175000Y-9382500D01*
X4587750Y-13017500D02*
X4762750Y-13192500D01*
X4762750Y-13017500D02*
X4587750Y-13192500D01*
X4651250Y-11112500D02*
X4826250Y-11287500D01*
X4826250Y-11112500D02*
X4651250Y-11287500D01*
X5064000Y-4921250D02*
X5239000Y-5096250D01*
X5239000Y-4921250D02*
X5064000Y-5096250D01*
X5064000Y-9207500D02*
X5239000Y-9382500D01*
X5239000Y-9207500D02*
X5064000Y-9382500D01*
X5127500Y-7302500D02*
X5302500Y-7477500D01*
X5302500Y-7302500D02*
X5127500Y-7477500D01*
X5302125Y-14922500D02*
X5477125Y-15097500D01*
X5477125Y-14922500D02*
X5302125Y-15097500D01*
X5540250Y-11112500D02*
X5715250Y-11287500D01*
X5715250Y-11112500D02*
X5540250Y-11287500D01*
X5603750Y-13017500D02*
X5778750Y-13192500D01*
X5778750Y-13017500D02*
X5603750Y-13192500D01*
X6016500Y-7302500D02*
X6191500Y-7477500D01*
X6191500Y-7302500D02*
X6016500Y-7477500D01*
X6080000Y-4921250D02*
X6255000Y-5096250D01*
X6255000Y-4921250D02*
X6080000Y-5096250D01*
X6080000Y-9207500D02*
X6255000Y-9382500D01*
X6255000Y-9207500D02*
X6080000Y-9382500D01*
X6318125Y-14922500D02*
X6493125Y-15097500D01*
X6493125Y-14922500D02*
X6318125Y-15097500D01*
X6492750Y-13017500D02*
X6667750Y-13192500D01*
X6667750Y-13017500D02*
X6492750Y-13192500D01*
X6556250Y-11112500D02*
X6731250Y-11287500D01*
X6731250Y-11112500D02*
X6556250Y-11287500D01*
X6969000Y-4921250D02*
X7144000Y-5096250D01*
X7144000Y-4921250D02*
X6969000Y-5096250D01*
X6969000Y-9207500D02*
X7144000Y-9382500D01*
X7144000Y-9207500D02*
X6969000Y-9382500D01*
X7032500Y-7302500D02*
X7207500Y-7477500D01*
X7207500Y-7302500D02*
X7032500Y-7477500D01*
X7445250Y-11112500D02*
X7620250Y-11287500D01*
X7620250Y-11112500D02*
X7445250Y-11287500D01*
X7508750Y-13017500D02*
X7683750Y-13192500D01*
X7683750Y-13017500D02*
X7508750Y-13192500D01*
X7921500Y-7302500D02*
X8096500Y-7477500D01*
X8096500Y-7302500D02*
X7921500Y-7477500D01*
X7985000Y-4921250D02*
X8160000Y-5096250D01*
X8160000Y-4921250D02*
X7985000Y-5096250D01*
X7985000Y-9207500D02*
X8160000Y-9382500D01*
X8160000Y-9207500D02*
X7985000Y-9382500D01*
X8397750Y-13017500D02*
X8572750Y-13192500D01*
X8572750Y-13017500D02*
X8397750Y-13192500D01*
X8461250Y-11112500D02*
X8636250Y-11287500D01*
X8636250Y-11112500D02*
X8461250Y-11287500D01*
X8874000Y-4921250D02*
X9049000Y-5096250D01*
X9049000Y-4921250D02*
X8874000Y-5096250D01*
X8874000Y-9207500D02*
X9049000Y-9382500D01*
X9049000Y-9207500D02*
X8874000Y-9382500D01*
X8937500Y-7302500D02*
X9112500Y-7477500D01*
X9112500Y-7302500D02*
X8937500Y-7477500D01*
X9350250Y-11112500D02*
X9525250Y-11287500D01*
X9525250Y-11112500D02*
X9350250Y-11287500D01*
X9413750Y-13017500D02*
X9588750Y-13192500D01*
X9588750Y-13017500D02*
X9413750Y-13192500D01*
X9826500Y-7302500D02*
X10001500Y-7477500D01*
X10001500Y-7302500D02*
X9826500Y-7477500D01*
X9890000Y-4921250D02*
X10065000Y-5096250D01*
X10065000Y-4921250D02*
X9890000Y-5096250D01*
X9890000Y-9207500D02*
X10065000Y-9382500D01*
X10065000Y-9207500D02*
X9890000Y-9382500D01*
X10302750Y-13017500D02*
X10477750Y-13192500D01*
X10477750Y-13017500D02*
X10302750Y-13192500D01*
X10366250Y-11112500D02*
X10541250Y-11287500D01*
X10541250Y-11112500D02*
X10366250Y-11287500D01*
X10779000Y-9207500D02*
X10954000Y-9382500D01*
X10954000Y-9207500D02*
X10779000Y-9382500D01*
X10842500Y-7302500D02*
X11017500Y-7477500D01*
X11017500Y-7302500D02*
X10842500Y-7477500D01*
X11255250Y-11112500D02*
X11430250Y-11287500D01*
X11430250Y-11112500D02*
X11255250Y-11287500D01*
X11318750Y-13017500D02*
X11493750Y-13192500D01*
X11493750Y-13017500D02*
X11318750Y-13192500D01*
X11731500Y-7302500D02*
X11906500Y-7477500D01*
X11906500Y-7302500D02*
X11731500Y-7477500D01*
X11795000Y-9207500D02*
X11970000Y-9382500D01*
X11970000Y-9207500D02*
X11795000Y-9382500D01*
X12207750Y-4921250D02*
X12382750Y-5096250D01*
X12382750Y-4921250D02*
X12207750Y-5096250D01*
X12207750Y-13017500D02*
X12382750Y-13192500D01*
X12382750Y-13017500D02*
X12207750Y-13192500D01*
X12271250Y-11112500D02*
X12446250Y-11287500D01*
X12446250Y-11112500D02*
X12271250Y-11287500D01*
X12445875Y-14922500D02*
X12620875Y-15097500D01*
X12620875Y-14922500D02*
X12445875Y-15097500D01*
X12684000Y-9207500D02*
X12859000Y-9382500D01*
X12859000Y-9207500D02*
X12684000Y-9382500D01*
X12747500Y-7302500D02*
X12922500Y-7477500D01*
X12922500Y-7302500D02*
X12747500Y-7477500D01*
X13160250Y-11112500D02*
X13335250Y-11287500D01*
X13335250Y-11112500D02*
X13160250Y-11287500D01*
X13223750Y-4921250D02*
X13398750Y-5096250D01*
X13398750Y-4921250D02*
X13223750Y-5096250D01*
X13223750Y-13017500D02*
X13398750Y-13192500D01*
X13398750Y-13017500D02*
X13223750Y-13192500D01*
X13461875Y-14922500D02*
X13636875Y-15097500D01*
X13636875Y-14922500D02*
X13461875Y-15097500D01*
X13636500Y-7302500D02*
X13811500Y-7477500D01*
X13811500Y-7302500D02*
X13636500Y-7477500D01*
X13700000Y-9207500D02*
X13875000Y-9382500D01*
X13875000Y-9207500D02*
X13700000Y-9382500D01*
X14112750Y-4921250D02*
X14287750Y-5096250D01*
X14287750Y-4921250D02*
X14112750Y-5096250D01*
X14112750Y-13017500D02*
X14287750Y-13192500D01*
X14287750Y-13017500D02*
X14112750Y-13192500D01*
X14176250Y-11112500D02*
X14351250Y-11287500D01*
X14351250Y-11112500D02*
X14176250Y-11287500D01*
X14589000Y-9207500D02*
X14764000Y-9382500D01*
X14764000Y-9207500D02*
X14589000Y-9382500D01*
X14652500Y-7302500D02*
X14827500Y-7477500D01*
X14827500Y-7302500D02*
X14652500Y-7477500D01*
X15065250Y-11112500D02*
X15240250Y-11287500D01*
X15240250Y-11112500D02*
X15065250Y-11287500D01*
X15128750Y-4921250D02*
X15303750Y-5096250D01*
X15303750Y-4921250D02*
X15128750Y-5096250D01*
X15128750Y-13017500D02*
X15303750Y-13192500D01*
X15303750Y-13017500D02*
X15128750Y-13192500D01*
X15541500Y-7302500D02*
X15716500Y-7477500D01*
X15716500Y-7302500D02*
X15541500Y-7477500D01*
X15605000Y-9207500D02*
X15780000Y-9382500D01*
X15780000Y-9207500D02*
X15605000Y-9382500D01*
X16017750Y-4921250D02*
X16192750Y-5096250D01*
X16192750Y-4921250D02*
X16017750Y-5096250D01*
X16017750Y-13017500D02*
X16192750Y-13192500D01*
X16192750Y-13017500D02*
X16017750Y-13192500D01*
X16081250Y-11112500D02*
X16256250Y-11287500D01*
X16256250Y-11112500D02*
X16081250Y-11287500D01*
X16494000Y-9207500D02*
X16669000Y-9382500D01*
X16669000Y-9207500D02*
X16494000Y-9382500D01*
X16557500Y-7302500D02*
X16732500Y-7477500D01*
X16732500Y-7302500D02*
X16557500Y-7477500D01*
X16970250Y-11112500D02*
X17145250Y-11287500D01*
X17145250Y-11112500D02*
X16970250Y-11287500D01*
X17033750Y-4921250D02*
X17208750Y-5096250D01*
X17208750Y-4921250D02*
X17033750Y-5096250D01*
X17033750Y-13017500D02*
X17208750Y-13192500D01*
X17208750Y-13017500D02*
X17033750Y-13192500D01*
X17446500Y-7302500D02*
X17621500Y-7477500D01*
X17621500Y-7302500D02*
X17446500Y-7477500D01*
X17510000Y-9207500D02*
X17685000Y-9382500D01*
X17685000Y-9207500D02*
X17510000Y-9382500D01*
X17922750Y-4921250D02*
X18097750Y-5096250D01*
X18097750Y-4921250D02*
X17922750Y-5096250D01*
X17922750Y-13017500D02*
X18097750Y-13192500D01*
X18097750Y-13017500D02*
X17922750Y-13192500D01*
X17986250Y-11112500D02*
X18161250Y-11287500D01*
X18161250Y-11112500D02*
X17986250Y-11287500D01*
X18399000Y-9207500D02*
X18574000Y-9382500D01*
X18574000Y-9207500D02*
X18399000Y-9382500D01*
X18462500Y-7302500D02*
X18637500Y-7477500D01*
X18637500Y-7302500D02*
X18462500Y-7477500D01*
X18875250Y-11112500D02*
X19050250Y-11287500D01*
X19050250Y-11112500D02*
X18875250Y-11287500D01*
X18938750Y-4921250D02*
X19113750Y-5096250D01*
X19113750Y-4921250D02*
X18938750Y-5096250D01*
X18938750Y-13017500D02*
X19113750Y-13192500D01*
X19113750Y-13017500D02*
X18938750Y-13192500D01*
X19351500Y-7302500D02*
X19526500Y-7477500D01*
X19526500Y-7302500D02*
X19351500Y-7477500D01*
X19415000Y-9207500D02*
X19590000Y-9382500D01*
X19590000Y-9207500D02*
X19415000Y-9382500D01*
X19589625Y-14922500D02*
X19764625Y-15097500D01*
X19764625Y-14922500D02*
X19589625Y-15097500D01*
X19827750Y-13017500D02*
X20002750Y-13192500D01*
X20002750Y-13017500D02*
X19827750Y-13192500D01*
X19891250Y-11112500D02*
X20066250Y-11287500D01*
X20066250Y-11112500D02*
X19891250Y-11287500D01*
X20304000Y-9207500D02*
X20479000Y-9382500D01*
X20479000Y-9207500D02*
X20304000Y-9382500D01*
X20367500Y-7302500D02*
X20542500Y-7477500D01*
X20542500Y-7302500D02*
X20367500Y-7477500D01*
X20605625Y-14922500D02*
X20780625Y-15097500D01*
X20780625Y-14922500D02*
X20605625Y-15097500D01*
X20780250Y-11112500D02*
X20955250Y-11287500D01*
X20955250Y-11112500D02*
X20780250Y-11287500D01*
X20843750Y-13017500D02*
X21018750Y-13192500D01*
X21018750Y-13017500D02*
X20843750Y-13192500D01*
X21256500Y-4921250D02*
X21431500Y-5096250D01*
X21431500Y-4921250D02*
X21256500Y-5096250D01*
X21256500Y-7302500D02*
X21431500Y-7477500D01*
X21431500Y-7302500D02*
X21256500Y-7477500D01*
X21320000Y-9207500D02*
X21495000Y-9382500D01*
X21495000Y-9207500D02*
X21320000Y-9382500D01*
X21732750Y-13017500D02*
X21907750Y-13192500D01*
X21907750Y-13017500D02*
X21732750Y-13192500D01*
X21796250Y-11112500D02*
X21971250Y-11287500D01*
X21971250Y-11112500D02*
X21796250Y-11287500D01*
X21970875Y-14922500D02*
X22145875Y-15097500D01*
X22145875Y-14922500D02*
X21970875Y-15097500D01*
X22209000Y-9207500D02*
X22384000Y-9382500D01*
X22384000Y-9207500D02*
X22209000Y-9382500D01*
X22272500Y-4921250D02*
X22447500Y-5096250D01*
X22447500Y-4921250D02*
X22272500Y-5096250D01*
X22272500Y-7302500D02*
X22447500Y-7477500D01*
X22447500Y-7302500D02*
X22272500Y-7477500D01*
X22685250Y-11112500D02*
X22860250Y-11287500D01*
X22860250Y-11112500D02*
X22685250Y-11287500D01*
X22748750Y-13017500D02*
X22923750Y-13192500D01*
X22923750Y-13017500D02*
X22748750Y-13192500D01*
X22986875Y-14922500D02*
X23161875Y-15097500D01*
X23161875Y-14922500D02*
X22986875Y-15097500D01*
X23161500Y-4921250D02*
X23336500Y-5096250D01*
X23336500Y-4921250D02*
X23161500Y-5096250D01*
X23161500Y-7302500D02*
X23336500Y-7477500D01*
X23336500Y-7302500D02*
X23161500Y-7477500D01*
X23225000Y-9207500D02*
X23400000Y-9382500D01*
X23400000Y-9207500D02*
X23225000Y-9382500D01*
X23701250Y-11112500D02*
X23876250Y-11287500D01*
X23876250Y-11112500D02*
X23701250Y-11287500D01*
X24114000Y-9207500D02*
X24289000Y-9382500D01*
X24289000Y-9207500D02*
X24114000Y-9382500D01*
X24177500Y-4921250D02*
X24352500Y-5096250D01*
X24352500Y-4921250D02*
X24177500Y-5096250D01*
X24177500Y-7302500D02*
X24352500Y-7477500D01*
X24352500Y-7302500D02*
X24177500Y-7477500D01*
X24352125Y-14922500D02*
X24527125Y-15097500D01*
X24527125Y-14922500D02*
X24352125Y-15097500D01*
X25066500Y-4921250D02*
X25241500Y-5096250D01*
X25241500Y-4921250D02*
X25066500Y-5096250D01*
X25130000Y-9207500D02*
X25305000Y-9382500D01*
X25305000Y-9207500D02*
X25130000Y-9382500D01*
X25304625Y-13017500D02*
X25479625Y-13192500D01*
X25479625Y-13017500D02*
X25304625Y-13192500D01*
X25368125Y-14922500D02*
X25543125Y-15097500D01*
X25543125Y-14922500D02*
X25368125Y-15097500D01*
X25780875Y-11112500D02*
X25955875Y-11287500D01*
X25955875Y-11112500D02*
X25780875Y-11287500D01*
X26019000Y-7302500D02*
X26194000Y-7477500D01*
X26194000Y-7302500D02*
X26019000Y-7477500D01*
X26082500Y-4921250D02*
X26257500Y-5096250D01*
X26257500Y-4921250D02*
X26082500Y-5096250D01*
X26320625Y-13017500D02*
X26495625Y-13192500D01*
X26495625Y-13017500D02*
X26320625Y-13192500D01*
X26495250Y-9207500D02*
X26670250Y-9382500D01*
X26670250Y-9207500D02*
X26495250Y-9382500D01*
X26733375Y-14922500D02*
X26908375Y-15097500D01*
X26908375Y-14922500D02*
X26733375Y-15097500D01*
X26796875Y-11112500D02*
X26971875Y-11287500D01*
X26971875Y-11112500D02*
X26796875Y-11287500D01*
X27035000Y-7302500D02*
X27210000Y-7477500D01*
X27210000Y-7302500D02*
X27035000Y-7477500D01*
X27511250Y-9207500D02*
X27686250Y-9382500D01*
X27686250Y-9207500D02*
X27511250Y-9382500D01*
X27749375Y-14922500D02*
X27924375Y-15097500D01*
X27924375Y-14922500D02*
X27749375Y-15097500D01*
X29352750Y-8255000D02*
X29527750Y-8430000D01*
X29527750Y-8255000D02*
X29352750Y-8430000D01*
X29352750Y-10160000D02*
X29527750Y-10335000D01*
X29527750Y-10160000D02*
X29352750Y-10335000D01*
X29352750Y-12065000D02*
X29527750Y-12240000D01*
X29527750Y-12065000D02*
X29352750Y-12240000D01*
X29352750Y-13970000D02*
X29527750Y-14145000D01*
X29527750Y-13970000D02*
X29352750Y-14145000D01*
X30368750Y-8255000D02*
X30543750Y-8430000D01*
X30543750Y-8255000D02*
X30368750Y-8430000D01*
X30368750Y-10160000D02*
X30543750Y-10335000D01*
X30543750Y-10160000D02*
X30368750Y-10335000D01*
X30368750Y-12065000D02*
X30543750Y-12240000D01*
X30543750Y-12065000D02*
X30368750Y-12240000D01*
X30368750Y-13970000D02*
X30543750Y-14145000D01*
X30543750Y-13970000D02*
X30368750Y-14145000D01*
D13*
X1097000Y-5008750D02*
G75*
G02*
X697000Y-5008750I-200000J0D01*
G01*
X697000Y-5008750D02*
G75*
G02*
X1097000Y-5008750I200000J0D01*
G01*
X1097000Y-7390000D02*
G75*
G02*
X697000Y-7390000I-200000J0D01*
G01*
X697000Y-7390000D02*
G75*
G02*
X1097000Y-7390000I200000J0D01*
G01*
X1335125Y-15010000D02*
G75*
G02*
X935125Y-15010000I-200000J0D01*
G01*
X935125Y-15010000D02*
G75*
G02*
X1335125Y-15010000I200000J0D01*
G01*
X1573250Y-9295000D02*
G75*
G02*
X1173250Y-9295000I-200000J0D01*
G01*
X1173250Y-9295000D02*
G75*
G02*
X1573250Y-9295000I200000J0D01*
G01*
X1811375Y-11200000D02*
G75*
G02*
X1411375Y-11200000I-200000J0D01*
G01*
X1411375Y-11200000D02*
G75*
G02*
X1811375Y-11200000I200000J0D01*
G01*
X2287625Y-13105000D02*
G75*
G02*
X1887625Y-13105000I-200000J0D01*
G01*
X1887625Y-13105000D02*
G75*
G02*
X2287625Y-13105000I200000J0D01*
G01*
X3002000Y-7390000D02*
G75*
G02*
X2602000Y-7390000I-200000J0D01*
G01*
X2602000Y-7390000D02*
G75*
G02*
X3002000Y-7390000I200000J0D01*
G01*
X3716375Y-15010000D02*
G75*
G02*
X3316375Y-15010000I-200000J0D01*
G01*
X3316375Y-15010000D02*
G75*
G02*
X3716375Y-15010000I200000J0D01*
G01*
X3954500Y-5008750D02*
G75*
G02*
X3554500Y-5008750I-200000J0D01*
G01*
X3554500Y-5008750D02*
G75*
G02*
X3954500Y-5008750I200000J0D01*
G01*
X3954500Y-9295000D02*
G75*
G02*
X3554500Y-9295000I-200000J0D01*
G01*
X3554500Y-9295000D02*
G75*
G02*
X3954500Y-9295000I200000J0D01*
G01*
X4430750Y-11200000D02*
G75*
G02*
X4030750Y-11200000I-200000J0D01*
G01*
X4030750Y-11200000D02*
G75*
G02*
X4430750Y-11200000I200000J0D01*
G01*
X4907000Y-7390000D02*
G75*
G02*
X4507000Y-7390000I-200000J0D01*
G01*
X4507000Y-7390000D02*
G75*
G02*
X4907000Y-7390000I200000J0D01*
G01*
X5383250Y-13105000D02*
G75*
G02*
X4983250Y-13105000I-200000J0D01*
G01*
X4983250Y-13105000D02*
G75*
G02*
X5383250Y-13105000I200000J0D01*
G01*
X5859500Y-5008750D02*
G75*
G02*
X5459500Y-5008750I-200000J0D01*
G01*
X5459500Y-5008750D02*
G75*
G02*
X5859500Y-5008750I200000J0D01*
G01*
X5859500Y-9295000D02*
G75*
G02*
X5459500Y-9295000I-200000J0D01*
G01*
X5459500Y-9295000D02*
G75*
G02*
X5859500Y-9295000I200000J0D01*
G01*
X6097625Y-15010000D02*
G75*
G02*
X5697625Y-15010000I-200000J0D01*
G01*
X5697625Y-15010000D02*
G75*
G02*
X6097625Y-15010000I200000J0D01*
G01*
X6335750Y-11200000D02*
G75*
G02*
X5935750Y-11200000I-200000J0D01*
G01*
X5935750Y-11200000D02*
G75*
G02*
X6335750Y-11200000I200000J0D01*
G01*
X6812000Y-7390000D02*
G75*
G02*
X6412000Y-7390000I-200000J0D01*
G01*
X6412000Y-7390000D02*
G75*
G02*
X6812000Y-7390000I200000J0D01*
G01*
X7288250Y-13105000D02*
G75*
G02*
X6888250Y-13105000I-200000J0D01*
G01*
X6888250Y-13105000D02*
G75*
G02*
X7288250Y-13105000I200000J0D01*
G01*
X7764500Y-5008750D02*
G75*
G02*
X7364500Y-5008750I-200000J0D01*
G01*
X7364500Y-5008750D02*
G75*
G02*
X7764500Y-5008750I200000J0D01*
G01*
X7764500Y-9295000D02*
G75*
G02*
X7364500Y-9295000I-200000J0D01*
G01*
X7364500Y-9295000D02*
G75*
G02*
X7764500Y-9295000I200000J0D01*
G01*
X8240750Y-11200000D02*
G75*
G02*
X7840750Y-11200000I-200000J0D01*
G01*
X7840750Y-11200000D02*
G75*
G02*
X8240750Y-11200000I200000J0D01*
G01*
X8717000Y-7390000D02*
G75*
G02*
X8317000Y-7390000I-200000J0D01*
G01*
X8317000Y-7390000D02*
G75*
G02*
X8717000Y-7390000I200000J0D01*
G01*
X9193250Y-13105000D02*
G75*
G02*
X8793250Y-13105000I-200000J0D01*
G01*
X8793250Y-13105000D02*
G75*
G02*
X9193250Y-13105000I200000J0D01*
G01*
X9669500Y-5008750D02*
G75*
G02*
X9269500Y-5008750I-200000J0D01*
G01*
X9269500Y-5008750D02*
G75*
G02*
X9669500Y-5008750I200000J0D01*
G01*
X9669500Y-9295000D02*
G75*
G02*
X9269500Y-9295000I-200000J0D01*
G01*
X9269500Y-9295000D02*
G75*
G02*
X9669500Y-9295000I200000J0D01*
G01*
X10145750Y-11200000D02*
G75*
G02*
X9745750Y-11200000I-200000J0D01*
G01*
X9745750Y-11200000D02*
G75*
G02*
X10145750Y-11200000I200000J0D01*
G01*
X10622000Y-7390000D02*
G75*
G02*
X10222000Y-7390000I-200000J0D01*
G01*
X10222000Y-7390000D02*
G75*
G02*
X10622000Y-7390000I200000J0D01*
G01*
X11098250Y-13105000D02*
G75*
G02*
X10698250Y-13105000I-200000J0D01*
G01*
X10698250Y-13105000D02*
G75*
G02*
X11098250Y-13105000I200000J0D01*
G01*
X11574500Y-9295000D02*
G75*
G02*
X11174500Y-9295000I-200000J0D01*
G01*
X11174500Y-9295000D02*
G75*
G02*
X11574500Y-9295000I200000J0D01*
G01*
X12050750Y-11200000D02*
G75*
G02*
X11650750Y-11200000I-200000J0D01*
G01*
X11650750Y-11200000D02*
G75*
G02*
X12050750Y-11200000I200000J0D01*
G01*
X12527000Y-7390000D02*
G75*
G02*
X12127000Y-7390000I-200000J0D01*
G01*
X12127000Y-7390000D02*
G75*
G02*
X12527000Y-7390000I200000J0D01*
G01*
X13003250Y-5008750D02*
G75*
G02*
X12603250Y-5008750I-200000J0D01*
G01*
X12603250Y-5008750D02*
G75*
G02*
X13003250Y-5008750I200000J0D01*
G01*
X13003250Y-13105000D02*
G75*
G02*
X12603250Y-13105000I-200000J0D01*
G01*
X12603250Y-13105000D02*
G75*
G02*
X13003250Y-13105000I200000J0D01*
G01*
X13241375Y-15010000D02*
G75*
G02*
X12841375Y-15010000I-200000J0D01*
G01*
X12841375Y-15010000D02*
G75*
G02*
X13241375Y-15010000I200000J0D01*
G01*
X13479500Y-9295000D02*
G75*
G02*
X13079500Y-9295000I-200000J0D01*
G01*
X13079500Y-9295000D02*
G75*
G02*
X13479500Y-9295000I200000J0D01*
G01*
X13955750Y-11200000D02*
G75*
G02*
X13555750Y-11200000I-200000J0D01*
G01*
X13555750Y-11200000D02*
G75*
G02*
X13955750Y-11200000I200000J0D01*
G01*
X14432000Y-7390000D02*
G75*
G02*
X14032000Y-7390000I-200000J0D01*
G01*
X14032000Y-7390000D02*
G75*
G02*
X14432000Y-7390000I200000J0D01*
G01*
X14908250Y-5008750D02*
G75*
G02*
X14508250Y-5008750I-200000J0D01*
G01*
X14508250Y-5008750D02*
G75*
G02*
X14908250Y-5008750I200000J0D01*
G01*
X14908250Y-13105000D02*
G75*
G02*
X14508250Y-13105000I-200000J0D01*
G01*
X14508250Y-13105000D02*
G75*
G02*
X14908250Y-13105000I200000J0D01*
G01*
X15384500Y-9295000D02*
G75*
G02*
X14984500Y-9295000I-200000J0D01*
G01*
X14984500Y-9295000D02*
G75*
G02*
X15384500Y-9295000I200000J0D01*
G01*
X15860750Y-11200000D02*
G75*
G02*
X15460750Y-11200000I-200000J0D01*
G01*
X15460750Y-11200000D02*
G75*
G02*
X15860750Y-11200000I200000J0D01*
G01*
X16337000Y-7390000D02*
G75*
G02*
X15937000Y-7390000I-200000J0D01*
G01*
X15937000Y-7390000D02*
G75*
G02*
X16337000Y-7390000I200000J0D01*
G01*
X16813250Y-5008750D02*
G75*
G02*
X16413250Y-5008750I-200000J0D01*
G01*
X16413250Y-5008750D02*
G75*
G02*
X16813250Y-5008750I200000J0D01*
G01*
X16813250Y-13105000D02*
G75*
G02*
X16413250Y-13105000I-200000J0D01*
G01*
X16413250Y-13105000D02*
G75*
G02*
X16813250Y-13105000I200000J0D01*
G01*
X17289500Y-9295000D02*
G75*
G02*
X16889500Y-9295000I-200000J0D01*
G01*
X16889500Y-9295000D02*
G75*
G02*
X17289500Y-9295000I200000J0D01*
G01*
X17765750Y-11200000D02*
G75*
G02*
X17365750Y-11200000I-200000J0D01*
G01*
X17365750Y-11200000D02*
G75*
G02*
X17765750Y-11200000I200000J0D01*
G01*
X18242000Y-7390000D02*
G75*
G02*
X17842000Y-7390000I-200000J0D01*
G01*
X17842000Y-7390000D02*
G75*
G02*
X18242000Y-7390000I200000J0D01*
G01*
X18718250Y-5008750D02*
G75*
G02*
X18318250Y-5008750I-200000J0D01*
G01*
X18318250Y-5008750D02*
G75*
G02*
X18718250Y-5008750I200000J0D01*
G01*
X18718250Y-13105000D02*
G75*
G02*
X18318250Y-13105000I-200000J0D01*
G01*
X18318250Y-13105000D02*
G75*
G02*
X18718250Y-13105000I200000J0D01*
G01*
X19194500Y-9295000D02*
G75*
G02*
X18794500Y-9295000I-200000J0D01*
G01*
X18794500Y-9295000D02*
G75*
G02*
X19194500Y-9295000I200000J0D01*
G01*
X19670750Y-11200000D02*
G75*
G02*
X19270750Y-11200000I-200000J0D01*
G01*
X19270750Y-11200000D02*
G75*
G02*
X19670750Y-11200000I200000J0D01*
G01*
X20147000Y-7390000D02*
G75*
G02*
X19747000Y-7390000I-200000J0D01*
G01*
X19747000Y-7390000D02*
G75*
G02*
X20147000Y-7390000I200000J0D01*
G01*
X20385125Y-15010000D02*
G75*
G02*
X19985125Y-15010000I-200000J0D01*
G01*
X19985125Y-15010000D02*
G75*
G02*
X20385125Y-15010000I200000J0D01*
G01*
X20623250Y-13105000D02*
G75*
G02*
X20223250Y-13105000I-200000J0D01*
G01*
X20223250Y-13105000D02*
G75*
G02*
X20623250Y-13105000I200000J0D01*
G01*
X21099500Y-9295000D02*
G75*
G02*
X20699500Y-9295000I-200000J0D01*
G01*
X20699500Y-9295000D02*
G75*
G02*
X21099500Y-9295000I200000J0D01*
G01*
X21575750Y-11200000D02*
G75*
G02*
X21175750Y-11200000I-200000J0D01*
G01*
X21175750Y-11200000D02*
G75*
G02*
X21575750Y-11200000I200000J0D01*
G01*
X22052000Y-5008750D02*
G75*
G02*
X21652000Y-5008750I-200000J0D01*
G01*
X21652000Y-5008750D02*
G75*
G02*
X22052000Y-5008750I200000J0D01*
G01*
X22052000Y-7390000D02*
G75*
G02*
X21652000Y-7390000I-200000J0D01*
G01*
X21652000Y-7390000D02*
G75*
G02*
X22052000Y-7390000I200000J0D01*
G01*
X22528250Y-13105000D02*
G75*
G02*
X22128250Y-13105000I-200000J0D01*
G01*
X22128250Y-13105000D02*
G75*
G02*
X22528250Y-13105000I200000J0D01*
G01*
X22766375Y-15010000D02*
G75*
G02*
X22366375Y-15010000I-200000J0D01*
G01*
X22366375Y-15010000D02*
G75*
G02*
X22766375Y-15010000I200000J0D01*
G01*
X23004500Y-9295000D02*
G75*
G02*
X22604500Y-9295000I-200000J0D01*
G01*
X22604500Y-9295000D02*
G75*
G02*
X23004500Y-9295000I200000J0D01*
G01*
X23480750Y-11200000D02*
G75*
G02*
X23080750Y-11200000I-200000J0D01*
G01*
X23080750Y-11200000D02*
G75*
G02*
X23480750Y-11200000I200000J0D01*
G01*
X23957000Y-5008750D02*
G75*
G02*
X23557000Y-5008750I-200000J0D01*
G01*
X23557000Y-5008750D02*
G75*
G02*
X23957000Y-5008750I200000J0D01*
G01*
X23957000Y-7390000D02*
G75*
G02*
X23557000Y-7390000I-200000J0D01*
G01*
X23557000Y-7390000D02*
G75*
G02*
X23957000Y-7390000I200000J0D01*
G01*
X24909500Y-9295000D02*
G75*
G02*
X24509500Y-9295000I-200000J0D01*
G01*
X24509500Y-9295000D02*
G75*
G02*
X24909500Y-9295000I200000J0D01*
G01*
X25147625Y-15010000D02*
G75*
G02*
X24747625Y-15010000I-200000J0D01*
G01*
X24747625Y-15010000D02*
G75*
G02*
X25147625Y-15010000I200000J0D01*
G01*
X25862000Y-5008750D02*
G75*
G02*
X25462000Y-5008750I-200000J0D01*
G01*
X25462000Y-5008750D02*
G75*
G02*
X25862000Y-5008750I200000J0D01*
G01*
X26100125Y-13105000D02*
G75*
G02*
X25700125Y-13105000I-200000J0D01*
G01*
X25700125Y-13105000D02*
G75*
G02*
X26100125Y-13105000I200000J0D01*
G01*
X26576375Y-11200000D02*
G75*
G02*
X26176375Y-11200000I-200000J0D01*
G01*
X26176375Y-11200000D02*
G75*
G02*
X26576375Y-11200000I200000J0D01*
G01*
X26814500Y-7390000D02*
G75*
G02*
X26414500Y-7390000I-200000J0D01*
G01*
X26414500Y-7390000D02*
G75*
G02*
X26814500Y-7390000I200000J0D01*
G01*
X27290750Y-9295000D02*
G75*
G02*
X26890750Y-9295000I-200000J0D01*
G01*
X26890750Y-9295000D02*
G75*
G02*
X27290750Y-9295000I200000J0D01*
G01*
X27528875Y-15010000D02*
G75*
G02*
X27128875Y-15010000I-200000J0D01*
G01*
X27128875Y-15010000D02*
G75*
G02*
X27528875Y-15010000I200000J0D01*
G01*
X30148250Y-8342500D02*
G75*
G02*
X29748250Y-8342500I-200000J0D01*
G01*
X29748250Y-8342500D02*
G75*
G02*
X30148250Y-8342500I200000J0D01*
G01*
X30148250Y-10247500D02*
G75*
G02*
X29748250Y-10247500I-200000J0D01*
G01*
X29748250Y-10247500D02*
G75*
G02*
X30148250Y-10247500I200000J0D01*
G01*
X30148250Y-12152500D02*
G75*
G02*
X29748250Y-12152500I-200000J0D01*
G01*
X29748250Y-12152500D02*
G75*
G02*
X30148250Y-12152500I200000J0D01*
G01*
X30148250Y-14057500D02*
G75*
G02*
X29748250Y-14057500I-200000J0D01*
G01*
X29748250Y-14057500D02*
G75*
G02*
X30148250Y-14057500I200000J0D01*
G01*
D11*
X-91723Y-17163984D02*
X-91723Y-16963984D01*
X-91723Y-16963984D02*
X-44104Y-16963984D01*
X-44104Y-16963984D02*
X-15533Y-16973508D01*
X-15533Y-16973508D02*
X3515Y-16992555D01*
X3515Y-16992555D02*
X13039Y-17011603D01*
X13039Y-17011603D02*
X22562Y-17049698D01*
X22562Y-17049698D02*
X22562Y-17078270D01*
X22562Y-17078270D02*
X13039Y-17116365D01*
X13039Y-17116365D02*
X3515Y-17135412D01*
X3515Y-17135412D02*
X-15533Y-17154460D01*
X-15533Y-17154460D02*
X-44104Y-17163984D01*
X-44104Y-17163984D02*
X-91723Y-17163984D01*
X108277Y-17163984D02*
X108277Y-17030650D01*
X108277Y-17068746D02*
X117801Y-17049698D01*
X117801Y-17049698D02*
X127324Y-17040174D01*
X127324Y-17040174D02*
X146372Y-17030650D01*
X146372Y-17030650D02*
X165420Y-17030650D01*
X232086Y-17163984D02*
X232086Y-17030650D01*
X232086Y-16963984D02*
X222562Y-16973508D01*
X222562Y-16973508D02*
X232086Y-16983031D01*
X232086Y-16983031D02*
X241610Y-16973508D01*
X241610Y-16973508D02*
X232086Y-16963984D01*
X232086Y-16963984D02*
X232086Y-16983031D01*
X355896Y-17163984D02*
X336848Y-17154460D01*
X336848Y-17154460D02*
X327324Y-17135412D01*
X327324Y-17135412D02*
X327324Y-16963984D01*
X460658Y-17163984D02*
X441610Y-17154460D01*
X441610Y-17154460D02*
X432086Y-17135412D01*
X432086Y-17135412D02*
X432086Y-16963984D01*
X689229Y-17163984D02*
X689229Y-16963984D01*
X689229Y-16963984D02*
X755896Y-17106841D01*
X755896Y-17106841D02*
X822562Y-16963984D01*
X822562Y-16963984D02*
X822562Y-17163984D01*
X1003515Y-17163984D02*
X1003515Y-17059222D01*
X1003515Y-17059222D02*
X993991Y-17040174D01*
X993991Y-17040174D02*
X974943Y-17030650D01*
X974943Y-17030650D02*
X936848Y-17030650D01*
X936848Y-17030650D02*
X917801Y-17040174D01*
X1003515Y-17154460D02*
X984467Y-17163984D01*
X984467Y-17163984D02*
X936848Y-17163984D01*
X936848Y-17163984D02*
X917801Y-17154460D01*
X917801Y-17154460D02*
X908277Y-17135412D01*
X908277Y-17135412D02*
X908277Y-17116365D01*
X908277Y-17116365D02*
X917801Y-17097317D01*
X917801Y-17097317D02*
X936848Y-17087793D01*
X936848Y-17087793D02*
X984467Y-17087793D01*
X984467Y-17087793D02*
X1003515Y-17078270D01*
X1098753Y-17030650D02*
X1098753Y-17230650D01*
X1098753Y-17040174D02*
X1117801Y-17030650D01*
X1117801Y-17030650D02*
X1155896Y-17030650D01*
X1155896Y-17030650D02*
X1174944Y-17040174D01*
X1174944Y-17040174D02*
X1184467Y-17049698D01*
X1184467Y-17049698D02*
X1193991Y-17068746D01*
X1193991Y-17068746D02*
X1193991Y-17125889D01*
X1193991Y-17125889D02*
X1184467Y-17144936D01*
X1184467Y-17144936D02*
X1174944Y-17154460D01*
X1174944Y-17154460D02*
X1155896Y-17163984D01*
X1155896Y-17163984D02*
X1117801Y-17163984D01*
X1117801Y-17163984D02*
X1098753Y-17154460D01*
X1279705Y-17144936D02*
X1289229Y-17154460D01*
X1289229Y-17154460D02*
X1279705Y-17163984D01*
X1279705Y-17163984D02*
X1270182Y-17154460D01*
X1270182Y-17154460D02*
X1279705Y-17144936D01*
X1279705Y-17144936D02*
X1279705Y-17163984D01*
X1279705Y-17040174D02*
X1289229Y-17049698D01*
X1289229Y-17049698D02*
X1279705Y-17059222D01*
X1279705Y-17059222D02*
X1270182Y-17049698D01*
X1270182Y-17049698D02*
X1279705Y-17040174D01*
X1279705Y-17040174D02*
X1279705Y-17059222D01*
D12*
X-527500Y-17405000D02*
X-352500Y-17580000D01*
X-352500Y-17405000D02*
X-527500Y-17580000D01*
D11*
X13039Y-17583984D02*
X-101247Y-17583984D01*
X-44104Y-17583984D02*
X-44104Y-17383984D01*
X-44104Y-17383984D02*
X-63152Y-17412555D01*
X-63152Y-17412555D02*
X-82199Y-17431603D01*
X-82199Y-17431603D02*
X-101247Y-17441127D01*
X98753Y-17564936D02*
X108277Y-17574460D01*
X108277Y-17574460D02*
X98753Y-17583984D01*
X98753Y-17583984D02*
X89229Y-17574460D01*
X89229Y-17574460D02*
X98753Y-17564936D01*
X98753Y-17564936D02*
X98753Y-17583984D01*
X174943Y-17383984D02*
X308277Y-17383984D01*
X308277Y-17383984D02*
X222562Y-17583984D01*
X479705Y-17383984D02*
X384467Y-17383984D01*
X384467Y-17383984D02*
X374943Y-17479222D01*
X374943Y-17479222D02*
X384467Y-17469698D01*
X384467Y-17469698D02*
X403515Y-17460174D01*
X403515Y-17460174D02*
X451134Y-17460174D01*
X451134Y-17460174D02*
X470182Y-17469698D01*
X470182Y-17469698D02*
X479705Y-17479222D01*
X479705Y-17479222D02*
X489229Y-17498270D01*
X489229Y-17498270D02*
X489229Y-17545889D01*
X489229Y-17545889D02*
X479705Y-17564936D01*
X479705Y-17564936D02*
X470182Y-17574460D01*
X470182Y-17574460D02*
X451134Y-17583984D01*
X451134Y-17583984D02*
X403515Y-17583984D01*
X403515Y-17583984D02*
X384467Y-17574460D01*
X384467Y-17574460D02*
X374943Y-17564936D01*
X613039Y-17383984D02*
X632086Y-17383984D01*
X632086Y-17383984D02*
X651134Y-17393508D01*
X651134Y-17393508D02*
X660658Y-17403031D01*
X660658Y-17403031D02*
X670182Y-17422079D01*
X670182Y-17422079D02*
X679705Y-17460174D01*
X679705Y-17460174D02*
X679705Y-17507793D01*
X679705Y-17507793D02*
X670182Y-17545889D01*
X670182Y-17545889D02*
X660658Y-17564936D01*
X660658Y-17564936D02*
X651134Y-17574460D01*
X651134Y-17574460D02*
X632086Y-17583984D01*
X632086Y-17583984D02*
X613039Y-17583984D01*
X613039Y-17583984D02*
X593991Y-17574460D01*
X593991Y-17574460D02*
X584467Y-17564936D01*
X584467Y-17564936D02*
X574944Y-17545889D01*
X574944Y-17545889D02*
X565420Y-17507793D01*
X565420Y-17507793D02*
X565420Y-17460174D01*
X565420Y-17460174D02*
X574944Y-17422079D01*
X574944Y-17422079D02*
X584467Y-17403031D01*
X584467Y-17403031D02*
X593991Y-17393508D01*
X593991Y-17393508D02*
X613039Y-17383984D01*
X765420Y-17583984D02*
X765420Y-17450650D01*
X765420Y-17469698D02*
X774943Y-17460174D01*
X774943Y-17460174D02*
X793991Y-17450650D01*
X793991Y-17450650D02*
X822563Y-17450650D01*
X822563Y-17450650D02*
X841610Y-17460174D01*
X841610Y-17460174D02*
X851134Y-17479222D01*
X851134Y-17479222D02*
X851134Y-17583984D01*
X851134Y-17479222D02*
X860658Y-17460174D01*
X860658Y-17460174D02*
X879705Y-17450650D01*
X879705Y-17450650D02*
X908277Y-17450650D01*
X908277Y-17450650D02*
X927324Y-17460174D01*
X927324Y-17460174D02*
X936848Y-17479222D01*
X936848Y-17479222D02*
X936848Y-17583984D01*
X1032086Y-17583984D02*
X1032086Y-17450650D01*
X1032086Y-17469698D02*
X1041610Y-17460174D01*
X1041610Y-17460174D02*
X1060658Y-17450650D01*
X1060658Y-17450650D02*
X1089229Y-17450650D01*
X1089229Y-17450650D02*
X1108277Y-17460174D01*
X1108277Y-17460174D02*
X1117801Y-17479222D01*
X1117801Y-17479222D02*
X1117801Y-17583984D01*
X1117801Y-17479222D02*
X1127325Y-17460174D01*
X1127325Y-17460174D02*
X1146372Y-17450650D01*
X1146372Y-17450650D02*
X1174944Y-17450650D01*
X1174944Y-17450650D02*
X1193991Y-17460174D01*
X1193991Y-17460174D02*
X1203515Y-17479222D01*
X1203515Y-17479222D02*
X1203515Y-17583984D01*
X1593991Y-17374460D02*
X1422563Y-17631603D01*
X1851134Y-17383984D02*
X1870182Y-17383984D01*
X1870182Y-17383984D02*
X1889229Y-17393508D01*
X1889229Y-17393508D02*
X1898753Y-17403031D01*
X1898753Y-17403031D02*
X1908277Y-17422079D01*
X1908277Y-17422079D02*
X1917801Y-17460174D01*
X1917801Y-17460174D02*
X1917801Y-17507793D01*
X1917801Y-17507793D02*
X1908277Y-17545889D01*
X1908277Y-17545889D02*
X1898753Y-17564936D01*
X1898753Y-17564936D02*
X1889229Y-17574460D01*
X1889229Y-17574460D02*
X1870182Y-17583984D01*
X1870182Y-17583984D02*
X1851134Y-17583984D01*
X1851134Y-17583984D02*
X1832086Y-17574460D01*
X1832086Y-17574460D02*
X1822563Y-17564936D01*
X1822563Y-17564936D02*
X1813039Y-17545889D01*
X1813039Y-17545889D02*
X1803515Y-17507793D01*
X1803515Y-17507793D02*
X1803515Y-17460174D01*
X1803515Y-17460174D02*
X1813039Y-17422079D01*
X1813039Y-17422079D02*
X1822563Y-17403031D01*
X1822563Y-17403031D02*
X1832086Y-17393508D01*
X1832086Y-17393508D02*
X1851134Y-17383984D01*
X2003515Y-17564936D02*
X2013039Y-17574460D01*
X2013039Y-17574460D02*
X2003515Y-17583984D01*
X2003515Y-17583984D02*
X1993991Y-17574460D01*
X1993991Y-17574460D02*
X2003515Y-17564936D01*
X2003515Y-17564936D02*
X2003515Y-17583984D01*
X2136848Y-17383984D02*
X2155896Y-17383984D01*
X2155896Y-17383984D02*
X2174944Y-17393508D01*
X2174944Y-17393508D02*
X2184468Y-17403031D01*
X2184468Y-17403031D02*
X2193991Y-17422079D01*
X2193991Y-17422079D02*
X2203515Y-17460174D01*
X2203515Y-17460174D02*
X2203515Y-17507793D01*
X2203515Y-17507793D02*
X2193991Y-17545889D01*
X2193991Y-17545889D02*
X2184468Y-17564936D01*
X2184468Y-17564936D02*
X2174944Y-17574460D01*
X2174944Y-17574460D02*
X2155896Y-17583984D01*
X2155896Y-17583984D02*
X2136848Y-17583984D01*
X2136848Y-17583984D02*
X2117801Y-17574460D01*
X2117801Y-17574460D02*
X2108277Y-17564936D01*
X2108277Y-17564936D02*
X2098753Y-17545889D01*
X2098753Y-17545889D02*
X2089229Y-17507793D01*
X2089229Y-17507793D02*
X2089229Y-17460174D01*
X2089229Y-17460174D02*
X2098753Y-17422079D01*
X2098753Y-17422079D02*
X2108277Y-17403031D01*
X2108277Y-17403031D02*
X2117801Y-17393508D01*
X2117801Y-17393508D02*
X2136848Y-17383984D01*
X2374944Y-17383984D02*
X2336848Y-17383984D01*
X2336848Y-17383984D02*
X2317801Y-17393508D01*
X2317801Y-17393508D02*
X2308277Y-17403031D01*
X2308277Y-17403031D02*
X2289229Y-17431603D01*
X2289229Y-17431603D02*
X2279706Y-17469698D01*
X2279706Y-17469698D02*
X2279706Y-17545889D01*
X2279706Y-17545889D02*
X2289229Y-17564936D01*
X2289229Y-17564936D02*
X2298753Y-17574460D01*
X2298753Y-17574460D02*
X2317801Y-17583984D01*
X2317801Y-17583984D02*
X2355896Y-17583984D01*
X2355896Y-17583984D02*
X2374944Y-17574460D01*
X2374944Y-17574460D02*
X2384468Y-17564936D01*
X2384468Y-17564936D02*
X2393991Y-17545889D01*
X2393991Y-17545889D02*
X2393991Y-17498270D01*
X2393991Y-17498270D02*
X2384468Y-17479222D01*
X2384468Y-17479222D02*
X2374944Y-17469698D01*
X2374944Y-17469698D02*
X2355896Y-17460174D01*
X2355896Y-17460174D02*
X2317801Y-17460174D01*
X2317801Y-17460174D02*
X2298753Y-17469698D01*
X2298753Y-17469698D02*
X2289229Y-17479222D01*
X2289229Y-17479222D02*
X2279706Y-17498270D01*
X2508277Y-17469698D02*
X2489229Y-17460174D01*
X2489229Y-17460174D02*
X2479706Y-17450650D01*
X2479706Y-17450650D02*
X2470182Y-17431603D01*
X2470182Y-17431603D02*
X2470182Y-17422079D01*
X2470182Y-17422079D02*
X2479706Y-17403031D01*
X2479706Y-17403031D02*
X2489229Y-17393508D01*
X2489229Y-17393508D02*
X2508277Y-17383984D01*
X2508277Y-17383984D02*
X2546372Y-17383984D01*
X2546372Y-17383984D02*
X2565420Y-17393508D01*
X2565420Y-17393508D02*
X2574944Y-17403031D01*
X2574944Y-17403031D02*
X2584468Y-17422079D01*
X2584468Y-17422079D02*
X2584468Y-17431603D01*
X2584468Y-17431603D02*
X2574944Y-17450650D01*
X2574944Y-17450650D02*
X2565420Y-17460174D01*
X2565420Y-17460174D02*
X2546372Y-17469698D01*
X2546372Y-17469698D02*
X2508277Y-17469698D01*
X2508277Y-17469698D02*
X2489229Y-17479222D01*
X2489229Y-17479222D02*
X2479706Y-17488746D01*
X2479706Y-17488746D02*
X2470182Y-17507793D01*
X2470182Y-17507793D02*
X2470182Y-17545889D01*
X2470182Y-17545889D02*
X2479706Y-17564936D01*
X2479706Y-17564936D02*
X2489229Y-17574460D01*
X2489229Y-17574460D02*
X2508277Y-17583984D01*
X2508277Y-17583984D02*
X2546372Y-17583984D01*
X2546372Y-17583984D02*
X2565420Y-17574460D01*
X2565420Y-17574460D02*
X2574944Y-17564936D01*
X2574944Y-17564936D02*
X2584468Y-17545889D01*
X2584468Y-17545889D02*
X2584468Y-17507793D01*
X2584468Y-17507793D02*
X2574944Y-17488746D01*
X2574944Y-17488746D02*
X2565420Y-17479222D01*
X2565420Y-17479222D02*
X2546372Y-17469698D01*
X2679706Y-17583984D02*
X2717801Y-17583984D01*
X2717801Y-17583984D02*
X2736849Y-17574460D01*
X2736849Y-17574460D02*
X2746372Y-17564936D01*
X2746372Y-17564936D02*
X2765420Y-17536365D01*
X2765420Y-17536365D02*
X2774944Y-17498270D01*
X2774944Y-17498270D02*
X2774944Y-17422079D01*
X2774944Y-17422079D02*
X2765420Y-17403031D01*
X2765420Y-17403031D02*
X2755896Y-17393508D01*
X2755896Y-17393508D02*
X2736849Y-17383984D01*
X2736849Y-17383984D02*
X2698753Y-17383984D01*
X2698753Y-17383984D02*
X2679706Y-17393508D01*
X2679706Y-17393508D02*
X2670182Y-17403031D01*
X2670182Y-17403031D02*
X2660658Y-17422079D01*
X2660658Y-17422079D02*
X2660658Y-17469698D01*
X2660658Y-17469698D02*
X2670182Y-17488746D01*
X2670182Y-17488746D02*
X2679706Y-17498270D01*
X2679706Y-17498270D02*
X2698753Y-17507793D01*
X2698753Y-17507793D02*
X2736849Y-17507793D01*
X2736849Y-17507793D02*
X2755896Y-17498270D01*
X2755896Y-17498270D02*
X2765420Y-17488746D01*
X2765420Y-17488746D02*
X2774944Y-17469698D01*
X2851134Y-17383984D02*
X2851134Y-17422079D01*
X2927325Y-17383984D02*
X2927325Y-17422079D01*
X3222563Y-17660174D02*
X3213039Y-17650650D01*
X3213039Y-17650650D02*
X3193991Y-17622079D01*
X3193991Y-17622079D02*
X3184468Y-17603031D01*
X3184468Y-17603031D02*
X3174944Y-17574460D01*
X3174944Y-17574460D02*
X3165420Y-17526841D01*
X3165420Y-17526841D02*
X3165420Y-17488746D01*
X3165420Y-17488746D02*
X3174944Y-17441127D01*
X3174944Y-17441127D02*
X3184468Y-17412555D01*
X3184468Y-17412555D02*
X3193991Y-17393508D01*
X3193991Y-17393508D02*
X3213039Y-17364936D01*
X3213039Y-17364936D02*
X3222563Y-17355412D01*
X3403515Y-17583984D02*
X3289229Y-17583984D01*
X3346372Y-17583984D02*
X3346372Y-17383984D01*
X3346372Y-17383984D02*
X3327325Y-17412555D01*
X3327325Y-17412555D02*
X3308277Y-17431603D01*
X3308277Y-17431603D02*
X3289229Y-17441127D01*
X3584468Y-17383984D02*
X3489229Y-17383984D01*
X3489229Y-17383984D02*
X3479706Y-17479222D01*
X3479706Y-17479222D02*
X3489229Y-17469698D01*
X3489229Y-17469698D02*
X3508277Y-17460174D01*
X3508277Y-17460174D02*
X3555896Y-17460174D01*
X3555896Y-17460174D02*
X3574944Y-17469698D01*
X3574944Y-17469698D02*
X3584468Y-17479222D01*
X3584468Y-17479222D02*
X3593991Y-17498270D01*
X3593991Y-17498270D02*
X3593991Y-17545889D01*
X3593991Y-17545889D02*
X3584468Y-17564936D01*
X3584468Y-17564936D02*
X3574944Y-17574460D01*
X3574944Y-17574460D02*
X3555896Y-17583984D01*
X3555896Y-17583984D02*
X3508277Y-17583984D01*
X3508277Y-17583984D02*
X3489229Y-17574460D01*
X3489229Y-17574460D02*
X3479706Y-17564936D01*
X3765420Y-17450650D02*
X3765420Y-17583984D01*
X3717801Y-17374460D02*
X3670182Y-17517317D01*
X3670182Y-17517317D02*
X3793991Y-17517317D01*
X4022563Y-17583984D02*
X4022563Y-17383984D01*
X4108277Y-17583984D02*
X4108277Y-17479222D01*
X4108277Y-17479222D02*
X4098753Y-17460174D01*
X4098753Y-17460174D02*
X4079706Y-17450650D01*
X4079706Y-17450650D02*
X4051134Y-17450650D01*
X4051134Y-17450650D02*
X4032087Y-17460174D01*
X4032087Y-17460174D02*
X4022563Y-17469698D01*
X4232087Y-17583984D02*
X4213039Y-17574460D01*
X4213039Y-17574460D02*
X4203515Y-17564936D01*
X4203515Y-17564936D02*
X4193991Y-17545889D01*
X4193991Y-17545889D02*
X4193991Y-17488746D01*
X4193991Y-17488746D02*
X4203515Y-17469698D01*
X4203515Y-17469698D02*
X4213039Y-17460174D01*
X4213039Y-17460174D02*
X4232087Y-17450650D01*
X4232087Y-17450650D02*
X4260658Y-17450650D01*
X4260658Y-17450650D02*
X4279706Y-17460174D01*
X4279706Y-17460174D02*
X4289230Y-17469698D01*
X4289230Y-17469698D02*
X4298753Y-17488746D01*
X4298753Y-17488746D02*
X4298753Y-17545889D01*
X4298753Y-17545889D02*
X4289230Y-17564936D01*
X4289230Y-17564936D02*
X4279706Y-17574460D01*
X4279706Y-17574460D02*
X4260658Y-17583984D01*
X4260658Y-17583984D02*
X4232087Y-17583984D01*
X4413039Y-17583984D02*
X4393992Y-17574460D01*
X4393992Y-17574460D02*
X4384468Y-17555412D01*
X4384468Y-17555412D02*
X4384468Y-17383984D01*
X4565420Y-17574460D02*
X4546373Y-17583984D01*
X4546373Y-17583984D02*
X4508277Y-17583984D01*
X4508277Y-17583984D02*
X4489230Y-17574460D01*
X4489230Y-17574460D02*
X4479706Y-17555412D01*
X4479706Y-17555412D02*
X4479706Y-17479222D01*
X4479706Y-17479222D02*
X4489230Y-17460174D01*
X4489230Y-17460174D02*
X4508277Y-17450650D01*
X4508277Y-17450650D02*
X4546373Y-17450650D01*
X4546373Y-17450650D02*
X4565420Y-17460174D01*
X4565420Y-17460174D02*
X4574944Y-17479222D01*
X4574944Y-17479222D02*
X4574944Y-17498270D01*
X4574944Y-17498270D02*
X4479706Y-17517317D01*
X4651134Y-17574460D02*
X4670182Y-17583984D01*
X4670182Y-17583984D02*
X4708277Y-17583984D01*
X4708277Y-17583984D02*
X4727325Y-17574460D01*
X4727325Y-17574460D02*
X4736849Y-17555412D01*
X4736849Y-17555412D02*
X4736849Y-17545889D01*
X4736849Y-17545889D02*
X4727325Y-17526841D01*
X4727325Y-17526841D02*
X4708277Y-17517317D01*
X4708277Y-17517317D02*
X4679706Y-17517317D01*
X4679706Y-17517317D02*
X4660658Y-17507793D01*
X4660658Y-17507793D02*
X4651134Y-17488746D01*
X4651134Y-17488746D02*
X4651134Y-17479222D01*
X4651134Y-17479222D02*
X4660658Y-17460174D01*
X4660658Y-17460174D02*
X4679706Y-17450650D01*
X4679706Y-17450650D02*
X4708277Y-17450650D01*
X4708277Y-17450650D02*
X4727325Y-17460174D01*
X4803515Y-17660174D02*
X4813039Y-17650650D01*
X4813039Y-17650650D02*
X4832087Y-17622079D01*
X4832087Y-17622079D02*
X4841611Y-17603031D01*
X4841611Y-17603031D02*
X4851134Y-17574460D01*
X4851134Y-17574460D02*
X4860658Y-17526841D01*
X4860658Y-17526841D02*
X4860658Y-17488746D01*
X4860658Y-17488746D02*
X4851134Y-17441127D01*
X4851134Y-17441127D02*
X4841611Y-17412555D01*
X4841611Y-17412555D02*
X4832087Y-17393508D01*
X4832087Y-17393508D02*
X4813039Y-17364936D01*
X4813039Y-17364936D02*
X4803515Y-17355412D01*
X5165420Y-17660174D02*
X5155896Y-17650650D01*
X5155896Y-17650650D02*
X5136849Y-17622079D01*
X5136849Y-17622079D02*
X5127325Y-17603031D01*
X5127325Y-17603031D02*
X5117801Y-17574460D01*
X5117801Y-17574460D02*
X5108277Y-17526841D01*
X5108277Y-17526841D02*
X5108277Y-17488746D01*
X5108277Y-17488746D02*
X5117801Y-17441127D01*
X5117801Y-17441127D02*
X5127325Y-17412555D01*
X5127325Y-17412555D02*
X5136849Y-17393508D01*
X5136849Y-17393508D02*
X5155896Y-17364936D01*
X5155896Y-17364936D02*
X5165420Y-17355412D01*
X5241611Y-17450650D02*
X5241611Y-17583984D01*
X5241611Y-17469698D02*
X5251134Y-17460174D01*
X5251134Y-17460174D02*
X5270182Y-17450650D01*
X5270182Y-17450650D02*
X5298754Y-17450650D01*
X5298754Y-17450650D02*
X5317801Y-17460174D01*
X5317801Y-17460174D02*
X5327325Y-17479222D01*
X5327325Y-17479222D02*
X5327325Y-17583984D01*
X5451134Y-17583984D02*
X5432087Y-17574460D01*
X5432087Y-17574460D02*
X5422563Y-17564936D01*
X5422563Y-17564936D02*
X5413039Y-17545889D01*
X5413039Y-17545889D02*
X5413039Y-17488746D01*
X5413039Y-17488746D02*
X5422563Y-17469698D01*
X5422563Y-17469698D02*
X5432087Y-17460174D01*
X5432087Y-17460174D02*
X5451134Y-17450650D01*
X5451134Y-17450650D02*
X5479706Y-17450650D01*
X5479706Y-17450650D02*
X5498754Y-17460174D01*
X5498754Y-17460174D02*
X5508277Y-17469698D01*
X5508277Y-17469698D02*
X5517801Y-17488746D01*
X5517801Y-17488746D02*
X5517801Y-17545889D01*
X5517801Y-17545889D02*
X5508277Y-17564936D01*
X5508277Y-17564936D02*
X5498754Y-17574460D01*
X5498754Y-17574460D02*
X5479706Y-17583984D01*
X5479706Y-17583984D02*
X5451134Y-17583984D01*
X5574944Y-17450650D02*
X5651134Y-17450650D01*
X5603515Y-17383984D02*
X5603515Y-17555412D01*
X5603515Y-17555412D02*
X5613039Y-17574460D01*
X5613039Y-17574460D02*
X5632087Y-17583984D01*
X5632087Y-17583984D02*
X5651134Y-17583984D01*
X5870182Y-17450650D02*
X5870182Y-17650650D01*
X5870182Y-17460174D02*
X5889230Y-17450650D01*
X5889230Y-17450650D02*
X5927325Y-17450650D01*
X5927325Y-17450650D02*
X5946373Y-17460174D01*
X5946373Y-17460174D02*
X5955896Y-17469698D01*
X5955896Y-17469698D02*
X5965420Y-17488746D01*
X5965420Y-17488746D02*
X5965420Y-17545889D01*
X5965420Y-17545889D02*
X5955896Y-17564936D01*
X5955896Y-17564936D02*
X5946373Y-17574460D01*
X5946373Y-17574460D02*
X5927325Y-17583984D01*
X5927325Y-17583984D02*
X5889230Y-17583984D01*
X5889230Y-17583984D02*
X5870182Y-17574460D01*
X6079706Y-17583984D02*
X6060658Y-17574460D01*
X6060658Y-17574460D02*
X6051134Y-17555412D01*
X6051134Y-17555412D02*
X6051134Y-17383984D01*
X6241611Y-17583984D02*
X6241611Y-17479222D01*
X6241611Y-17479222D02*
X6232087Y-17460174D01*
X6232087Y-17460174D02*
X6213039Y-17450650D01*
X6213039Y-17450650D02*
X6174944Y-17450650D01*
X6174944Y-17450650D02*
X6155896Y-17460174D01*
X6241611Y-17574460D02*
X6222563Y-17583984D01*
X6222563Y-17583984D02*
X6174944Y-17583984D01*
X6174944Y-17583984D02*
X6155896Y-17574460D01*
X6155896Y-17574460D02*
X6146373Y-17555412D01*
X6146373Y-17555412D02*
X6146373Y-17536365D01*
X6146373Y-17536365D02*
X6155896Y-17517317D01*
X6155896Y-17517317D02*
X6174944Y-17507793D01*
X6174944Y-17507793D02*
X6222563Y-17507793D01*
X6222563Y-17507793D02*
X6241611Y-17498270D01*
X6308277Y-17450650D02*
X6384468Y-17450650D01*
X6336849Y-17383984D02*
X6336849Y-17555412D01*
X6336849Y-17555412D02*
X6346373Y-17574460D01*
X6346373Y-17574460D02*
X6365420Y-17583984D01*
X6365420Y-17583984D02*
X6384468Y-17583984D01*
X6527325Y-17574460D02*
X6508277Y-17583984D01*
X6508277Y-17583984D02*
X6470182Y-17583984D01*
X6470182Y-17583984D02*
X6451134Y-17574460D01*
X6451134Y-17574460D02*
X6441611Y-17555412D01*
X6441611Y-17555412D02*
X6441611Y-17479222D01*
X6441611Y-17479222D02*
X6451134Y-17460174D01*
X6451134Y-17460174D02*
X6470182Y-17450650D01*
X6470182Y-17450650D02*
X6508277Y-17450650D01*
X6508277Y-17450650D02*
X6527325Y-17460174D01*
X6527325Y-17460174D02*
X6536849Y-17479222D01*
X6536849Y-17479222D02*
X6536849Y-17498270D01*
X6536849Y-17498270D02*
X6441611Y-17517317D01*
X6708277Y-17583984D02*
X6708277Y-17383984D01*
X6708277Y-17574460D02*
X6689230Y-17583984D01*
X6689230Y-17583984D02*
X6651134Y-17583984D01*
X6651134Y-17583984D02*
X6632087Y-17574460D01*
X6632087Y-17574460D02*
X6622563Y-17564936D01*
X6622563Y-17564936D02*
X6613039Y-17545889D01*
X6613039Y-17545889D02*
X6613039Y-17488746D01*
X6613039Y-17488746D02*
X6622563Y-17469698D01*
X6622563Y-17469698D02*
X6632087Y-17460174D01*
X6632087Y-17460174D02*
X6651134Y-17450650D01*
X6651134Y-17450650D02*
X6689230Y-17450650D01*
X6689230Y-17450650D02*
X6708277Y-17460174D01*
X6784468Y-17660174D02*
X6793992Y-17650650D01*
X6793992Y-17650650D02*
X6813039Y-17622079D01*
X6813039Y-17622079D02*
X6822563Y-17603031D01*
X6822563Y-17603031D02*
X6832087Y-17574460D01*
X6832087Y-17574460D02*
X6841611Y-17526841D01*
X6841611Y-17526841D02*
X6841611Y-17488746D01*
X6841611Y-17488746D02*
X6832087Y-17441127D01*
X6832087Y-17441127D02*
X6822563Y-17412555D01*
X6822563Y-17412555D02*
X6813039Y-17393508D01*
X6813039Y-17393508D02*
X6793992Y-17364936D01*
X6793992Y-17364936D02*
X6784468Y-17355412D01*
X-352500Y-17787500D02*
G75*
G02*
X-552500Y-17787500I-100000J0D01*
G01*
X-552500Y-17787500D02*
G75*
G02*
X-352500Y-17787500I100000J0D01*
G01*
X-6009Y-17745650D02*
X-6009Y-17878984D01*
X-53628Y-17669460D02*
X-101247Y-17812317D01*
X-101247Y-17812317D02*
X22562Y-17812317D01*
X98753Y-17859936D02*
X108277Y-17869460D01*
X108277Y-17869460D02*
X98753Y-17878984D01*
X98753Y-17878984D02*
X89229Y-17869460D01*
X89229Y-17869460D02*
X98753Y-17859936D01*
X98753Y-17859936D02*
X98753Y-17878984D01*
X232086Y-17678984D02*
X251134Y-17678984D01*
X251134Y-17678984D02*
X270182Y-17688508D01*
X270182Y-17688508D02*
X279705Y-17698031D01*
X279705Y-17698031D02*
X289229Y-17717079D01*
X289229Y-17717079D02*
X298753Y-17755174D01*
X298753Y-17755174D02*
X298753Y-17802793D01*
X298753Y-17802793D02*
X289229Y-17840889D01*
X289229Y-17840889D02*
X279705Y-17859936D01*
X279705Y-17859936D02*
X270182Y-17869460D01*
X270182Y-17869460D02*
X251134Y-17878984D01*
X251134Y-17878984D02*
X232086Y-17878984D01*
X232086Y-17878984D02*
X213039Y-17869460D01*
X213039Y-17869460D02*
X203515Y-17859936D01*
X203515Y-17859936D02*
X193991Y-17840889D01*
X193991Y-17840889D02*
X184467Y-17802793D01*
X184467Y-17802793D02*
X184467Y-17755174D01*
X184467Y-17755174D02*
X193991Y-17717079D01*
X193991Y-17717079D02*
X203515Y-17698031D01*
X203515Y-17698031D02*
X213039Y-17688508D01*
X213039Y-17688508D02*
X232086Y-17678984D01*
X422562Y-17678984D02*
X441610Y-17678984D01*
X441610Y-17678984D02*
X460658Y-17688508D01*
X460658Y-17688508D02*
X470182Y-17698031D01*
X470182Y-17698031D02*
X479705Y-17717079D01*
X479705Y-17717079D02*
X489229Y-17755174D01*
X489229Y-17755174D02*
X489229Y-17802793D01*
X489229Y-17802793D02*
X479705Y-17840889D01*
X479705Y-17840889D02*
X470182Y-17859936D01*
X470182Y-17859936D02*
X460658Y-17869460D01*
X460658Y-17869460D02*
X441610Y-17878984D01*
X441610Y-17878984D02*
X422562Y-17878984D01*
X422562Y-17878984D02*
X403515Y-17869460D01*
X403515Y-17869460D02*
X393991Y-17859936D01*
X393991Y-17859936D02*
X384467Y-17840889D01*
X384467Y-17840889D02*
X374943Y-17802793D01*
X374943Y-17802793D02*
X374943Y-17755174D01*
X374943Y-17755174D02*
X384467Y-17717079D01*
X384467Y-17717079D02*
X393991Y-17698031D01*
X393991Y-17698031D02*
X403515Y-17688508D01*
X403515Y-17688508D02*
X422562Y-17678984D01*
X613039Y-17678984D02*
X632086Y-17678984D01*
X632086Y-17678984D02*
X651134Y-17688508D01*
X651134Y-17688508D02*
X660658Y-17698031D01*
X660658Y-17698031D02*
X670182Y-17717079D01*
X670182Y-17717079D02*
X679705Y-17755174D01*
X679705Y-17755174D02*
X679705Y-17802793D01*
X679705Y-17802793D02*
X670182Y-17840889D01*
X670182Y-17840889D02*
X660658Y-17859936D01*
X660658Y-17859936D02*
X651134Y-17869460D01*
X651134Y-17869460D02*
X632086Y-17878984D01*
X632086Y-17878984D02*
X613039Y-17878984D01*
X613039Y-17878984D02*
X593991Y-17869460D01*
X593991Y-17869460D02*
X584467Y-17859936D01*
X584467Y-17859936D02*
X574944Y-17840889D01*
X574944Y-17840889D02*
X565420Y-17802793D01*
X565420Y-17802793D02*
X565420Y-17755174D01*
X565420Y-17755174D02*
X574944Y-17717079D01*
X574944Y-17717079D02*
X584467Y-17698031D01*
X584467Y-17698031D02*
X593991Y-17688508D01*
X593991Y-17688508D02*
X613039Y-17678984D01*
X765420Y-17878984D02*
X765420Y-17745650D01*
X765420Y-17764698D02*
X774943Y-17755174D01*
X774943Y-17755174D02*
X793991Y-17745650D01*
X793991Y-17745650D02*
X822563Y-17745650D01*
X822563Y-17745650D02*
X841610Y-17755174D01*
X841610Y-17755174D02*
X851134Y-17774222D01*
X851134Y-17774222D02*
X851134Y-17878984D01*
X851134Y-17774222D02*
X860658Y-17755174D01*
X860658Y-17755174D02*
X879705Y-17745650D01*
X879705Y-17745650D02*
X908277Y-17745650D01*
X908277Y-17745650D02*
X927324Y-17755174D01*
X927324Y-17755174D02*
X936848Y-17774222D01*
X936848Y-17774222D02*
X936848Y-17878984D01*
X1032086Y-17878984D02*
X1032086Y-17745650D01*
X1032086Y-17764698D02*
X1041610Y-17755174D01*
X1041610Y-17755174D02*
X1060658Y-17745650D01*
X1060658Y-17745650D02*
X1089229Y-17745650D01*
X1089229Y-17745650D02*
X1108277Y-17755174D01*
X1108277Y-17755174D02*
X1117801Y-17774222D01*
X1117801Y-17774222D02*
X1117801Y-17878984D01*
X1117801Y-17774222D02*
X1127325Y-17755174D01*
X1127325Y-17755174D02*
X1146372Y-17745650D01*
X1146372Y-17745650D02*
X1174944Y-17745650D01*
X1174944Y-17745650D02*
X1193991Y-17755174D01*
X1193991Y-17755174D02*
X1203515Y-17774222D01*
X1203515Y-17774222D02*
X1203515Y-17878984D01*
X1593991Y-17669460D02*
X1422563Y-17926603D01*
X1851134Y-17678984D02*
X1870182Y-17678984D01*
X1870182Y-17678984D02*
X1889229Y-17688508D01*
X1889229Y-17688508D02*
X1898753Y-17698031D01*
X1898753Y-17698031D02*
X1908277Y-17717079D01*
X1908277Y-17717079D02*
X1917801Y-17755174D01*
X1917801Y-17755174D02*
X1917801Y-17802793D01*
X1917801Y-17802793D02*
X1908277Y-17840889D01*
X1908277Y-17840889D02*
X1898753Y-17859936D01*
X1898753Y-17859936D02*
X1889229Y-17869460D01*
X1889229Y-17869460D02*
X1870182Y-17878984D01*
X1870182Y-17878984D02*
X1851134Y-17878984D01*
X1851134Y-17878984D02*
X1832086Y-17869460D01*
X1832086Y-17869460D02*
X1822563Y-17859936D01*
X1822563Y-17859936D02*
X1813039Y-17840889D01*
X1813039Y-17840889D02*
X1803515Y-17802793D01*
X1803515Y-17802793D02*
X1803515Y-17755174D01*
X1803515Y-17755174D02*
X1813039Y-17717079D01*
X1813039Y-17717079D02*
X1822563Y-17698031D01*
X1822563Y-17698031D02*
X1832086Y-17688508D01*
X1832086Y-17688508D02*
X1851134Y-17678984D01*
X2003515Y-17859936D02*
X2013039Y-17869460D01*
X2013039Y-17869460D02*
X2003515Y-17878984D01*
X2003515Y-17878984D02*
X1993991Y-17869460D01*
X1993991Y-17869460D02*
X2003515Y-17859936D01*
X2003515Y-17859936D02*
X2003515Y-17878984D01*
X2203515Y-17878984D02*
X2089229Y-17878984D01*
X2146372Y-17878984D02*
X2146372Y-17678984D01*
X2146372Y-17678984D02*
X2127325Y-17707555D01*
X2127325Y-17707555D02*
X2108277Y-17726603D01*
X2108277Y-17726603D02*
X2089229Y-17736127D01*
X2384468Y-17678984D02*
X2289229Y-17678984D01*
X2289229Y-17678984D02*
X2279706Y-17774222D01*
X2279706Y-17774222D02*
X2289229Y-17764698D01*
X2289229Y-17764698D02*
X2308277Y-17755174D01*
X2308277Y-17755174D02*
X2355896Y-17755174D01*
X2355896Y-17755174D02*
X2374944Y-17764698D01*
X2374944Y-17764698D02*
X2384468Y-17774222D01*
X2384468Y-17774222D02*
X2393991Y-17793270D01*
X2393991Y-17793270D02*
X2393991Y-17840889D01*
X2393991Y-17840889D02*
X2384468Y-17859936D01*
X2384468Y-17859936D02*
X2374944Y-17869460D01*
X2374944Y-17869460D02*
X2355896Y-17878984D01*
X2355896Y-17878984D02*
X2308277Y-17878984D01*
X2308277Y-17878984D02*
X2289229Y-17869460D01*
X2289229Y-17869460D02*
X2279706Y-17859936D01*
X2460658Y-17678984D02*
X2593991Y-17678984D01*
X2593991Y-17678984D02*
X2508277Y-17878984D01*
X2765420Y-17678984D02*
X2670182Y-17678984D01*
X2670182Y-17678984D02*
X2660658Y-17774222D01*
X2660658Y-17774222D02*
X2670182Y-17764698D01*
X2670182Y-17764698D02*
X2689229Y-17755174D01*
X2689229Y-17755174D02*
X2736849Y-17755174D01*
X2736849Y-17755174D02*
X2755896Y-17764698D01*
X2755896Y-17764698D02*
X2765420Y-17774222D01*
X2765420Y-17774222D02*
X2774944Y-17793270D01*
X2774944Y-17793270D02*
X2774944Y-17840889D01*
X2774944Y-17840889D02*
X2765420Y-17859936D01*
X2765420Y-17859936D02*
X2755896Y-17869460D01*
X2755896Y-17869460D02*
X2736849Y-17878984D01*
X2736849Y-17878984D02*
X2689229Y-17878984D01*
X2689229Y-17878984D02*
X2670182Y-17869460D01*
X2670182Y-17869460D02*
X2660658Y-17859936D01*
X2851134Y-17678984D02*
X2851134Y-17717079D01*
X2927325Y-17678984D02*
X2927325Y-17717079D01*
X3222563Y-17955174D02*
X3213039Y-17945650D01*
X3213039Y-17945650D02*
X3193991Y-17917079D01*
X3193991Y-17917079D02*
X3184468Y-17898031D01*
X3184468Y-17898031D02*
X3174944Y-17869460D01*
X3174944Y-17869460D02*
X3165420Y-17821841D01*
X3165420Y-17821841D02*
X3165420Y-17783746D01*
X3165420Y-17783746D02*
X3174944Y-17736127D01*
X3174944Y-17736127D02*
X3184468Y-17707555D01*
X3184468Y-17707555D02*
X3193991Y-17688508D01*
X3193991Y-17688508D02*
X3213039Y-17659936D01*
X3213039Y-17659936D02*
X3222563Y-17650412D01*
X3279706Y-17678984D02*
X3413039Y-17678984D01*
X3413039Y-17678984D02*
X3327325Y-17878984D01*
X3470182Y-17678984D02*
X3603515Y-17678984D01*
X3603515Y-17678984D02*
X3517801Y-17878984D01*
X3832087Y-17878984D02*
X3832087Y-17678984D01*
X3917801Y-17878984D02*
X3917801Y-17774222D01*
X3917801Y-17774222D02*
X3908277Y-17755174D01*
X3908277Y-17755174D02*
X3889230Y-17745650D01*
X3889230Y-17745650D02*
X3860658Y-17745650D01*
X3860658Y-17745650D02*
X3841610Y-17755174D01*
X3841610Y-17755174D02*
X3832087Y-17764698D01*
X4041610Y-17878984D02*
X4022563Y-17869460D01*
X4022563Y-17869460D02*
X4013039Y-17859936D01*
X4013039Y-17859936D02*
X4003515Y-17840889D01*
X4003515Y-17840889D02*
X4003515Y-17783746D01*
X4003515Y-17783746D02*
X4013039Y-17764698D01*
X4013039Y-17764698D02*
X4022563Y-17755174D01*
X4022563Y-17755174D02*
X4041610Y-17745650D01*
X4041610Y-17745650D02*
X4070182Y-17745650D01*
X4070182Y-17745650D02*
X4089230Y-17755174D01*
X4089230Y-17755174D02*
X4098753Y-17764698D01*
X4098753Y-17764698D02*
X4108277Y-17783746D01*
X4108277Y-17783746D02*
X4108277Y-17840889D01*
X4108277Y-17840889D02*
X4098753Y-17859936D01*
X4098753Y-17859936D02*
X4089230Y-17869460D01*
X4089230Y-17869460D02*
X4070182Y-17878984D01*
X4070182Y-17878984D02*
X4041610Y-17878984D01*
X4222563Y-17878984D02*
X4203515Y-17869460D01*
X4203515Y-17869460D02*
X4193991Y-17850412D01*
X4193991Y-17850412D02*
X4193991Y-17678984D01*
X4374944Y-17869460D02*
X4355896Y-17878984D01*
X4355896Y-17878984D02*
X4317801Y-17878984D01*
X4317801Y-17878984D02*
X4298753Y-17869460D01*
X4298753Y-17869460D02*
X4289230Y-17850412D01*
X4289230Y-17850412D02*
X4289230Y-17774222D01*
X4289230Y-17774222D02*
X4298753Y-17755174D01*
X4298753Y-17755174D02*
X4317801Y-17745650D01*
X4317801Y-17745650D02*
X4355896Y-17745650D01*
X4355896Y-17745650D02*
X4374944Y-17755174D01*
X4374944Y-17755174D02*
X4384468Y-17774222D01*
X4384468Y-17774222D02*
X4384468Y-17793270D01*
X4384468Y-17793270D02*
X4289230Y-17812317D01*
X4460658Y-17869460D02*
X4479706Y-17878984D01*
X4479706Y-17878984D02*
X4517801Y-17878984D01*
X4517801Y-17878984D02*
X4536849Y-17869460D01*
X4536849Y-17869460D02*
X4546373Y-17850412D01*
X4546373Y-17850412D02*
X4546373Y-17840889D01*
X4546373Y-17840889D02*
X4536849Y-17821841D01*
X4536849Y-17821841D02*
X4517801Y-17812317D01*
X4517801Y-17812317D02*
X4489230Y-17812317D01*
X4489230Y-17812317D02*
X4470182Y-17802793D01*
X4470182Y-17802793D02*
X4460658Y-17783746D01*
X4460658Y-17783746D02*
X4460658Y-17774222D01*
X4460658Y-17774222D02*
X4470182Y-17755174D01*
X4470182Y-17755174D02*
X4489230Y-17745650D01*
X4489230Y-17745650D02*
X4517801Y-17745650D01*
X4517801Y-17745650D02*
X4536849Y-17755174D01*
X4613039Y-17955174D02*
X4622563Y-17945650D01*
X4622563Y-17945650D02*
X4641611Y-17917079D01*
X4641611Y-17917079D02*
X4651134Y-17898031D01*
X4651134Y-17898031D02*
X4660658Y-17869460D01*
X4660658Y-17869460D02*
X4670182Y-17821841D01*
X4670182Y-17821841D02*
X4670182Y-17783746D01*
X4670182Y-17783746D02*
X4660658Y-17736127D01*
X4660658Y-17736127D02*
X4651134Y-17707555D01*
X4651134Y-17707555D02*
X4641611Y-17688508D01*
X4641611Y-17688508D02*
X4622563Y-17659936D01*
X4622563Y-17659936D02*
X4613039Y-17650412D01*
X4974944Y-17955174D02*
X4965420Y-17945650D01*
X4965420Y-17945650D02*
X4946373Y-17917079D01*
X4946373Y-17917079D02*
X4936849Y-17898031D01*
X4936849Y-17898031D02*
X4927325Y-17869460D01*
X4927325Y-17869460D02*
X4917801Y-17821841D01*
X4917801Y-17821841D02*
X4917801Y-17783746D01*
X4917801Y-17783746D02*
X4927325Y-17736127D01*
X4927325Y-17736127D02*
X4936849Y-17707555D01*
X4936849Y-17707555D02*
X4946373Y-17688508D01*
X4946373Y-17688508D02*
X4965420Y-17659936D01*
X4965420Y-17659936D02*
X4974944Y-17650412D01*
X5051134Y-17745650D02*
X5051134Y-17878984D01*
X5051134Y-17764698D02*
X5060658Y-17755174D01*
X5060658Y-17755174D02*
X5079706Y-17745650D01*
X5079706Y-17745650D02*
X5108277Y-17745650D01*
X5108277Y-17745650D02*
X5127325Y-17755174D01*
X5127325Y-17755174D02*
X5136849Y-17774222D01*
X5136849Y-17774222D02*
X5136849Y-17878984D01*
X5260658Y-17878984D02*
X5241611Y-17869460D01*
X5241611Y-17869460D02*
X5232087Y-17859936D01*
X5232087Y-17859936D02*
X5222563Y-17840889D01*
X5222563Y-17840889D02*
X5222563Y-17783746D01*
X5222563Y-17783746D02*
X5232087Y-17764698D01*
X5232087Y-17764698D02*
X5241611Y-17755174D01*
X5241611Y-17755174D02*
X5260658Y-17745650D01*
X5260658Y-17745650D02*
X5289230Y-17745650D01*
X5289230Y-17745650D02*
X5308277Y-17755174D01*
X5308277Y-17755174D02*
X5317801Y-17764698D01*
X5317801Y-17764698D02*
X5327325Y-17783746D01*
X5327325Y-17783746D02*
X5327325Y-17840889D01*
X5327325Y-17840889D02*
X5317801Y-17859936D01*
X5317801Y-17859936D02*
X5308277Y-17869460D01*
X5308277Y-17869460D02*
X5289230Y-17878984D01*
X5289230Y-17878984D02*
X5260658Y-17878984D01*
X5384468Y-17745650D02*
X5460658Y-17745650D01*
X5413039Y-17678984D02*
X5413039Y-17850412D01*
X5413039Y-17850412D02*
X5422563Y-17869460D01*
X5422563Y-17869460D02*
X5441611Y-17878984D01*
X5441611Y-17878984D02*
X5460658Y-17878984D01*
X5679706Y-17745650D02*
X5679706Y-17945650D01*
X5679706Y-17755174D02*
X5698753Y-17745650D01*
X5698753Y-17745650D02*
X5736849Y-17745650D01*
X5736849Y-17745650D02*
X5755896Y-17755174D01*
X5755896Y-17755174D02*
X5765420Y-17764698D01*
X5765420Y-17764698D02*
X5774944Y-17783746D01*
X5774944Y-17783746D02*
X5774944Y-17840889D01*
X5774944Y-17840889D02*
X5765420Y-17859936D01*
X5765420Y-17859936D02*
X5755896Y-17869460D01*
X5755896Y-17869460D02*
X5736849Y-17878984D01*
X5736849Y-17878984D02*
X5698753Y-17878984D01*
X5698753Y-17878984D02*
X5679706Y-17869460D01*
X5889230Y-17878984D02*
X5870182Y-17869460D01*
X5870182Y-17869460D02*
X5860658Y-17850412D01*
X5860658Y-17850412D02*
X5860658Y-17678984D01*
X6051134Y-17878984D02*
X6051134Y-17774222D01*
X6051134Y-17774222D02*
X6041611Y-17755174D01*
X6041611Y-17755174D02*
X6022563Y-17745650D01*
X6022563Y-17745650D02*
X5984468Y-17745650D01*
X5984468Y-17745650D02*
X5965420Y-17755174D01*
X6051134Y-17869460D02*
X6032087Y-17878984D01*
X6032087Y-17878984D02*
X5984468Y-17878984D01*
X5984468Y-17878984D02*
X5965420Y-17869460D01*
X5965420Y-17869460D02*
X5955896Y-17850412D01*
X5955896Y-17850412D02*
X5955896Y-17831365D01*
X5955896Y-17831365D02*
X5965420Y-17812317D01*
X5965420Y-17812317D02*
X5984468Y-17802793D01*
X5984468Y-17802793D02*
X6032087Y-17802793D01*
X6032087Y-17802793D02*
X6051134Y-17793270D01*
X6117801Y-17745650D02*
X6193992Y-17745650D01*
X6146373Y-17678984D02*
X6146373Y-17850412D01*
X6146373Y-17850412D02*
X6155896Y-17869460D01*
X6155896Y-17869460D02*
X6174944Y-17878984D01*
X6174944Y-17878984D02*
X6193992Y-17878984D01*
X6336849Y-17869460D02*
X6317801Y-17878984D01*
X6317801Y-17878984D02*
X6279706Y-17878984D01*
X6279706Y-17878984D02*
X6260658Y-17869460D01*
X6260658Y-17869460D02*
X6251134Y-17850412D01*
X6251134Y-17850412D02*
X6251134Y-17774222D01*
X6251134Y-17774222D02*
X6260658Y-17755174D01*
X6260658Y-17755174D02*
X6279706Y-17745650D01*
X6279706Y-17745650D02*
X6317801Y-17745650D01*
X6317801Y-17745650D02*
X6336849Y-17755174D01*
X6336849Y-17755174D02*
X6346373Y-17774222D01*
X6346373Y-17774222D02*
X6346373Y-17793270D01*
X6346373Y-17793270D02*
X6251134Y-17812317D01*
X6517801Y-17878984D02*
X6517801Y-17678984D01*
X6517801Y-17869460D02*
X6498754Y-17878984D01*
X6498754Y-17878984D02*
X6460658Y-17878984D01*
X6460658Y-17878984D02*
X6441611Y-17869460D01*
X6441611Y-17869460D02*
X6432087Y-17859936D01*
X6432087Y-17859936D02*
X6422563Y-17840889D01*
X6422563Y-17840889D02*
X6422563Y-17783746D01*
X6422563Y-17783746D02*
X6432087Y-17764698D01*
X6432087Y-17764698D02*
X6441611Y-17755174D01*
X6441611Y-17755174D02*
X6460658Y-17745650D01*
X6460658Y-17745650D02*
X6498754Y-17745650D01*
X6498754Y-17745650D02*
X6517801Y-17755174D01*
X6593992Y-17955174D02*
X6603515Y-17945650D01*
X6603515Y-17945650D02*
X6622563Y-17917079D01*
X6622563Y-17917079D02*
X6632087Y-17898031D01*
X6632087Y-17898031D02*
X6641611Y-17869460D01*
X6641611Y-17869460D02*
X6651134Y-17821841D01*
X6651134Y-17821841D02*
X6651134Y-17783746D01*
X6651134Y-17783746D02*
X6641611Y-17736127D01*
X6641611Y-17736127D02*
X6632087Y-17707555D01*
X6632087Y-17707555D02*
X6622563Y-17688508D01*
X6622563Y-17688508D02*
X6603515Y-17659936D01*
X6603515Y-17659936D02*
X6593992Y-17650412D01*
M02*
