M48
; DRILL file {KiCad 9.0.7} date 2026-03-08T21:49:53-0700
; FORMAT={-:-/ absolute / metric / decimal}
; #@! TF.CreationDate,2026-03-08T21:49:53-07:00
; #@! TF.GenerationSoftware,Kicad,Pcbnew,9.0.7
; #@! TF.FileFunction,Plated,1,2,PTH
FMAT,2
METRIC
; #@! TA.AperFunction,Plated,PTH,ComponentDrill
T1C1.092
; #@! TA.AperFunction,Plated,PTH,ComponentDrill
T2C1.500
%
G90
G05
T1
X279.76Y-38.34
X279.76Y-40.88
X279.76Y-43.42
X279.76Y-45.96
X279.76Y-48.5
X279.76Y-51.04
X279.76Y-53.58
X279.76Y-56.12
X279.76Y-58.66
X279.76Y-61.2
X279.76Y-63.74
X279.76Y-66.28
X282.3Y-61.2
X284.84Y-61.2
X287.38Y-61.2
X295.0Y-38.34
X295.0Y-40.88
X295.0Y-43.42
X295.0Y-45.96
X295.0Y-48.5
X295.0Y-51.04
X295.0Y-53.58
X295.0Y-56.12
X295.0Y-58.66
X295.0Y-61.2
X295.0Y-63.74
X295.0Y-66.28
T2
X5.16Y-47.547
X5.16Y-71.36
X7.541Y-147.56
X9.922Y-90.41
X11.51Y-45.008
X11.51Y-68.82
X12.304Y-109.46
X13.891Y-145.02
X16.273Y-87.87
X17.066Y-128.51
X18.654Y-106.92
X23.416Y-125.97
X24.21Y-71.36
X30.56Y-68.82
X31.354Y-147.56
X33.735Y-47.547
X33.735Y-90.41
X37.704Y-145.02
X38.497Y-109.46
X40.085Y-45.008
X40.085Y-87.87
X43.26Y-71.36
X44.847Y-106.92
X48.023Y-128.51
X49.61Y-68.82
X52.785Y-47.547
X52.785Y-90.41
X54.372Y-125.97
X55.166Y-147.56
X57.547Y-109.46
X59.135Y-45.008
X59.135Y-87.87
X61.516Y-145.02
X62.31Y-71.36
X63.897Y-106.92
X67.072Y-128.51
X68.66Y-68.82
X71.835Y-47.547
X71.835Y-90.41
X73.422Y-125.97
X76.597Y-109.46
X78.185Y-45.008
X78.185Y-87.87
X81.36Y-71.36
X82.947Y-106.92
X86.123Y-128.51
X87.71Y-68.82
X90.885Y-47.547
X90.885Y-90.41
X92.472Y-125.97
X95.647Y-109.46
X97.235Y-45.008
X97.235Y-87.87
X100.41Y-71.36
X101.998Y-106.92
X105.172Y-128.51
X106.76Y-68.82
X109.935Y-90.41
X111.522Y-125.97
X114.697Y-109.46
X116.285Y-87.87
X119.46Y-71.36
X121.047Y-106.92
X124.222Y-47.547
X124.222Y-128.51
X125.81Y-68.82
X126.604Y-147.56
X128.985Y-90.41
X130.572Y-45.008
X130.572Y-125.97
X132.954Y-145.02
X133.748Y-109.46
X135.335Y-87.87
X138.51Y-71.36
X140.097Y-106.92
X143.272Y-47.547
X143.272Y-128.51
X144.86Y-68.82
X148.035Y-90.41
X149.623Y-45.008
X149.623Y-125.97
X152.797Y-109.46
X154.385Y-87.87
X157.56Y-71.36
X159.147Y-106.92
X162.322Y-47.547
X162.322Y-128.51
X163.91Y-68.82
X167.085Y-90.41
X168.672Y-45.008
X168.672Y-125.97
X171.847Y-109.46
X173.435Y-87.87
X176.61Y-71.36
X178.197Y-106.92
X181.373Y-47.547
X181.373Y-128.51
X182.96Y-68.82
X186.135Y-90.41
X187.722Y-45.008
X187.722Y-125.97
X190.897Y-109.46
X192.485Y-87.87
X195.66Y-71.36
X197.248Y-106.92
X198.041Y-147.56
X200.422Y-128.51
X202.01Y-68.82
X204.391Y-145.02
X205.185Y-90.41
X206.772Y-125.97
X209.947Y-109.46
X211.535Y-87.87
X214.71Y-47.547
X214.71Y-71.36
X216.297Y-106.92
X219.472Y-128.51
X221.06Y-45.008
X221.06Y-68.82
X221.854Y-147.56
X224.235Y-90.41
X225.822Y-125.97
X228.204Y-145.02
X228.998Y-109.46
X230.585Y-87.87
X233.76Y-47.547
X233.76Y-71.36
X235.347Y-106.92
X240.11Y-45.008
X240.11Y-68.82
X243.285Y-90.41
X245.666Y-147.56
X249.635Y-87.87
X252.016Y-145.02
X252.81Y-47.547
X255.191Y-128.51
X259.16Y-45.008
X259.954Y-109.46
X261.541Y-125.97
X262.335Y-71.36
X266.304Y-106.92
X267.097Y-90.41
X268.685Y-68.82
X269.479Y-147.56
X273.447Y-87.87
X275.829Y-145.02
X295.673Y-80.885
X295.673Y-99.935
X295.673Y-118.985
X295.673Y-138.035
X302.022Y-78.345
X302.022Y-97.395
X302.022Y-116.445
X302.022Y-135.495
M30
