G04 #@! TF.GenerationSoftware,KiCad,Pcbnew,9.0.7*
G04 #@! TF.CreationDate,2026-03-08T21:49:53-07:00*
G04 #@! TF.ProjectId,customKeyboard.kicad_pcb,63757374-6f6d-44b6-9579-626f6172642e,rev?*
G04 #@! TF.SameCoordinates,Original*
G04 #@! TF.FileFunction,Soldermask,Bot*
G04 #@! TF.FilePolarity,Negative*
%FSLAX46Y46*%
G04 Gerber Fmt 4.6, Leading zero omitted, Abs format (unit mm)*
G04 Created by KiCad (PCBNEW 9.0.7) date 2026-03-08 21:49:53*
%MOMM*%
%LPD*%
G01*
G04 APERTURE LIST*
G04 Aperture macros list*
%AMRoundRect*
0 Rectangle with rounded corners*
0 $1 Rounding radius*
0 $2 $3 $4 $5 $6 $7 $8 $9 X,Y pos of 4 corners*
0 Add a 4 corners polygon primitive as box body*
4,1,4,$2,$3,$4,$5,$6,$7,$8,$9,$2,$3,0*
0 Add four circle primitives for the rounded corners*
1,1,$1+$1,$2,$3*
1,1,$1+$1,$4,$5*
1,1,$1+$1,$6,$7*
1,1,$1+$1,$8,$9*
0 Add four rect primitives between the rounded corners*
20,1,$1+$1,$2,$3,$4,$5,0*
20,1,$1+$1,$4,$5,$6,$7,0*
20,1,$1+$1,$6,$7,$8,$9,0*
20,1,$1+$1,$8,$9,$2,$3,0*%
G04 Aperture macros list end*
%ADD10C,1.750000*%
%ADD11C,4.000000*%
%ADD12C,2.500000*%
%ADD13C,1.752600*%
%ADD14RoundRect,0.250000X0.300000X-0.300000X0.300000X0.300000X-0.300000X0.300000X-0.300000X-0.300000X0*%
G04 APERTURE END LIST*
D10*
G04 #@! TO.C,SW44*
X37227500Y-112000000D03*
D11*
X42307500Y-112000000D03*
D10*
X47387500Y-112000000D03*
D12*
X38497500Y-109460000D03*
X44847500Y-106920000D03*
G04 #@! TD*
D10*
G04 #@! TO.C,SW54*
X227727500Y-112000000D03*
D11*
X232807500Y-112000000D03*
D10*
X237887500Y-112000000D03*
D12*
X228997500Y-109460000D03*
X235347500Y-106920000D03*
G04 #@! TD*
D10*
G04 #@! TO.C,SW59*
X65802500Y-131050000D03*
D11*
X70882500Y-131050000D03*
D10*
X75962500Y-131050000D03*
D12*
X67072500Y-128510000D03*
X73422500Y-125970000D03*
G04 #@! TD*
D10*
G04 #@! TO.C,SW58*
X46752500Y-131050000D03*
D11*
X51832500Y-131050000D03*
D10*
X56912500Y-131050000D03*
D12*
X48022500Y-128510000D03*
X54372500Y-125970000D03*
G04 #@! TD*
D10*
G04 #@! TO.C,SW65*
X180102500Y-131050000D03*
D11*
X185182500Y-131050000D03*
D10*
X190262500Y-131050000D03*
D12*
X181372500Y-128510000D03*
X187722500Y-125970000D03*
G04 #@! TD*
D10*
G04 #@! TO.C,SW34*
X127715000Y-92950000D03*
D11*
X132795000Y-92950000D03*
D10*
X137875000Y-92950000D03*
D12*
X128985000Y-90410000D03*
X135335000Y-87870000D03*
G04 #@! TD*
D10*
G04 #@! TO.C,SW3*
X51515000Y-50087500D03*
D11*
X56595000Y-50087500D03*
D10*
X61675000Y-50087500D03*
D12*
X52785000Y-47547500D03*
X59135000Y-45007500D03*
G04 #@! TD*
D10*
G04 #@! TO.C,SW60*
X84852500Y-131050000D03*
D11*
X89932500Y-131050000D03*
D10*
X95012500Y-131050000D03*
D12*
X86122500Y-128510000D03*
X92472500Y-125970000D03*
G04 #@! TD*
D10*
G04 #@! TO.C,SW49*
X132477500Y-112000000D03*
D11*
X137557500Y-112000000D03*
D10*
X142637500Y-112000000D03*
D12*
X133747500Y-109460000D03*
X140097500Y-106920000D03*
G04 #@! TD*
D10*
G04 #@! TO.C,SW55*
X258683750Y-112000000D03*
D11*
X263763750Y-112000000D03*
D10*
X268843750Y-112000000D03*
D12*
X259953750Y-109460000D03*
X266303750Y-106920000D03*
G04 #@! TD*
D10*
G04 #@! TO.C,SW9*
X180102500Y-50087500D03*
D11*
X185182500Y-50087500D03*
D10*
X190262500Y-50087500D03*
D12*
X181372500Y-47547500D03*
X187722500Y-45007500D03*
G04 #@! TD*
D10*
G04 #@! TO.C,SW74*
X196771250Y-150100000D03*
D11*
X201851250Y-150100000D03*
D10*
X206931250Y-150100000D03*
D12*
X198041250Y-147560000D03*
X204391250Y-145020000D03*
G04 #@! TD*
D10*
G04 #@! TO.C,SW71*
X30083750Y-150100000D03*
D11*
X35163750Y-150100000D03*
D10*
X40243750Y-150100000D03*
D12*
X31353750Y-147560000D03*
X37703750Y-145020000D03*
G04 #@! TD*
D10*
G04 #@! TO.C,SW16*
X61040000Y-73900000D03*
D11*
X66120000Y-73900000D03*
D10*
X71200000Y-73900000D03*
D12*
X62310000Y-71360000D03*
X68660000Y-68820000D03*
G04 #@! TD*
D10*
G04 #@! TO.C,SW67*
X218202500Y-131050000D03*
D11*
X223282500Y-131050000D03*
D10*
X228362500Y-131050000D03*
D12*
X219472500Y-128510000D03*
X225822500Y-125970000D03*
G04 #@! TD*
D10*
G04 #@! TO.C,SW2*
X32465000Y-50087500D03*
D11*
X37545000Y-50087500D03*
D10*
X42625000Y-50087500D03*
D12*
X33735000Y-47547500D03*
X40085000Y-45007500D03*
G04 #@! TD*
D13*
G04 #@! TO.C,U1*
X279760000Y-38340000D03*
X279760000Y-40880000D03*
X279760000Y-43420000D03*
X279760000Y-45960000D03*
X279760000Y-48500000D03*
X279760000Y-51040000D03*
X279760000Y-53580000D03*
X279760000Y-56120000D03*
X279760000Y-58660000D03*
X279760000Y-61200000D03*
X279760000Y-63740000D03*
X279760000Y-66280000D03*
X295000000Y-66280000D03*
X295000000Y-63740000D03*
X295000000Y-61200000D03*
X295000000Y-58660000D03*
X295000000Y-56120000D03*
X295000000Y-53580000D03*
X295000000Y-51040000D03*
X295000000Y-48500000D03*
X295000000Y-45960000D03*
X295000000Y-43420000D03*
X295000000Y-40880000D03*
X295000000Y-38340000D03*
X282300000Y-61200000D03*
X284840000Y-61200000D03*
X287380000Y-61200000D03*
G04 #@! TD*
D10*
G04 #@! TO.C,SW11*
X232490000Y-50087500D03*
D11*
X237570000Y-50087500D03*
D10*
X242650000Y-50087500D03*
D12*
X233760000Y-47547500D03*
X240110000Y-45007500D03*
G04 #@! TD*
D10*
G04 #@! TO.C,SW25*
X232490000Y-73900000D03*
D11*
X237570000Y-73900000D03*
D10*
X242650000Y-73900000D03*
D12*
X233760000Y-71360000D03*
X240110000Y-68820000D03*
G04 #@! TD*
D10*
G04 #@! TO.C,SW36*
X165815000Y-92950000D03*
D11*
X170895000Y-92950000D03*
D10*
X175975000Y-92950000D03*
D12*
X167085000Y-90410000D03*
X173435000Y-87870000D03*
G04 #@! TD*
D10*
G04 #@! TO.C,SW64*
X161052500Y-131050000D03*
D11*
X166132500Y-131050000D03*
D10*
X171212500Y-131050000D03*
D12*
X162322500Y-128510000D03*
X168672500Y-125970000D03*
G04 #@! TD*
D10*
G04 #@! TO.C,SW5*
X89615000Y-50087500D03*
D11*
X94695000Y-50087500D03*
D10*
X99775000Y-50087500D03*
D12*
X90885000Y-47547500D03*
X97235000Y-45007500D03*
G04 #@! TD*
D10*
G04 #@! TO.C,SW76*
X244396250Y-150100000D03*
D11*
X249476250Y-150100000D03*
D10*
X254556250Y-150100000D03*
D12*
X245666250Y-147560000D03*
X252016250Y-145020000D03*
G04 #@! TD*
D10*
G04 #@! TO.C,SW40*
X242015000Y-92950000D03*
D11*
X247095000Y-92950000D03*
D10*
X252175000Y-92950000D03*
D12*
X243285000Y-90410000D03*
X249635000Y-87870000D03*
G04 #@! TD*
D10*
G04 #@! TO.C,SW63*
X142002500Y-131050000D03*
D11*
X147082500Y-131050000D03*
D10*
X152162500Y-131050000D03*
D12*
X143272500Y-128510000D03*
X149622500Y-125970000D03*
G04 #@! TD*
D10*
G04 #@! TO.C,SW10*
X213440000Y-50087500D03*
D11*
X218520000Y-50087500D03*
D10*
X223600000Y-50087500D03*
D12*
X214710000Y-47547500D03*
X221060000Y-45007500D03*
G04 #@! TD*
D10*
G04 #@! TO.C,SW7*
X142002500Y-50087500D03*
D11*
X147082500Y-50087500D03*
D10*
X152162500Y-50087500D03*
D12*
X143272500Y-47547500D03*
X149622500Y-45007500D03*
G04 #@! TD*
D10*
G04 #@! TO.C,SW22*
X175340000Y-73900000D03*
D11*
X180420000Y-73900000D03*
D10*
X185500000Y-73900000D03*
D12*
X176610000Y-71360000D03*
X182960000Y-68820000D03*
G04 #@! TD*
D10*
G04 #@! TO.C,SW68*
X253921250Y-131050000D03*
D11*
X259001250Y-131050000D03*
D10*
X264081250Y-131050000D03*
D12*
X255191250Y-128510000D03*
X261541250Y-125970000D03*
G04 #@! TD*
D10*
G04 #@! TO.C,SW8*
X161052500Y-50087500D03*
D11*
X166132500Y-50087500D03*
D10*
X171212500Y-50087500D03*
D12*
X162322500Y-47547500D03*
X168672500Y-45007500D03*
G04 #@! TD*
D10*
G04 #@! TO.C,SW56*
X294402500Y-121525000D03*
D11*
X299482500Y-121525000D03*
D10*
X304562500Y-121525000D03*
D12*
X295672500Y-118985000D03*
X302022500Y-116445000D03*
G04 #@! TD*
D10*
G04 #@! TO.C,SW45*
X56277500Y-112000000D03*
D11*
X61357500Y-112000000D03*
D10*
X66437500Y-112000000D03*
D12*
X57547500Y-109460000D03*
X63897500Y-106920000D03*
G04 #@! TD*
D10*
G04 #@! TO.C,SW23*
X194390000Y-73900000D03*
D11*
X199470000Y-73900000D03*
D10*
X204550000Y-73900000D03*
D12*
X195660000Y-71360000D03*
X202010000Y-68820000D03*
G04 #@! TD*
D10*
G04 #@! TO.C,SW42*
X294402500Y-102475000D03*
D11*
X299482500Y-102475000D03*
D10*
X304562500Y-102475000D03*
D12*
X295672500Y-99935000D03*
X302022500Y-97395000D03*
G04 #@! TD*
D10*
G04 #@! TO.C,SW38*
X203915000Y-92950000D03*
D11*
X208995000Y-92950000D03*
D10*
X214075000Y-92950000D03*
D12*
X205185000Y-90410000D03*
X211535000Y-87870000D03*
G04 #@! TD*
D10*
G04 #@! TO.C,SW62*
X122952500Y-131050000D03*
D11*
X128032500Y-131050000D03*
D10*
X133112500Y-131050000D03*
D12*
X124222500Y-128510000D03*
X130572500Y-125970000D03*
G04 #@! TD*
D10*
G04 #@! TO.C,SW6*
X122952500Y-50087500D03*
D11*
X128032500Y-50087500D03*
D10*
X133112500Y-50087500D03*
D12*
X124222500Y-47547500D03*
X130572500Y-45007500D03*
G04 #@! TD*
D10*
G04 #@! TO.C,SW75*
X220583750Y-150100000D03*
D11*
X225663750Y-150100000D03*
D10*
X230743750Y-150100000D03*
D12*
X221853750Y-147560000D03*
X228203750Y-145020000D03*
G04 #@! TD*
D10*
G04 #@! TO.C,SW52*
X189627500Y-112000000D03*
D11*
X194707500Y-112000000D03*
D10*
X199787500Y-112000000D03*
D12*
X190897500Y-109460000D03*
X197247500Y-106920000D03*
G04 #@! TD*
D10*
G04 #@! TO.C,SW47*
X94377500Y-112000000D03*
D11*
X99457500Y-112000000D03*
D10*
X104537500Y-112000000D03*
D12*
X95647500Y-109460000D03*
X101997500Y-106920000D03*
G04 #@! TD*
D10*
G04 #@! TO.C,SW28*
X8652500Y-92950000D03*
D11*
X13732500Y-92950000D03*
D10*
X18812500Y-92950000D03*
D12*
X9922500Y-90410000D03*
X16272500Y-87870000D03*
G04 #@! TD*
D10*
G04 #@! TO.C,SW30*
X51515000Y-92950000D03*
D11*
X56595000Y-92950000D03*
D10*
X61675000Y-92950000D03*
D12*
X52785000Y-90410000D03*
X59135000Y-87870000D03*
G04 #@! TD*
D10*
G04 #@! TO.C,SW48*
X113427500Y-112000000D03*
D11*
X118507500Y-112000000D03*
D10*
X123587500Y-112000000D03*
D12*
X114697500Y-109460000D03*
X121047500Y-106920000D03*
G04 #@! TD*
D10*
G04 #@! TO.C,SW17*
X80090000Y-73900000D03*
D11*
X85170000Y-73900000D03*
D10*
X90250000Y-73900000D03*
D12*
X81360000Y-71360000D03*
X87710000Y-68820000D03*
G04 #@! TD*
D10*
G04 #@! TO.C,SW39*
X222965000Y-92950000D03*
D11*
X228045000Y-92950000D03*
D10*
X233125000Y-92950000D03*
D12*
X224235000Y-90410000D03*
X230585000Y-87870000D03*
G04 #@! TD*
D10*
G04 #@! TO.C,SW15*
X41990000Y-73900000D03*
D11*
X47070000Y-73900000D03*
D10*
X52150000Y-73900000D03*
D12*
X43260000Y-71360000D03*
X49610000Y-68820000D03*
G04 #@! TD*
D10*
G04 #@! TO.C,SW29*
X32465000Y-92950000D03*
D11*
X37545000Y-92950000D03*
D10*
X42625000Y-92950000D03*
D12*
X33735000Y-90410000D03*
X40085000Y-87870000D03*
G04 #@! TD*
D10*
G04 #@! TO.C,SW77*
X268208750Y-150100000D03*
D11*
X273288750Y-150100000D03*
D10*
X278368750Y-150100000D03*
D12*
X269478750Y-147560000D03*
X275828750Y-145020000D03*
G04 #@! TD*
D10*
G04 #@! TO.C,SW57*
X15796250Y-131050000D03*
D11*
X20876250Y-131050000D03*
D10*
X25956250Y-131050000D03*
D12*
X17066250Y-128510000D03*
X23416250Y-125970000D03*
G04 #@! TD*
D10*
G04 #@! TO.C,SW13*
X3890000Y-73900000D03*
D11*
X8970000Y-73900000D03*
D10*
X14050000Y-73900000D03*
D12*
X5160000Y-71360000D03*
X11510000Y-68820000D03*
G04 #@! TD*
D10*
G04 #@! TO.C,SW21*
X156290000Y-73900000D03*
D11*
X161370000Y-73900000D03*
D10*
X166450000Y-73900000D03*
D12*
X157560000Y-71360000D03*
X163910000Y-68820000D03*
G04 #@! TD*
D10*
G04 #@! TO.C,SW14*
X22940000Y-73900000D03*
D11*
X28020000Y-73900000D03*
D10*
X33100000Y-73900000D03*
D12*
X24210000Y-71360000D03*
X30560000Y-68820000D03*
G04 #@! TD*
D10*
G04 #@! TO.C,SW27*
X294402500Y-83425000D03*
D11*
X299482500Y-83425000D03*
D10*
X304562500Y-83425000D03*
D12*
X295672500Y-80885000D03*
X302022500Y-78345000D03*
G04 #@! TD*
D10*
G04 #@! TO.C,SW35*
X146765000Y-92950000D03*
D11*
X151845000Y-92950000D03*
D10*
X156925000Y-92950000D03*
D12*
X148035000Y-90410000D03*
X154385000Y-87870000D03*
G04 #@! TD*
D10*
G04 #@! TO.C,SW1*
X3890000Y-50087500D03*
D11*
X8970000Y-50087500D03*
D10*
X14050000Y-50087500D03*
D12*
X5160000Y-47547500D03*
X11510000Y-45007500D03*
G04 #@! TD*
D10*
G04 #@! TO.C,SW18*
X99140000Y-73900000D03*
D11*
X104220000Y-73900000D03*
D10*
X109300000Y-73900000D03*
D12*
X100410000Y-71360000D03*
X106760000Y-68820000D03*
G04 #@! TD*
D10*
G04 #@! TO.C,SW4*
X70565000Y-50087500D03*
D11*
X75645000Y-50087500D03*
D10*
X80725000Y-50087500D03*
D12*
X71835000Y-47547500D03*
X78185000Y-45007500D03*
G04 #@! TD*
D10*
G04 #@! TO.C,SW43*
X11033750Y-112000000D03*
D11*
X16113750Y-112000000D03*
D10*
X21193750Y-112000000D03*
D12*
X12303750Y-109460000D03*
X18653750Y-106920000D03*
G04 #@! TD*
D10*
G04 #@! TO.C,SW66*
X199152500Y-131050000D03*
D11*
X204232500Y-131050000D03*
D10*
X209312500Y-131050000D03*
D12*
X200422500Y-128510000D03*
X206772500Y-125970000D03*
G04 #@! TD*
D10*
G04 #@! TO.C,SW26*
X261065000Y-73900000D03*
D11*
X266145000Y-73900000D03*
D10*
X271225000Y-73900000D03*
D12*
X262335000Y-71360000D03*
X268685000Y-68820000D03*
G04 #@! TD*
D10*
G04 #@! TO.C,SW41*
X265827500Y-92950000D03*
D11*
X270907500Y-92950000D03*
D10*
X275987500Y-92950000D03*
D12*
X267097500Y-90410000D03*
X273447500Y-87870000D03*
G04 #@! TD*
D10*
G04 #@! TO.C,SW69*
X294402500Y-140575000D03*
D11*
X299482500Y-140575000D03*
D10*
X304562500Y-140575000D03*
D12*
X295672500Y-138035000D03*
X302022500Y-135495000D03*
G04 #@! TD*
D10*
G04 #@! TO.C,SW37*
X184865000Y-92950000D03*
D11*
X189945000Y-92950000D03*
D10*
X195025000Y-92950000D03*
D12*
X186135000Y-90410000D03*
X192485000Y-87870000D03*
G04 #@! TD*
D10*
G04 #@! TO.C,SW61*
X103902500Y-131050000D03*
D11*
X108982500Y-131050000D03*
D10*
X114062500Y-131050000D03*
D12*
X105172500Y-128510000D03*
X111522500Y-125970000D03*
G04 #@! TD*
D10*
G04 #@! TO.C,SW50*
X151527500Y-112000000D03*
D11*
X156607500Y-112000000D03*
D10*
X161687500Y-112000000D03*
D12*
X152797500Y-109460000D03*
X159147500Y-106920000D03*
G04 #@! TD*
D10*
G04 #@! TO.C,SW33*
X108665000Y-92950000D03*
D11*
X113745000Y-92950000D03*
D10*
X118825000Y-92950000D03*
D12*
X109935000Y-90410000D03*
X116285000Y-87870000D03*
G04 #@! TD*
D10*
G04 #@! TO.C,SW46*
X75327500Y-112000000D03*
D11*
X80407500Y-112000000D03*
D10*
X85487500Y-112000000D03*
D12*
X76597500Y-109460000D03*
X82947500Y-106920000D03*
G04 #@! TD*
D10*
G04 #@! TO.C,SW24*
X213440000Y-73900000D03*
D11*
X218520000Y-73900000D03*
D10*
X223600000Y-73900000D03*
D12*
X214710000Y-71360000D03*
X221060000Y-68820000D03*
G04 #@! TD*
D10*
G04 #@! TO.C,SW19*
X118190000Y-73900000D03*
D11*
X123270000Y-73900000D03*
D10*
X128350000Y-73900000D03*
D12*
X119460000Y-71360000D03*
X125810000Y-68820000D03*
G04 #@! TD*
D10*
G04 #@! TO.C,SW32*
X89615000Y-92950000D03*
D11*
X94695000Y-92950000D03*
D10*
X99775000Y-92950000D03*
D12*
X90885000Y-90410000D03*
X97235000Y-87870000D03*
G04 #@! TD*
D10*
G04 #@! TO.C,SW72*
X53896250Y-150100000D03*
D11*
X58976250Y-150100000D03*
D10*
X64056250Y-150100000D03*
D12*
X55166250Y-147560000D03*
X61516250Y-145020000D03*
G04 #@! TD*
D10*
G04 #@! TO.C,SW20*
X137240000Y-73900000D03*
D11*
X142320000Y-73900000D03*
D10*
X147400000Y-73900000D03*
D12*
X138510000Y-71360000D03*
X144860000Y-68820000D03*
G04 #@! TD*
D10*
G04 #@! TO.C,SW31*
X70565000Y-92950000D03*
D11*
X75645000Y-92950000D03*
D10*
X80725000Y-92950000D03*
D12*
X71835000Y-90410000D03*
X78185000Y-87870000D03*
G04 #@! TD*
D10*
G04 #@! TO.C,SW51*
X170577500Y-112000000D03*
D11*
X175657500Y-112000000D03*
D10*
X180737500Y-112000000D03*
D12*
X171847500Y-109460000D03*
X178197500Y-106920000D03*
G04 #@! TD*
D10*
G04 #@! TO.C,SW73*
X125333750Y-150100000D03*
D11*
X130413750Y-150100000D03*
D10*
X135493750Y-150100000D03*
D12*
X126603750Y-147560000D03*
X132953750Y-145020000D03*
G04 #@! TD*
D10*
G04 #@! TO.C,SW12*
X251540000Y-50087500D03*
D11*
X256620000Y-50087500D03*
D10*
X261700000Y-50087500D03*
D12*
X252810000Y-47547500D03*
X259160000Y-45007500D03*
G04 #@! TD*
D10*
G04 #@! TO.C,SW70*
X6271250Y-150100000D03*
D11*
X11351250Y-150100000D03*
D10*
X16431250Y-150100000D03*
D12*
X7541250Y-147560000D03*
X13891250Y-145020000D03*
G04 #@! TD*
D10*
G04 #@! TO.C,SW53*
X208677500Y-112000000D03*
D11*
X213757500Y-112000000D03*
D10*
X218837500Y-112000000D03*
D12*
X209947500Y-109460000D03*
X216297500Y-106920000D03*
G04 #@! TD*
D14*
G04 #@! TO.C,D32*
X99775000Y-98350000D03*
X99775000Y-95550000D03*
G04 #@! TD*
G04 #@! TO.C,D49*
X142637500Y-117400000D03*
X142637500Y-114600000D03*
G04 #@! TD*
G04 #@! TO.C,D55*
X268843750Y-117400000D03*
X268843750Y-114600000D03*
G04 #@! TD*
G04 #@! TO.C,D70*
X16431250Y-155500000D03*
X16431250Y-152700000D03*
G04 #@! TD*
G04 #@! TO.C,D17*
X90250000Y-79300000D03*
X90250000Y-76500000D03*
G04 #@! TD*
G04 #@! TO.C,D62*
X133112500Y-136450000D03*
X133112500Y-133650000D03*
G04 #@! TD*
G04 #@! TO.C,D3*
X61675000Y-55487500D03*
X61675000Y-52687500D03*
G04 #@! TD*
G04 #@! TO.C,D42*
X304562500Y-107875000D03*
X304562500Y-105075000D03*
G04 #@! TD*
G04 #@! TO.C,D28*
X18812500Y-98350000D03*
X18812500Y-95550000D03*
G04 #@! TD*
G04 #@! TO.C,D60*
X95012500Y-136450000D03*
X95012500Y-133650000D03*
G04 #@! TD*
G04 #@! TO.C,D45*
X66437500Y-117400000D03*
X66437500Y-114600000D03*
G04 #@! TD*
G04 #@! TO.C,D12*
X261700000Y-55487500D03*
X261700000Y-52687500D03*
G04 #@! TD*
G04 #@! TO.C,D35*
X156925000Y-98350000D03*
X156925000Y-95550000D03*
G04 #@! TD*
G04 #@! TO.C,D24*
X223600000Y-79300000D03*
X223600000Y-76500000D03*
G04 #@! TD*
G04 #@! TO.C,D69*
X304562500Y-145975000D03*
X304562500Y-143175000D03*
G04 #@! TD*
G04 #@! TO.C,D72*
X64056250Y-155500000D03*
X64056250Y-152700000D03*
G04 #@! TD*
G04 #@! TO.C,D21*
X166450000Y-79300000D03*
X166450000Y-76500000D03*
G04 #@! TD*
G04 #@! TO.C,D4*
X80725000Y-55487500D03*
X80725000Y-52687500D03*
G04 #@! TD*
G04 #@! TO.C,D43*
X21193750Y-117400000D03*
X21193750Y-114600000D03*
G04 #@! TD*
G04 #@! TO.C,D63*
X152162500Y-136450000D03*
X152162500Y-133650000D03*
G04 #@! TD*
G04 #@! TO.C,D22*
X185500000Y-79300000D03*
X185500000Y-76500000D03*
G04 #@! TD*
G04 #@! TO.C,D10*
X223600000Y-55487500D03*
X223600000Y-52687500D03*
G04 #@! TD*
G04 #@! TO.C,D6*
X133112500Y-55487500D03*
X133112500Y-52687500D03*
G04 #@! TD*
G04 #@! TO.C,D75*
X230743750Y-155500000D03*
X230743750Y-152700000D03*
G04 #@! TD*
G04 #@! TO.C,D20*
X147400000Y-79300000D03*
X147400000Y-76500000D03*
G04 #@! TD*
G04 #@! TO.C,D23*
X204550000Y-79300000D03*
X204550000Y-76500000D03*
G04 #@! TD*
G04 #@! TO.C,D39*
X233125000Y-98350000D03*
X233125000Y-95550000D03*
G04 #@! TD*
G04 #@! TO.C,D71*
X40243750Y-155500000D03*
X40243750Y-152700000D03*
G04 #@! TD*
G04 #@! TO.C,D9*
X190262500Y-55487500D03*
X190262500Y-52687500D03*
G04 #@! TD*
G04 #@! TO.C,D67*
X228362500Y-136450000D03*
X228362500Y-133650000D03*
G04 #@! TD*
G04 #@! TO.C,D73*
X135493750Y-155500000D03*
X135493750Y-152700000D03*
G04 #@! TD*
G04 #@! TO.C,D40*
X252175000Y-98350000D03*
X252175000Y-95550000D03*
G04 #@! TD*
G04 #@! TO.C,D66*
X209312500Y-136450000D03*
X209312500Y-133650000D03*
G04 #@! TD*
G04 #@! TO.C,D34*
X137875000Y-98350000D03*
X137875000Y-95550000D03*
G04 #@! TD*
G04 #@! TO.C,D38*
X214075000Y-98350000D03*
X214075000Y-95550000D03*
G04 #@! TD*
G04 #@! TO.C,D44*
X47387500Y-117400000D03*
X47387500Y-114600000D03*
G04 #@! TD*
G04 #@! TO.C,D1*
X14050000Y-55487500D03*
X14050000Y-52687500D03*
G04 #@! TD*
G04 #@! TO.C,D48*
X123587500Y-117400000D03*
X123587500Y-114600000D03*
G04 #@! TD*
G04 #@! TO.C,D61*
X114062500Y-136450000D03*
X114062500Y-133650000D03*
G04 #@! TD*
G04 #@! TO.C,D77*
X278368750Y-155500000D03*
X278368750Y-152700000D03*
G04 #@! TD*
G04 #@! TO.C,D52*
X199787500Y-117400000D03*
X199787500Y-114600000D03*
G04 #@! TD*
G04 #@! TO.C,D74*
X206931250Y-155500000D03*
X206931250Y-152700000D03*
G04 #@! TD*
G04 #@! TO.C,D18*
X109300000Y-79300000D03*
X109300000Y-76500000D03*
G04 #@! TD*
G04 #@! TO.C,D58*
X56912500Y-136450000D03*
X56912500Y-133650000D03*
G04 #@! TD*
G04 #@! TO.C,D13*
X14050000Y-79300000D03*
X14050000Y-76500000D03*
G04 #@! TD*
G04 #@! TO.C,D36*
X175975000Y-98350000D03*
X175975000Y-95550000D03*
G04 #@! TD*
G04 #@! TO.C,D7*
X152162500Y-55487500D03*
X152162500Y-52687500D03*
G04 #@! TD*
G04 #@! TO.C,D51*
X180737500Y-117400000D03*
X180737500Y-114600000D03*
G04 #@! TD*
G04 #@! TO.C,D16*
X71200000Y-79300000D03*
X71200000Y-76500000D03*
G04 #@! TD*
G04 #@! TO.C,D2*
X42625000Y-55487500D03*
X42625000Y-52687500D03*
G04 #@! TD*
G04 #@! TO.C,D14*
X33100000Y-79300000D03*
X33100000Y-76500000D03*
G04 #@! TD*
G04 #@! TO.C,D68*
X264081250Y-136450000D03*
X264081250Y-133650000D03*
G04 #@! TD*
G04 #@! TO.C,D15*
X52150000Y-79300000D03*
X52150000Y-76500000D03*
G04 #@! TD*
G04 #@! TO.C,D65*
X190262500Y-136450000D03*
X190262500Y-133650000D03*
G04 #@! TD*
G04 #@! TO.C,D47*
X104537500Y-117400000D03*
X104537500Y-114600000D03*
G04 #@! TD*
G04 #@! TO.C,D56*
X304562500Y-126925000D03*
X304562500Y-124125000D03*
G04 #@! TD*
G04 #@! TO.C,D46*
X85487500Y-117400000D03*
X85487500Y-114600000D03*
G04 #@! TD*
G04 #@! TO.C,D37*
X195025000Y-98350000D03*
X195025000Y-95550000D03*
G04 #@! TD*
G04 #@! TO.C,D30*
X61675000Y-98350000D03*
X61675000Y-95550000D03*
G04 #@! TD*
G04 #@! TO.C,D33*
X118825000Y-98350000D03*
X118825000Y-95550000D03*
G04 #@! TD*
G04 #@! TO.C,D8*
X171212500Y-55487500D03*
X171212500Y-52687500D03*
G04 #@! TD*
G04 #@! TO.C,D59*
X75962500Y-136450000D03*
X75962500Y-133650000D03*
G04 #@! TD*
G04 #@! TO.C,D26*
X271225000Y-79300000D03*
X271225000Y-76500000D03*
G04 #@! TD*
G04 #@! TO.C,D54*
X237887500Y-117400000D03*
X237887500Y-114600000D03*
G04 #@! TD*
G04 #@! TO.C,D19*
X128350000Y-79300000D03*
X128350000Y-76500000D03*
G04 #@! TD*
G04 #@! TO.C,D5*
X99775000Y-55487500D03*
X99775000Y-52687500D03*
G04 #@! TD*
G04 #@! TO.C,D29*
X42625000Y-98350000D03*
X42625000Y-95550000D03*
G04 #@! TD*
G04 #@! TO.C,D76*
X254556250Y-155500000D03*
X254556250Y-152700000D03*
G04 #@! TD*
G04 #@! TO.C,D31*
X80725000Y-98350000D03*
X80725000Y-95550000D03*
G04 #@! TD*
G04 #@! TO.C,D41*
X275987500Y-98350000D03*
X275987500Y-95550000D03*
G04 #@! TD*
G04 #@! TO.C,D64*
X171212500Y-136450000D03*
X171212500Y-133650000D03*
G04 #@! TD*
G04 #@! TO.C,D53*
X218837500Y-117400000D03*
X218837500Y-114600000D03*
G04 #@! TD*
G04 #@! TO.C,D11*
X242650000Y-55487500D03*
X242650000Y-52687500D03*
G04 #@! TD*
G04 #@! TO.C,D50*
X161687500Y-117400000D03*
X161687500Y-114600000D03*
G04 #@! TD*
G04 #@! TO.C,D25*
X242650000Y-79300000D03*
X242650000Y-76500000D03*
G04 #@! TD*
G04 #@! TO.C,D27*
X304562500Y-88825000D03*
X304562500Y-86025000D03*
G04 #@! TD*
G04 #@! TO.C,D57*
X25956250Y-136450000D03*
X25956250Y-133650000D03*
G04 #@! TD*
M02*
