G04 #@! TF.GenerationSoftware,KiCad,Pcbnew,9.0.7*
G04 #@! TF.CreationDate,2026-03-08T21:49:53-07:00*
G04 #@! TF.ProjectId,customKeyboard.kicad_pcb,63757374-6f6d-44b6-9579-626f6172642e,rev?*
G04 #@! TF.SameCoordinates,Original*
G04 #@! TF.FileFunction,Copper,L2,Bot*
G04 #@! TF.FilePolarity,Positive*
%FSLAX46Y46*%
G04 Gerber Fmt 4.6, Leading zero omitted, Abs format (unit mm)*
G04 Created by KiCad (PCBNEW 9.0.7) date 2026-03-08 21:49:53*
%MOMM*%
%LPD*%
G01*
G04 APERTURE LIST*
G04 Aperture macros list*
%AMRoundRect*
0 Rectangle with rounded corners*
0 $1 Rounding radius*
0 $2 $3 $4 $5 $6 $7 $8 $9 X,Y pos of 4 corners*
0 Add a 4 corners polygon primitive as box body*
4,1,4,$2,$3,$4,$5,$6,$7,$8,$9,$2,$3,0*
0 Add four circle primitives for the rounded corners*
1,1,$1+$1,$2,$3*
1,1,$1+$1,$4,$5*
1,1,$1+$1,$6,$7*
1,1,$1+$1,$8,$9*
0 Add four rect primitives between the rounded corners*
20,1,$1+$1,$2,$3,$4,$5,0*
20,1,$1+$1,$4,$5,$6,$7,0*
20,1,$1+$1,$6,$7,$8,$9,0*
20,1,$1+$1,$8,$9,$2,$3,0*%
G04 Aperture macros list end*
G04 #@! TA.AperFunction,ComponentPad*
%ADD10C,2.500000*%
G04 #@! TD*
G04 #@! TA.AperFunction,ComponentPad*
%ADD11C,1.752600*%
G04 #@! TD*
G04 #@! TA.AperFunction,SMDPad,CuDef*
%ADD12RoundRect,0.250000X0.300000X-0.300000X0.300000X0.300000X-0.300000X0.300000X-0.300000X-0.300000X0*%
G04 #@! TD*
G04 #@! TA.AperFunction,Conductor*
%ADD13C,0.200000*%
G04 #@! TD*
G04 APERTURE END LIST*
D10*
G04 #@! TO.P,SW44,1,1*
G04 #@! TO.N,COL1*
X38497500Y-109460000D03*
G04 #@! TO.P,SW44,2,2*
G04 #@! TO.N,Net-(D44-A)*
X44847500Y-106920000D03*
G04 #@! TD*
G04 #@! TO.P,SW54,1,1*
G04 #@! TO.N,COL11*
X228997500Y-109460000D03*
G04 #@! TO.P,SW54,2,2*
G04 #@! TO.N,Net-(D54-A)*
X235347500Y-106920000D03*
G04 #@! TD*
G04 #@! TO.P,SW59,1,1*
G04 #@! TO.N,COL3*
X67072500Y-128510000D03*
G04 #@! TO.P,SW59,2,2*
G04 #@! TO.N,Net-(D59-A)*
X73422500Y-125970000D03*
G04 #@! TD*
G04 #@! TO.P,SW58,1,1*
G04 #@! TO.N,COL2*
X48022500Y-128510000D03*
G04 #@! TO.P,SW58,2,2*
G04 #@! TO.N,Net-(D58-A)*
X54372500Y-125970000D03*
G04 #@! TD*
G04 #@! TO.P,SW65,1,1*
G04 #@! TO.N,COL9*
X181372500Y-128510000D03*
G04 #@! TO.P,SW65,2,2*
G04 #@! TO.N,Net-(D65-A)*
X187722500Y-125970000D03*
G04 #@! TD*
G04 #@! TO.P,SW34,1,1*
G04 #@! TO.N,COL6*
X128985000Y-90410000D03*
G04 #@! TO.P,SW34,2,2*
G04 #@! TO.N,Net-(D34-A)*
X135335000Y-87870000D03*
G04 #@! TD*
G04 #@! TO.P,SW3,1,1*
G04 #@! TO.N,COL2*
X52785000Y-47547500D03*
G04 #@! TO.P,SW3,2,2*
G04 #@! TO.N,Net-(D3-A)*
X59135000Y-45007500D03*
G04 #@! TD*
G04 #@! TO.P,SW60,1,1*
G04 #@! TO.N,COL4*
X86122500Y-128510000D03*
G04 #@! TO.P,SW60,2,2*
G04 #@! TO.N,Net-(D60-A)*
X92472500Y-125970000D03*
G04 #@! TD*
G04 #@! TO.P,SW49,1,1*
G04 #@! TO.N,COL6*
X133747500Y-109460000D03*
G04 #@! TO.P,SW49,2,2*
G04 #@! TO.N,Net-(D49-A)*
X140097500Y-106920000D03*
G04 #@! TD*
G04 #@! TO.P,SW55,1,1*
G04 #@! TO.N,COL13*
X259953750Y-109460000D03*
G04 #@! TO.P,SW55,2,2*
G04 #@! TO.N,Net-(D55-A)*
X266303750Y-106920000D03*
G04 #@! TD*
G04 #@! TO.P,SW9,1,1*
G04 #@! TO.N,COL9*
X181372500Y-47547500D03*
G04 #@! TO.P,SW9,2,2*
G04 #@! TO.N,Net-(D9-A)*
X187722500Y-45007500D03*
G04 #@! TD*
G04 #@! TO.P,SW74,1,1*
G04 #@! TO.N,COL10*
X198041250Y-147560000D03*
G04 #@! TO.P,SW74,2,2*
G04 #@! TO.N,Net-(D74-A)*
X204391250Y-145020000D03*
G04 #@! TD*
G04 #@! TO.P,SW71,1,1*
G04 #@! TO.N,COL1*
X31353750Y-147560000D03*
G04 #@! TO.P,SW71,2,2*
G04 #@! TO.N,Net-(D71-A)*
X37703750Y-145020000D03*
G04 #@! TD*
G04 #@! TO.P,SW16,1,1*
G04 #@! TO.N,COL3*
X62310000Y-71360000D03*
G04 #@! TO.P,SW16,2,2*
G04 #@! TO.N,Net-(D16-A)*
X68660000Y-68820000D03*
G04 #@! TD*
G04 #@! TO.P,SW67,1,1*
G04 #@! TO.N,COL11*
X219472500Y-128510000D03*
G04 #@! TO.P,SW67,2,2*
G04 #@! TO.N,Net-(D67-A)*
X225822500Y-125970000D03*
G04 #@! TD*
G04 #@! TO.P,SW2,1,1*
G04 #@! TO.N,COL1*
X33735000Y-47547500D03*
G04 #@! TO.P,SW2,2,2*
G04 #@! TO.N,Net-(D2-A)*
X40085000Y-45007500D03*
G04 #@! TD*
D11*
G04 #@! TO.P,U1,1,1*
G04 #@! TO.N,COL0*
X279760000Y-38340000D03*
G04 #@! TO.P,U1,2,0*
G04 #@! TO.N,COL1*
X279760000Y-40880000D03*
G04 #@! TO.P,U1,3,GND*
G04 #@! TO.N,Net-(U1-GND-Pad3)*
X279760000Y-43420000D03*
G04 #@! TO.P,U1,4,GND*
G04 #@! TO.N,Net-(U1-GND-Pad4)*
X279760000Y-45960000D03*
G04 #@! TO.P,U1,5,2*
G04 #@! TO.N,COL2*
X279760000Y-48500000D03*
G04 #@! TO.P,U1,6,3*
G04 #@! TO.N,COL3*
X279760000Y-51040000D03*
G04 #@! TO.P,U1,7,4*
G04 #@! TO.N,COL4*
X279760000Y-53580000D03*
G04 #@! TO.P,U1,8,5*
G04 #@! TO.N,COL5*
X279760000Y-56120000D03*
G04 #@! TO.P,U1,9,6*
G04 #@! TO.N,COL6*
X279760000Y-58660000D03*
G04 #@! TO.P,U1,10,7*
G04 #@! TO.N,COL7*
X279760000Y-61200000D03*
G04 #@! TO.P,U1,11,8*
G04 #@! TO.N,COL8*
X279760000Y-63740000D03*
G04 #@! TO.P,U1,12,9*
G04 #@! TO.N,COL9*
X279760000Y-66280000D03*
G04 #@! TO.P,U1,13,10*
G04 #@! TO.N,COL10*
X295000000Y-66280000D03*
G04 #@! TO.P,U1,14,16*
G04 #@! TO.N,COL11*
X295000000Y-63740000D03*
G04 #@! TO.P,U1,15,14*
G04 #@! TO.N,ROW5*
X295000000Y-61200000D03*
G04 #@! TO.P,U1,16,15*
G04 #@! TO.N,ROW4*
X295000000Y-58660000D03*
G04 #@! TO.P,U1,17,18*
G04 #@! TO.N,ROW3*
X295000000Y-56120000D03*
G04 #@! TO.P,U1,18,19*
G04 #@! TO.N,ROW2*
X295000000Y-53580000D03*
G04 #@! TO.P,U1,19,20*
G04 #@! TO.N,ROW1*
X295000000Y-51040000D03*
G04 #@! TO.P,U1,20,21*
G04 #@! TO.N,ROW0*
X295000000Y-48500000D03*
G04 #@! TO.P,U1,21,3.3v*
G04 #@! TO.N,Net-(U1-3.3v)*
X295000000Y-45960000D03*
G04 #@! TO.P,U1,22,RST*
G04 #@! TO.N,unconnected-(U1-RST-Pad22)*
X295000000Y-43420000D03*
G04 #@! TO.P,U1,23,GND*
G04 #@! TO.N,Net-(BT1--)*
X295000000Y-40880000D03*
G04 #@! TO.P,U1,24,B+*
G04 #@! TO.N,Net-(BT1-+)*
X295000000Y-38340000D03*
G04 #@! TO.P,U1,25,1*
G04 #@! TO.N,COL12*
X282300000Y-61200000D03*
G04 #@! TO.P,U1,26,2*
G04 #@! TO.N,COL13*
X284840000Y-61200000D03*
G04 #@! TO.P,U1,27,7*
G04 #@! TO.N,COL14*
X287380000Y-61200000D03*
G04 #@! TD*
D10*
G04 #@! TO.P,SW11,1,1*
G04 #@! TO.N,COL12*
X233760000Y-47547500D03*
G04 #@! TO.P,SW11,2,2*
G04 #@! TO.N,Net-(D11-A)*
X240110000Y-45007500D03*
G04 #@! TD*
G04 #@! TO.P,SW25,1,1*
G04 #@! TO.N,COL12*
X233760000Y-71360000D03*
G04 #@! TO.P,SW25,2,2*
G04 #@! TO.N,Net-(D25-A)*
X240110000Y-68820000D03*
G04 #@! TD*
G04 #@! TO.P,SW36,1,1*
G04 #@! TO.N,COL8*
X167085000Y-90410000D03*
G04 #@! TO.P,SW36,2,2*
G04 #@! TO.N,Net-(D36-A)*
X173435000Y-87870000D03*
G04 #@! TD*
G04 #@! TO.P,SW64,1,1*
G04 #@! TO.N,COL8*
X162322500Y-128510000D03*
G04 #@! TO.P,SW64,2,2*
G04 #@! TO.N,Net-(D64-A)*
X168672500Y-125970000D03*
G04 #@! TD*
G04 #@! TO.P,SW5,1,1*
G04 #@! TO.N,COL4*
X90885000Y-47547500D03*
G04 #@! TO.P,SW5,2,2*
G04 #@! TO.N,Net-(D5-A)*
X97235000Y-45007500D03*
G04 #@! TD*
G04 #@! TO.P,SW76,1,1*
G04 #@! TO.N,COL12*
X245666250Y-147560000D03*
G04 #@! TO.P,SW76,2,2*
G04 #@! TO.N,Net-(D76-A)*
X252016250Y-145020000D03*
G04 #@! TD*
G04 #@! TO.P,SW40,1,1*
G04 #@! TO.N,COL12*
X243285000Y-90410000D03*
G04 #@! TO.P,SW40,2,2*
G04 #@! TO.N,Net-(D40-A)*
X249635000Y-87870000D03*
G04 #@! TD*
G04 #@! TO.P,SW63,1,1*
G04 #@! TO.N,COL7*
X143272500Y-128510000D03*
G04 #@! TO.P,SW63,2,2*
G04 #@! TO.N,Net-(D63-A)*
X149622500Y-125970000D03*
G04 #@! TD*
G04 #@! TO.P,SW10,1,1*
G04 #@! TO.N,COL11*
X214710000Y-47547500D03*
G04 #@! TO.P,SW10,2,2*
G04 #@! TO.N,Net-(D10-A)*
X221060000Y-45007500D03*
G04 #@! TD*
G04 #@! TO.P,SW7,1,1*
G04 #@! TO.N,COL7*
X143272500Y-47547500D03*
G04 #@! TO.P,SW7,2,2*
G04 #@! TO.N,Net-(D7-A)*
X149622500Y-45007500D03*
G04 #@! TD*
G04 #@! TO.P,SW22,1,1*
G04 #@! TO.N,COL9*
X176610000Y-71360000D03*
G04 #@! TO.P,SW22,2,2*
G04 #@! TO.N,Net-(D22-A)*
X182960000Y-68820000D03*
G04 #@! TD*
G04 #@! TO.P,SW68,1,1*
G04 #@! TO.N,COL13*
X255191250Y-128510000D03*
G04 #@! TO.P,SW68,2,2*
G04 #@! TO.N,Net-(D68-A)*
X261541250Y-125970000D03*
G04 #@! TD*
G04 #@! TO.P,SW8,1,1*
G04 #@! TO.N,COL8*
X162322500Y-47547500D03*
G04 #@! TO.P,SW8,2,2*
G04 #@! TO.N,Net-(D8-A)*
X168672500Y-45007500D03*
G04 #@! TD*
G04 #@! TO.P,SW56,1,1*
G04 #@! TO.N,COL14*
X295672500Y-118985000D03*
G04 #@! TO.P,SW56,2,2*
G04 #@! TO.N,Net-(D56-A)*
X302022500Y-116445000D03*
G04 #@! TD*
G04 #@! TO.P,SW45,1,1*
G04 #@! TO.N,COL2*
X57547500Y-109460000D03*
G04 #@! TO.P,SW45,2,2*
G04 #@! TO.N,Net-(D45-A)*
X63897500Y-106920000D03*
G04 #@! TD*
G04 #@! TO.P,SW23,1,1*
G04 #@! TO.N,COL10*
X195660000Y-71360000D03*
G04 #@! TO.P,SW23,2,2*
G04 #@! TO.N,Net-(D23-A)*
X202010000Y-68820000D03*
G04 #@! TD*
G04 #@! TO.P,SW42,1,1*
G04 #@! TO.N,COL14*
X295672500Y-99935000D03*
G04 #@! TO.P,SW42,2,2*
G04 #@! TO.N,Net-(D42-A)*
X302022500Y-97395000D03*
G04 #@! TD*
G04 #@! TO.P,SW38,1,1*
G04 #@! TO.N,COL10*
X205185000Y-90410000D03*
G04 #@! TO.P,SW38,2,2*
G04 #@! TO.N,Net-(D38-A)*
X211535000Y-87870000D03*
G04 #@! TD*
G04 #@! TO.P,SW62,1,1*
G04 #@! TO.N,COL6*
X124222500Y-128510000D03*
G04 #@! TO.P,SW62,2,2*
G04 #@! TO.N,Net-(D62-A)*
X130572500Y-125970000D03*
G04 #@! TD*
G04 #@! TO.P,SW6,1,1*
G04 #@! TO.N,COL6*
X124222500Y-47547500D03*
G04 #@! TO.P,SW6,2,2*
G04 #@! TO.N,Net-(D6-A)*
X130572500Y-45007500D03*
G04 #@! TD*
G04 #@! TO.P,SW75,1,1*
G04 #@! TO.N,COL11*
X221853750Y-147560000D03*
G04 #@! TO.P,SW75,2,2*
G04 #@! TO.N,Net-(D75-A)*
X228203750Y-145020000D03*
G04 #@! TD*
G04 #@! TO.P,SW52,1,1*
G04 #@! TO.N,COL9*
X190897500Y-109460000D03*
G04 #@! TO.P,SW52,2,2*
G04 #@! TO.N,Net-(D52-A)*
X197247500Y-106920000D03*
G04 #@! TD*
G04 #@! TO.P,SW47,1,1*
G04 #@! TO.N,COL4*
X95647500Y-109460000D03*
G04 #@! TO.P,SW47,2,2*
G04 #@! TO.N,Net-(D47-A)*
X101997500Y-106920000D03*
G04 #@! TD*
G04 #@! TO.P,SW28,1,1*
G04 #@! TO.N,COL0*
X9922500Y-90410000D03*
G04 #@! TO.P,SW28,2,2*
G04 #@! TO.N,Net-(D28-A)*
X16272500Y-87870000D03*
G04 #@! TD*
G04 #@! TO.P,SW30,1,1*
G04 #@! TO.N,COL2*
X52785000Y-90410000D03*
G04 #@! TO.P,SW30,2,2*
G04 #@! TO.N,Net-(D30-A)*
X59135000Y-87870000D03*
G04 #@! TD*
G04 #@! TO.P,SW48,1,1*
G04 #@! TO.N,COL5*
X114697500Y-109460000D03*
G04 #@! TO.P,SW48,2,2*
G04 #@! TO.N,Net-(D48-A)*
X121047500Y-106920000D03*
G04 #@! TD*
G04 #@! TO.P,SW17,1,1*
G04 #@! TO.N,COL4*
X81360000Y-71360000D03*
G04 #@! TO.P,SW17,2,2*
G04 #@! TO.N,Net-(D17-A)*
X87710000Y-68820000D03*
G04 #@! TD*
G04 #@! TO.P,SW39,1,1*
G04 #@! TO.N,COL11*
X224235000Y-90410000D03*
G04 #@! TO.P,SW39,2,2*
G04 #@! TO.N,Net-(D39-A)*
X230585000Y-87870000D03*
G04 #@! TD*
G04 #@! TO.P,SW15,1,1*
G04 #@! TO.N,COL2*
X43260000Y-71360000D03*
G04 #@! TO.P,SW15,2,2*
G04 #@! TO.N,Net-(D15-A)*
X49610000Y-68820000D03*
G04 #@! TD*
G04 #@! TO.P,SW29,1,1*
G04 #@! TO.N,COL1*
X33735000Y-90410000D03*
G04 #@! TO.P,SW29,2,2*
G04 #@! TO.N,Net-(D29-A)*
X40085000Y-87870000D03*
G04 #@! TD*
G04 #@! TO.P,SW77,1,1*
G04 #@! TO.N,COL13*
X269478750Y-147560000D03*
G04 #@! TO.P,SW77,2,2*
G04 #@! TO.N,Net-(D77-A)*
X275828750Y-145020000D03*
G04 #@! TD*
G04 #@! TO.P,SW57,1,1*
G04 #@! TO.N,COL0*
X17066250Y-128510000D03*
G04 #@! TO.P,SW57,2,2*
G04 #@! TO.N,Net-(D57-A)*
X23416250Y-125970000D03*
G04 #@! TD*
G04 #@! TO.P,SW13,1,1*
G04 #@! TO.N,COL0*
X5160000Y-71360000D03*
G04 #@! TO.P,SW13,2,2*
G04 #@! TO.N,Net-(D13-A)*
X11510000Y-68820000D03*
G04 #@! TD*
G04 #@! TO.P,SW21,1,1*
G04 #@! TO.N,COL8*
X157560000Y-71360000D03*
G04 #@! TO.P,SW21,2,2*
G04 #@! TO.N,Net-(D21-A)*
X163910000Y-68820000D03*
G04 #@! TD*
G04 #@! TO.P,SW14,1,1*
G04 #@! TO.N,COL1*
X24210000Y-71360000D03*
G04 #@! TO.P,SW14,2,2*
G04 #@! TO.N,Net-(D14-A)*
X30560000Y-68820000D03*
G04 #@! TD*
G04 #@! TO.P,SW27,1,1*
G04 #@! TO.N,COL14*
X295672500Y-80885000D03*
G04 #@! TO.P,SW27,2,2*
G04 #@! TO.N,Net-(D27-A)*
X302022500Y-78345000D03*
G04 #@! TD*
G04 #@! TO.P,SW35,1,1*
G04 #@! TO.N,COL7*
X148035000Y-90410000D03*
G04 #@! TO.P,SW35,2,2*
G04 #@! TO.N,Net-(D35-A)*
X154385000Y-87870000D03*
G04 #@! TD*
G04 #@! TO.P,SW1,1,1*
G04 #@! TO.N,COL0*
X5160000Y-47547500D03*
G04 #@! TO.P,SW1,2,2*
G04 #@! TO.N,Net-(D1-A)*
X11510000Y-45007500D03*
G04 #@! TD*
G04 #@! TO.P,SW18,1,1*
G04 #@! TO.N,COL5*
X100410000Y-71360000D03*
G04 #@! TO.P,SW18,2,2*
G04 #@! TO.N,Net-(D18-A)*
X106760000Y-68820000D03*
G04 #@! TD*
G04 #@! TO.P,SW4,1,1*
G04 #@! TO.N,COL3*
X71835000Y-47547500D03*
G04 #@! TO.P,SW4,2,2*
G04 #@! TO.N,Net-(D4-A)*
X78185000Y-45007500D03*
G04 #@! TD*
G04 #@! TO.P,SW43,1,1*
G04 #@! TO.N,COL0*
X12303750Y-109460000D03*
G04 #@! TO.P,SW43,2,2*
G04 #@! TO.N,Net-(D43-A)*
X18653750Y-106920000D03*
G04 #@! TD*
G04 #@! TO.P,SW66,1,1*
G04 #@! TO.N,COL10*
X200422500Y-128510000D03*
G04 #@! TO.P,SW66,2,2*
G04 #@! TO.N,Net-(D66-A)*
X206772500Y-125970000D03*
G04 #@! TD*
G04 #@! TO.P,SW26,1,1*
G04 #@! TO.N,COL13*
X262335000Y-71360000D03*
G04 #@! TO.P,SW26,2,2*
G04 #@! TO.N,Net-(D26-A)*
X268685000Y-68820000D03*
G04 #@! TD*
G04 #@! TO.P,SW41,1,1*
G04 #@! TO.N,COL13*
X267097500Y-90410000D03*
G04 #@! TO.P,SW41,2,2*
G04 #@! TO.N,Net-(D41-A)*
X273447500Y-87870000D03*
G04 #@! TD*
G04 #@! TO.P,SW69,1,1*
G04 #@! TO.N,COL14*
X295672500Y-138035000D03*
G04 #@! TO.P,SW69,2,2*
G04 #@! TO.N,Net-(D69-A)*
X302022500Y-135495000D03*
G04 #@! TD*
G04 #@! TO.P,SW37,1,1*
G04 #@! TO.N,COL9*
X186135000Y-90410000D03*
G04 #@! TO.P,SW37,2,2*
G04 #@! TO.N,Net-(D37-A)*
X192485000Y-87870000D03*
G04 #@! TD*
G04 #@! TO.P,SW61,1,1*
G04 #@! TO.N,COL5*
X105172500Y-128510000D03*
G04 #@! TO.P,SW61,2,2*
G04 #@! TO.N,Net-(D61-A)*
X111522500Y-125970000D03*
G04 #@! TD*
G04 #@! TO.P,SW50,1,1*
G04 #@! TO.N,COL7*
X152797500Y-109460000D03*
G04 #@! TO.P,SW50,2,2*
G04 #@! TO.N,Net-(D50-A)*
X159147500Y-106920000D03*
G04 #@! TD*
G04 #@! TO.P,SW33,1,1*
G04 #@! TO.N,COL5*
X109935000Y-90410000D03*
G04 #@! TO.P,SW33,2,2*
G04 #@! TO.N,Net-(D33-A)*
X116285000Y-87870000D03*
G04 #@! TD*
G04 #@! TO.P,SW46,1,1*
G04 #@! TO.N,COL3*
X76597500Y-109460000D03*
G04 #@! TO.P,SW46,2,2*
G04 #@! TO.N,Net-(D46-A)*
X82947500Y-106920000D03*
G04 #@! TD*
G04 #@! TO.P,SW24,1,1*
G04 #@! TO.N,COL11*
X214710000Y-71360000D03*
G04 #@! TO.P,SW24,2,2*
G04 #@! TO.N,Net-(D24-A)*
X221060000Y-68820000D03*
G04 #@! TD*
G04 #@! TO.P,SW19,1,1*
G04 #@! TO.N,COL6*
X119460000Y-71360000D03*
G04 #@! TO.P,SW19,2,2*
G04 #@! TO.N,Net-(D19-A)*
X125810000Y-68820000D03*
G04 #@! TD*
G04 #@! TO.P,SW32,1,1*
G04 #@! TO.N,COL4*
X90885000Y-90410000D03*
G04 #@! TO.P,SW32,2,2*
G04 #@! TO.N,Net-(D32-A)*
X97235000Y-87870000D03*
G04 #@! TD*
G04 #@! TO.P,SW72,1,1*
G04 #@! TO.N,COL2*
X55166250Y-147560000D03*
G04 #@! TO.P,SW72,2,2*
G04 #@! TO.N,Net-(D72-A)*
X61516250Y-145020000D03*
G04 #@! TD*
G04 #@! TO.P,SW20,1,1*
G04 #@! TO.N,COL7*
X138510000Y-71360000D03*
G04 #@! TO.P,SW20,2,2*
G04 #@! TO.N,Net-(D20-A)*
X144860000Y-68820000D03*
G04 #@! TD*
G04 #@! TO.P,SW31,1,1*
G04 #@! TO.N,COL3*
X71835000Y-90410000D03*
G04 #@! TO.P,SW31,2,2*
G04 #@! TO.N,Net-(D31-A)*
X78185000Y-87870000D03*
G04 #@! TD*
G04 #@! TO.P,SW51,1,1*
G04 #@! TO.N,COL8*
X171847500Y-109460000D03*
G04 #@! TO.P,SW51,2,2*
G04 #@! TO.N,Net-(D51-A)*
X178197500Y-106920000D03*
G04 #@! TD*
G04 #@! TO.P,SW73,1,1*
G04 #@! TO.N,COL6*
X126603750Y-147560000D03*
G04 #@! TO.P,SW73,2,2*
G04 #@! TO.N,Net-(D73-A)*
X132953750Y-145020000D03*
G04 #@! TD*
G04 #@! TO.P,SW12,1,1*
G04 #@! TO.N,COL13*
X252810000Y-47547500D03*
G04 #@! TO.P,SW12,2,2*
G04 #@! TO.N,Net-(D12-A)*
X259160000Y-45007500D03*
G04 #@! TD*
G04 #@! TO.P,SW70,1,1*
G04 #@! TO.N,COL0*
X7541250Y-147560000D03*
G04 #@! TO.P,SW70,2,2*
G04 #@! TO.N,Net-(D70-A)*
X13891250Y-145020000D03*
G04 #@! TD*
G04 #@! TO.P,SW53,1,1*
G04 #@! TO.N,COL10*
X209947500Y-109460000D03*
G04 #@! TO.P,SW53,2,2*
G04 #@! TO.N,Net-(D53-A)*
X216297500Y-106920000D03*
G04 #@! TD*
D12*
G04 #@! TO.P,D32,1,K*
G04 #@! TO.N,ROW2*
X99775000Y-98350000D03*
G04 #@! TO.P,D32,2,A*
G04 #@! TO.N,Net-(D32-A)*
X99775000Y-95550000D03*
G04 #@! TD*
G04 #@! TO.P,D49,1,K*
G04 #@! TO.N,ROW3*
X142637500Y-117400000D03*
G04 #@! TO.P,D49,2,A*
G04 #@! TO.N,Net-(D49-A)*
X142637500Y-114600000D03*
G04 #@! TD*
G04 #@! TO.P,D55,1,K*
G04 #@! TO.N,ROW3*
X268843750Y-117400000D03*
G04 #@! TO.P,D55,2,A*
G04 #@! TO.N,Net-(D55-A)*
X268843750Y-114600000D03*
G04 #@! TD*
G04 #@! TO.P,D70,1,K*
G04 #@! TO.N,ROW5*
X16431250Y-155500000D03*
G04 #@! TO.P,D70,2,A*
G04 #@! TO.N,Net-(D70-A)*
X16431250Y-152700000D03*
G04 #@! TD*
G04 #@! TO.P,D17,1,K*
G04 #@! TO.N,ROW1*
X90250000Y-79300000D03*
G04 #@! TO.P,D17,2,A*
G04 #@! TO.N,Net-(D17-A)*
X90250000Y-76500000D03*
G04 #@! TD*
G04 #@! TO.P,D62,1,K*
G04 #@! TO.N,ROW4*
X133112500Y-136450000D03*
G04 #@! TO.P,D62,2,A*
G04 #@! TO.N,Net-(D62-A)*
X133112500Y-133650000D03*
G04 #@! TD*
G04 #@! TO.P,D3,1,K*
G04 #@! TO.N,ROW0*
X61675000Y-55487500D03*
G04 #@! TO.P,D3,2,A*
G04 #@! TO.N,Net-(D3-A)*
X61675000Y-52687500D03*
G04 #@! TD*
G04 #@! TO.P,D42,1,K*
G04 #@! TO.N,ROW2*
X304562500Y-107875000D03*
G04 #@! TO.P,D42,2,A*
G04 #@! TO.N,Net-(D42-A)*
X304562500Y-105075000D03*
G04 #@! TD*
G04 #@! TO.P,D28,1,K*
G04 #@! TO.N,ROW2*
X18812500Y-98350000D03*
G04 #@! TO.P,D28,2,A*
G04 #@! TO.N,Net-(D28-A)*
X18812500Y-95550000D03*
G04 #@! TD*
G04 #@! TO.P,D60,1,K*
G04 #@! TO.N,ROW4*
X95012500Y-136450000D03*
G04 #@! TO.P,D60,2,A*
G04 #@! TO.N,Net-(D60-A)*
X95012500Y-133650000D03*
G04 #@! TD*
G04 #@! TO.P,D45,1,K*
G04 #@! TO.N,ROW3*
X66437500Y-117400000D03*
G04 #@! TO.P,D45,2,A*
G04 #@! TO.N,Net-(D45-A)*
X66437500Y-114600000D03*
G04 #@! TD*
G04 #@! TO.P,D12,1,K*
G04 #@! TO.N,ROW0*
X261700000Y-55487500D03*
G04 #@! TO.P,D12,2,A*
G04 #@! TO.N,Net-(D12-A)*
X261700000Y-52687500D03*
G04 #@! TD*
G04 #@! TO.P,D35,1,K*
G04 #@! TO.N,ROW2*
X156925000Y-98350000D03*
G04 #@! TO.P,D35,2,A*
G04 #@! TO.N,Net-(D35-A)*
X156925000Y-95550000D03*
G04 #@! TD*
G04 #@! TO.P,D24,1,K*
G04 #@! TO.N,ROW1*
X223600000Y-79300000D03*
G04 #@! TO.P,D24,2,A*
G04 #@! TO.N,Net-(D24-A)*
X223600000Y-76500000D03*
G04 #@! TD*
G04 #@! TO.P,D69,1,K*
G04 #@! TO.N,ROW4*
X304562500Y-145975000D03*
G04 #@! TO.P,D69,2,A*
G04 #@! TO.N,Net-(D69-A)*
X304562500Y-143175000D03*
G04 #@! TD*
G04 #@! TO.P,D72,1,K*
G04 #@! TO.N,ROW5*
X64056250Y-155500000D03*
G04 #@! TO.P,D72,2,A*
G04 #@! TO.N,Net-(D72-A)*
X64056250Y-152700000D03*
G04 #@! TD*
G04 #@! TO.P,D21,1,K*
G04 #@! TO.N,ROW1*
X166450000Y-79300000D03*
G04 #@! TO.P,D21,2,A*
G04 #@! TO.N,Net-(D21-A)*
X166450000Y-76500000D03*
G04 #@! TD*
G04 #@! TO.P,D4,1,K*
G04 #@! TO.N,ROW0*
X80725000Y-55487500D03*
G04 #@! TO.P,D4,2,A*
G04 #@! TO.N,Net-(D4-A)*
X80725000Y-52687500D03*
G04 #@! TD*
G04 #@! TO.P,D43,1,K*
G04 #@! TO.N,ROW3*
X21193750Y-117400000D03*
G04 #@! TO.P,D43,2,A*
G04 #@! TO.N,Net-(D43-A)*
X21193750Y-114600000D03*
G04 #@! TD*
G04 #@! TO.P,D63,1,K*
G04 #@! TO.N,ROW4*
X152162500Y-136450000D03*
G04 #@! TO.P,D63,2,A*
G04 #@! TO.N,Net-(D63-A)*
X152162500Y-133650000D03*
G04 #@! TD*
G04 #@! TO.P,D22,1,K*
G04 #@! TO.N,ROW1*
X185500000Y-79300000D03*
G04 #@! TO.P,D22,2,A*
G04 #@! TO.N,Net-(D22-A)*
X185500000Y-76500000D03*
G04 #@! TD*
G04 #@! TO.P,D10,1,K*
G04 #@! TO.N,ROW0*
X223600000Y-55487500D03*
G04 #@! TO.P,D10,2,A*
G04 #@! TO.N,Net-(D10-A)*
X223600000Y-52687500D03*
G04 #@! TD*
G04 #@! TO.P,D6,1,K*
G04 #@! TO.N,ROW0*
X133112500Y-55487500D03*
G04 #@! TO.P,D6,2,A*
G04 #@! TO.N,Net-(D6-A)*
X133112500Y-52687500D03*
G04 #@! TD*
G04 #@! TO.P,D75,1,K*
G04 #@! TO.N,ROW5*
X230743750Y-155500000D03*
G04 #@! TO.P,D75,2,A*
G04 #@! TO.N,Net-(D75-A)*
X230743750Y-152700000D03*
G04 #@! TD*
G04 #@! TO.P,D20,1,K*
G04 #@! TO.N,ROW1*
X147400000Y-79300000D03*
G04 #@! TO.P,D20,2,A*
G04 #@! TO.N,Net-(D20-A)*
X147400000Y-76500000D03*
G04 #@! TD*
G04 #@! TO.P,D23,1,K*
G04 #@! TO.N,ROW1*
X204550000Y-79300000D03*
G04 #@! TO.P,D23,2,A*
G04 #@! TO.N,Net-(D23-A)*
X204550000Y-76500000D03*
G04 #@! TD*
G04 #@! TO.P,D39,1,K*
G04 #@! TO.N,ROW2*
X233125000Y-98350000D03*
G04 #@! TO.P,D39,2,A*
G04 #@! TO.N,Net-(D39-A)*
X233125000Y-95550000D03*
G04 #@! TD*
G04 #@! TO.P,D71,1,K*
G04 #@! TO.N,ROW5*
X40243750Y-155500000D03*
G04 #@! TO.P,D71,2,A*
G04 #@! TO.N,Net-(D71-A)*
X40243750Y-152700000D03*
G04 #@! TD*
G04 #@! TO.P,D9,1,K*
G04 #@! TO.N,ROW0*
X190262500Y-55487500D03*
G04 #@! TO.P,D9,2,A*
G04 #@! TO.N,Net-(D9-A)*
X190262500Y-52687500D03*
G04 #@! TD*
G04 #@! TO.P,D67,1,K*
G04 #@! TO.N,ROW4*
X228362500Y-136450000D03*
G04 #@! TO.P,D67,2,A*
G04 #@! TO.N,Net-(D67-A)*
X228362500Y-133650000D03*
G04 #@! TD*
G04 #@! TO.P,D73,1,K*
G04 #@! TO.N,ROW5*
X135493750Y-155500000D03*
G04 #@! TO.P,D73,2,A*
G04 #@! TO.N,Net-(D73-A)*
X135493750Y-152700000D03*
G04 #@! TD*
G04 #@! TO.P,D40,1,K*
G04 #@! TO.N,ROW2*
X252175000Y-98350000D03*
G04 #@! TO.P,D40,2,A*
G04 #@! TO.N,Net-(D40-A)*
X252175000Y-95550000D03*
G04 #@! TD*
G04 #@! TO.P,D66,1,K*
G04 #@! TO.N,ROW4*
X209312500Y-136450000D03*
G04 #@! TO.P,D66,2,A*
G04 #@! TO.N,Net-(D66-A)*
X209312500Y-133650000D03*
G04 #@! TD*
G04 #@! TO.P,D34,1,K*
G04 #@! TO.N,ROW2*
X137875000Y-98350000D03*
G04 #@! TO.P,D34,2,A*
G04 #@! TO.N,Net-(D34-A)*
X137875000Y-95550000D03*
G04 #@! TD*
G04 #@! TO.P,D38,1,K*
G04 #@! TO.N,ROW2*
X214075000Y-98350000D03*
G04 #@! TO.P,D38,2,A*
G04 #@! TO.N,Net-(D38-A)*
X214075000Y-95550000D03*
G04 #@! TD*
G04 #@! TO.P,D44,1,K*
G04 #@! TO.N,ROW3*
X47387500Y-117400000D03*
G04 #@! TO.P,D44,2,A*
G04 #@! TO.N,Net-(D44-A)*
X47387500Y-114600000D03*
G04 #@! TD*
G04 #@! TO.P,D1,1,K*
G04 #@! TO.N,ROW0*
X14050000Y-55487500D03*
G04 #@! TO.P,D1,2,A*
G04 #@! TO.N,Net-(D1-A)*
X14050000Y-52687500D03*
G04 #@! TD*
G04 #@! TO.P,D48,1,K*
G04 #@! TO.N,ROW3*
X123587500Y-117400000D03*
G04 #@! TO.P,D48,2,A*
G04 #@! TO.N,Net-(D48-A)*
X123587500Y-114600000D03*
G04 #@! TD*
G04 #@! TO.P,D61,1,K*
G04 #@! TO.N,ROW4*
X114062500Y-136450000D03*
G04 #@! TO.P,D61,2,A*
G04 #@! TO.N,Net-(D61-A)*
X114062500Y-133650000D03*
G04 #@! TD*
G04 #@! TO.P,D77,1,K*
G04 #@! TO.N,ROW5*
X278368750Y-155500000D03*
G04 #@! TO.P,D77,2,A*
G04 #@! TO.N,Net-(D77-A)*
X278368750Y-152700000D03*
G04 #@! TD*
G04 #@! TO.P,D52,1,K*
G04 #@! TO.N,ROW3*
X199787500Y-117400000D03*
G04 #@! TO.P,D52,2,A*
G04 #@! TO.N,Net-(D52-A)*
X199787500Y-114600000D03*
G04 #@! TD*
G04 #@! TO.P,D74,1,K*
G04 #@! TO.N,ROW5*
X206931250Y-155500000D03*
G04 #@! TO.P,D74,2,A*
G04 #@! TO.N,Net-(D74-A)*
X206931250Y-152700000D03*
G04 #@! TD*
G04 #@! TO.P,D18,1,K*
G04 #@! TO.N,ROW1*
X109300000Y-79300000D03*
G04 #@! TO.P,D18,2,A*
G04 #@! TO.N,Net-(D18-A)*
X109300000Y-76500000D03*
G04 #@! TD*
G04 #@! TO.P,D58,1,K*
G04 #@! TO.N,ROW4*
X56912500Y-136450000D03*
G04 #@! TO.P,D58,2,A*
G04 #@! TO.N,Net-(D58-A)*
X56912500Y-133650000D03*
G04 #@! TD*
G04 #@! TO.P,D13,1,K*
G04 #@! TO.N,ROW1*
X14050000Y-79300000D03*
G04 #@! TO.P,D13,2,A*
G04 #@! TO.N,Net-(D13-A)*
X14050000Y-76500000D03*
G04 #@! TD*
G04 #@! TO.P,D36,1,K*
G04 #@! TO.N,ROW2*
X175975000Y-98350000D03*
G04 #@! TO.P,D36,2,A*
G04 #@! TO.N,Net-(D36-A)*
X175975000Y-95550000D03*
G04 #@! TD*
G04 #@! TO.P,D7,1,K*
G04 #@! TO.N,ROW0*
X152162500Y-55487500D03*
G04 #@! TO.P,D7,2,A*
G04 #@! TO.N,Net-(D7-A)*
X152162500Y-52687500D03*
G04 #@! TD*
G04 #@! TO.P,D51,1,K*
G04 #@! TO.N,ROW3*
X180737500Y-117400000D03*
G04 #@! TO.P,D51,2,A*
G04 #@! TO.N,Net-(D51-A)*
X180737500Y-114600000D03*
G04 #@! TD*
G04 #@! TO.P,D16,1,K*
G04 #@! TO.N,ROW1*
X71200000Y-79300000D03*
G04 #@! TO.P,D16,2,A*
G04 #@! TO.N,Net-(D16-A)*
X71200000Y-76500000D03*
G04 #@! TD*
G04 #@! TO.P,D2,1,K*
G04 #@! TO.N,ROW0*
X42625000Y-55487500D03*
G04 #@! TO.P,D2,2,A*
G04 #@! TO.N,Net-(D2-A)*
X42625000Y-52687500D03*
G04 #@! TD*
G04 #@! TO.P,D14,1,K*
G04 #@! TO.N,ROW1*
X33100000Y-79300000D03*
G04 #@! TO.P,D14,2,A*
G04 #@! TO.N,Net-(D14-A)*
X33100000Y-76500000D03*
G04 #@! TD*
G04 #@! TO.P,D68,1,K*
G04 #@! TO.N,ROW4*
X264081250Y-136450000D03*
G04 #@! TO.P,D68,2,A*
G04 #@! TO.N,Net-(D68-A)*
X264081250Y-133650000D03*
G04 #@! TD*
G04 #@! TO.P,D15,1,K*
G04 #@! TO.N,ROW1*
X52150000Y-79300000D03*
G04 #@! TO.P,D15,2,A*
G04 #@! TO.N,Net-(D15-A)*
X52150000Y-76500000D03*
G04 #@! TD*
G04 #@! TO.P,D65,1,K*
G04 #@! TO.N,ROW4*
X190262500Y-136450000D03*
G04 #@! TO.P,D65,2,A*
G04 #@! TO.N,Net-(D65-A)*
X190262500Y-133650000D03*
G04 #@! TD*
G04 #@! TO.P,D47,1,K*
G04 #@! TO.N,ROW3*
X104537500Y-117400000D03*
G04 #@! TO.P,D47,2,A*
G04 #@! TO.N,Net-(D47-A)*
X104537500Y-114600000D03*
G04 #@! TD*
G04 #@! TO.P,D56,1,K*
G04 #@! TO.N,ROW3*
X304562500Y-126925000D03*
G04 #@! TO.P,D56,2,A*
G04 #@! TO.N,Net-(D56-A)*
X304562500Y-124125000D03*
G04 #@! TD*
G04 #@! TO.P,D46,1,K*
G04 #@! TO.N,ROW3*
X85487500Y-117400000D03*
G04 #@! TO.P,D46,2,A*
G04 #@! TO.N,Net-(D46-A)*
X85487500Y-114600000D03*
G04 #@! TD*
G04 #@! TO.P,D37,1,K*
G04 #@! TO.N,ROW2*
X195025000Y-98350000D03*
G04 #@! TO.P,D37,2,A*
G04 #@! TO.N,Net-(D37-A)*
X195025000Y-95550000D03*
G04 #@! TD*
G04 #@! TO.P,D30,1,K*
G04 #@! TO.N,ROW2*
X61675000Y-98350000D03*
G04 #@! TO.P,D30,2,A*
G04 #@! TO.N,Net-(D30-A)*
X61675000Y-95550000D03*
G04 #@! TD*
G04 #@! TO.P,D33,1,K*
G04 #@! TO.N,ROW2*
X118825000Y-98350000D03*
G04 #@! TO.P,D33,2,A*
G04 #@! TO.N,Net-(D33-A)*
X118825000Y-95550000D03*
G04 #@! TD*
G04 #@! TO.P,D8,1,K*
G04 #@! TO.N,ROW0*
X171212500Y-55487500D03*
G04 #@! TO.P,D8,2,A*
G04 #@! TO.N,Net-(D8-A)*
X171212500Y-52687500D03*
G04 #@! TD*
G04 #@! TO.P,D59,1,K*
G04 #@! TO.N,ROW4*
X75962500Y-136450000D03*
G04 #@! TO.P,D59,2,A*
G04 #@! TO.N,Net-(D59-A)*
X75962500Y-133650000D03*
G04 #@! TD*
G04 #@! TO.P,D26,1,K*
G04 #@! TO.N,ROW1*
X271225000Y-79300000D03*
G04 #@! TO.P,D26,2,A*
G04 #@! TO.N,Net-(D26-A)*
X271225000Y-76500000D03*
G04 #@! TD*
G04 #@! TO.P,D54,1,K*
G04 #@! TO.N,ROW3*
X237887500Y-117400000D03*
G04 #@! TO.P,D54,2,A*
G04 #@! TO.N,Net-(D54-A)*
X237887500Y-114600000D03*
G04 #@! TD*
G04 #@! TO.P,D19,1,K*
G04 #@! TO.N,ROW1*
X128350000Y-79300000D03*
G04 #@! TO.P,D19,2,A*
G04 #@! TO.N,Net-(D19-A)*
X128350000Y-76500000D03*
G04 #@! TD*
G04 #@! TO.P,D5,1,K*
G04 #@! TO.N,ROW0*
X99775000Y-55487500D03*
G04 #@! TO.P,D5,2,A*
G04 #@! TO.N,Net-(D5-A)*
X99775000Y-52687500D03*
G04 #@! TD*
G04 #@! TO.P,D29,1,K*
G04 #@! TO.N,ROW2*
X42625000Y-98350000D03*
G04 #@! TO.P,D29,2,A*
G04 #@! TO.N,Net-(D29-A)*
X42625000Y-95550000D03*
G04 #@! TD*
G04 #@! TO.P,D76,1,K*
G04 #@! TO.N,ROW5*
X254556250Y-155500000D03*
G04 #@! TO.P,D76,2,A*
G04 #@! TO.N,Net-(D76-A)*
X254556250Y-152700000D03*
G04 #@! TD*
G04 #@! TO.P,D31,1,K*
G04 #@! TO.N,ROW2*
X80725000Y-98350000D03*
G04 #@! TO.P,D31,2,A*
G04 #@! TO.N,Net-(D31-A)*
X80725000Y-95550000D03*
G04 #@! TD*
G04 #@! TO.P,D41,1,K*
G04 #@! TO.N,ROW2*
X275987500Y-98350000D03*
G04 #@! TO.P,D41,2,A*
G04 #@! TO.N,Net-(D41-A)*
X275987500Y-95550000D03*
G04 #@! TD*
G04 #@! TO.P,D64,1,K*
G04 #@! TO.N,ROW4*
X171212500Y-136450000D03*
G04 #@! TO.P,D64,2,A*
G04 #@! TO.N,Net-(D64-A)*
X171212500Y-133650000D03*
G04 #@! TD*
G04 #@! TO.P,D53,1,K*
G04 #@! TO.N,ROW3*
X218837500Y-117400000D03*
G04 #@! TO.P,D53,2,A*
G04 #@! TO.N,Net-(D53-A)*
X218837500Y-114600000D03*
G04 #@! TD*
G04 #@! TO.P,D11,1,K*
G04 #@! TO.N,ROW0*
X242650000Y-55487500D03*
G04 #@! TO.P,D11,2,A*
G04 #@! TO.N,Net-(D11-A)*
X242650000Y-52687500D03*
G04 #@! TD*
G04 #@! TO.P,D50,1,K*
G04 #@! TO.N,ROW3*
X161687500Y-117400000D03*
G04 #@! TO.P,D50,2,A*
G04 #@! TO.N,Net-(D50-A)*
X161687500Y-114600000D03*
G04 #@! TD*
G04 #@! TO.P,D25,1,K*
G04 #@! TO.N,ROW1*
X242650000Y-79300000D03*
G04 #@! TO.P,D25,2,A*
G04 #@! TO.N,Net-(D25-A)*
X242650000Y-76500000D03*
G04 #@! TD*
G04 #@! TO.P,D27,1,K*
G04 #@! TO.N,ROW1*
X304562500Y-88825000D03*
G04 #@! TO.P,D27,2,A*
G04 #@! TO.N,Net-(D27-A)*
X304562500Y-86025000D03*
G04 #@! TD*
G04 #@! TO.P,D57,1,K*
G04 #@! TO.N,ROW4*
X25956250Y-136450000D03*
G04 #@! TO.P,D57,2,A*
G04 #@! TO.N,Net-(D57-A)*
X25956250Y-133650000D03*
G04 #@! TD*
D13*
G04 #@! TO.N,ROW0*
X42625000Y-55487500D02*
X61675000Y-55487500D01*
X99775000Y-55487500D02*
X133112500Y-55487500D01*
X152162500Y-55487500D02*
X171212500Y-55487500D01*
X61675000Y-55487500D02*
X80725000Y-55487500D01*
X171212500Y-55487500D02*
X190262500Y-55487500D01*
X14050000Y-55487500D02*
X42625000Y-55487500D01*
X223600000Y-55487500D02*
X242650000Y-55487500D01*
X133112500Y-55487500D02*
X152162500Y-55487500D01*
X80725000Y-55487500D02*
X99775000Y-55487500D01*
X242650000Y-55487500D02*
X261700000Y-55487500D01*
X190262500Y-55487500D02*
X223600000Y-55487500D01*
G04 #@! TO.N,Net-(D1-A)*
X11510000Y-45007500D02*
X11510000Y-50147500D01*
X11510000Y-50147500D02*
X14050000Y-52687500D01*
G04 #@! TO.N,Net-(D2-A)*
X40085000Y-50147500D02*
X42625000Y-52687500D01*
X40085000Y-45007500D02*
X40085000Y-50147500D01*
G04 #@! TO.N,Net-(D3-A)*
X59135000Y-45007500D02*
X59135000Y-50147500D01*
X59135000Y-50147500D02*
X61675000Y-52687500D01*
G04 #@! TO.N,Net-(D4-A)*
X78185000Y-45007500D02*
X78185000Y-50147500D01*
X78185000Y-50147500D02*
X80725000Y-52687500D01*
G04 #@! TO.N,Net-(D5-A)*
X97235000Y-50147500D02*
X99775000Y-52687500D01*
X97235000Y-45007500D02*
X97235000Y-50147500D01*
G04 #@! TO.N,Net-(D6-A)*
X130572500Y-50147500D02*
X133112500Y-52687500D01*
X130572500Y-45007500D02*
X130572500Y-50147500D01*
G04 #@! TO.N,Net-(D7-A)*
X149622500Y-45007500D02*
X149622500Y-50147500D01*
X149622500Y-50147500D02*
X152162500Y-52687500D01*
G04 #@! TO.N,Net-(D8-A)*
X168672500Y-45007500D02*
X168672500Y-50147500D01*
X168672500Y-50147500D02*
X171212500Y-52687500D01*
G04 #@! TO.N,Net-(D9-A)*
X187722500Y-45007500D02*
X187722500Y-50147500D01*
X187722500Y-50147500D02*
X190262500Y-52687500D01*
G04 #@! TO.N,Net-(D10-A)*
X221060000Y-50147500D02*
X223600000Y-52687500D01*
X221060000Y-45007500D02*
X221060000Y-50147500D01*
G04 #@! TO.N,Net-(D11-A)*
X240110000Y-45007500D02*
X240110000Y-50147500D01*
X240110000Y-50147500D02*
X242650000Y-52687500D01*
G04 #@! TO.N,Net-(D12-A)*
X259160000Y-45007500D02*
X259160000Y-50147500D01*
X259160000Y-50147500D02*
X261700000Y-52687500D01*
G04 #@! TO.N,ROW1*
X90250000Y-79300000D02*
X109300000Y-79300000D01*
X33100000Y-79300000D02*
X52150000Y-79300000D01*
X52150000Y-79300000D02*
X71200000Y-79300000D01*
X185500000Y-79300000D02*
X204550000Y-79300000D01*
X280750000Y-88825000D02*
X304562500Y-88825000D01*
X147400000Y-79300000D02*
X166450000Y-79300000D01*
X271225000Y-79300000D02*
X280750000Y-88825000D01*
X14050000Y-79300000D02*
X33100000Y-79300000D01*
X242650000Y-79300000D02*
X271225000Y-79300000D01*
X71200000Y-79300000D02*
X90250000Y-79300000D01*
X204550000Y-79300000D02*
X223600000Y-79300000D01*
X109300000Y-79300000D02*
X128350000Y-79300000D01*
X128350000Y-79300000D02*
X147400000Y-79300000D01*
X223600000Y-79300000D02*
X242650000Y-79300000D01*
X166450000Y-79300000D02*
X185500000Y-79300000D01*
G04 #@! TO.N,Net-(D13-A)*
X11510000Y-68820000D02*
X11510000Y-73960000D01*
X11510000Y-73960000D02*
X14050000Y-76500000D01*
G04 #@! TO.N,Net-(D14-A)*
X30560000Y-73960000D02*
X33100000Y-76500000D01*
X30560000Y-68820000D02*
X30560000Y-73960000D01*
G04 #@! TO.N,Net-(D15-A)*
X49610000Y-68820000D02*
X49610000Y-73960000D01*
X49610000Y-73960000D02*
X52150000Y-76500000D01*
G04 #@! TO.N,Net-(D16-A)*
X68660000Y-68820000D02*
X68660000Y-73960000D01*
X68660000Y-73960000D02*
X71200000Y-76500000D01*
G04 #@! TO.N,Net-(D17-A)*
X87710000Y-68820000D02*
X87710000Y-73960000D01*
X87710000Y-73960000D02*
X90250000Y-76500000D01*
G04 #@! TO.N,Net-(D18-A)*
X106760000Y-73960000D02*
X109300000Y-76500000D01*
X106760000Y-68820000D02*
X106760000Y-73960000D01*
G04 #@! TO.N,Net-(D19-A)*
X125810000Y-68820000D02*
X125810000Y-73960000D01*
X125810000Y-73960000D02*
X128350000Y-76500000D01*
G04 #@! TO.N,Net-(D20-A)*
X144860000Y-68820000D02*
X144860000Y-73960000D01*
X144860000Y-73960000D02*
X147400000Y-76500000D01*
G04 #@! TO.N,Net-(D21-A)*
X163910000Y-68820000D02*
X163910000Y-73960000D01*
X163910000Y-73960000D02*
X166450000Y-76500000D01*
G04 #@! TO.N,Net-(D22-A)*
X182960000Y-73960000D02*
X185500000Y-76500000D01*
X182960000Y-68820000D02*
X182960000Y-73960000D01*
G04 #@! TO.N,Net-(D23-A)*
X202010000Y-73960000D02*
X204550000Y-76500000D01*
X202010000Y-68820000D02*
X202010000Y-73960000D01*
G04 #@! TO.N,Net-(D24-A)*
X221060000Y-73960000D02*
X223600000Y-76500000D01*
X221060000Y-68820000D02*
X221060000Y-73960000D01*
G04 #@! TO.N,Net-(D25-A)*
X240110000Y-68820000D02*
X240110000Y-73960000D01*
X240110000Y-73960000D02*
X242650000Y-76500000D01*
G04 #@! TO.N,Net-(D26-A)*
X268685000Y-73960000D02*
X271225000Y-76500000D01*
X268685000Y-68820000D02*
X268685000Y-73960000D01*
G04 #@! TO.N,Net-(D27-A)*
X302022500Y-83485000D02*
X304562500Y-86025000D01*
X302022500Y-78345000D02*
X302022500Y-83485000D01*
G04 #@! TO.N,Net-(D28-A)*
X16272500Y-87870000D02*
X16272500Y-93010000D01*
X16272500Y-93010000D02*
X18812500Y-95550000D01*
G04 #@! TO.N,ROW2*
X118825000Y-98350000D02*
X137875000Y-98350000D01*
X137875000Y-98350000D02*
X156925000Y-98350000D01*
X233125000Y-98350000D02*
X252175000Y-98350000D01*
X156925000Y-98350000D02*
X175975000Y-98350000D01*
X18812500Y-98350000D02*
X42625000Y-98350000D01*
X80725000Y-98350000D02*
X99775000Y-98350000D01*
X195025000Y-98350000D02*
X214075000Y-98350000D01*
X42625000Y-98350000D02*
X61675000Y-98350000D01*
X252175000Y-98350000D02*
X275987500Y-98350000D01*
X214075000Y-98350000D02*
X233125000Y-98350000D01*
X99775000Y-98350000D02*
X118825000Y-98350000D01*
X61675000Y-98350000D02*
X80725000Y-98350000D01*
X175975000Y-98350000D02*
X195025000Y-98350000D01*
X275987500Y-98350000D02*
X285512500Y-107875000D01*
X285512500Y-107875000D02*
X304562500Y-107875000D01*
G04 #@! TO.N,Net-(D29-A)*
X40085000Y-93010000D02*
X42625000Y-95550000D01*
X40085000Y-87870000D02*
X40085000Y-93010000D01*
G04 #@! TO.N,Net-(D30-A)*
X59135000Y-93010000D02*
X61675000Y-95550000D01*
X59135000Y-87870000D02*
X59135000Y-93010000D01*
G04 #@! TO.N,Net-(D31-A)*
X78185000Y-87870000D02*
X78185000Y-93010000D01*
X78185000Y-93010000D02*
X80725000Y-95550000D01*
G04 #@! TO.N,Net-(D32-A)*
X97235000Y-87870000D02*
X97235000Y-93010000D01*
X97235000Y-93010000D02*
X99775000Y-95550000D01*
G04 #@! TO.N,Net-(D33-A)*
X116285000Y-87870000D02*
X116285000Y-93010000D01*
X116285000Y-93010000D02*
X118825000Y-95550000D01*
G04 #@! TO.N,Net-(D34-A)*
X135335000Y-87870000D02*
X135335000Y-93010000D01*
X135335000Y-93010000D02*
X137875000Y-95550000D01*
G04 #@! TO.N,Net-(D35-A)*
X154385000Y-93010000D02*
X156925000Y-95550000D01*
X154385000Y-87870000D02*
X154385000Y-93010000D01*
G04 #@! TO.N,Net-(D36-A)*
X173435000Y-93010000D02*
X175975000Y-95550000D01*
X173435000Y-87870000D02*
X173435000Y-93010000D01*
G04 #@! TO.N,Net-(D37-A)*
X192485000Y-93010000D02*
X195025000Y-95550000D01*
X192485000Y-87870000D02*
X192485000Y-93010000D01*
G04 #@! TO.N,Net-(D38-A)*
X211535000Y-93010000D02*
X214075000Y-95550000D01*
X211535000Y-87870000D02*
X211535000Y-93010000D01*
G04 #@! TO.N,Net-(D39-A)*
X230585000Y-87870000D02*
X230585000Y-93010000D01*
X230585000Y-93010000D02*
X233125000Y-95550000D01*
G04 #@! TO.N,Net-(D40-A)*
X249635000Y-87870000D02*
X249635000Y-93010000D01*
X249635000Y-93010000D02*
X252175000Y-95550000D01*
G04 #@! TO.N,Net-(D41-A)*
X273447500Y-93010000D02*
X275987500Y-95550000D01*
X273447500Y-87870000D02*
X273447500Y-93010000D01*
G04 #@! TO.N,Net-(D42-A)*
X302022500Y-102535000D02*
X304562500Y-105075000D01*
X302022500Y-97395000D02*
X302022500Y-102535000D01*
G04 #@! TO.N,Net-(D43-A)*
X18653750Y-112060000D02*
X21193750Y-114600000D01*
X18653750Y-106920000D02*
X18653750Y-112060000D01*
G04 #@! TO.N,ROW3*
X199787500Y-117400000D02*
X218837500Y-117400000D01*
X268843750Y-117400000D02*
X278368750Y-126925000D01*
X123587500Y-117400000D02*
X142637500Y-117400000D01*
X218837500Y-117400000D02*
X237887500Y-117400000D01*
X237887500Y-117400000D02*
X268843750Y-117400000D01*
X47387500Y-117400000D02*
X66437500Y-117400000D01*
X66437500Y-117400000D02*
X85487500Y-117400000D01*
X21193750Y-117400000D02*
X47387500Y-117400000D01*
X161687500Y-117400000D02*
X180737500Y-117400000D01*
X180737500Y-117400000D02*
X199787500Y-117400000D01*
X142637500Y-117400000D02*
X161687500Y-117400000D01*
X104537500Y-117400000D02*
X123587500Y-117400000D01*
X278368750Y-126925000D02*
X304562500Y-126925000D01*
X85487500Y-117400000D02*
X104537500Y-117400000D01*
G04 #@! TO.N,Net-(D44-A)*
X44847500Y-106920000D02*
X44847500Y-112060000D01*
X44847500Y-112060000D02*
X47387500Y-114600000D01*
G04 #@! TO.N,Net-(D45-A)*
X63897500Y-106920000D02*
X63897500Y-112060000D01*
X63897500Y-112060000D02*
X66437500Y-114600000D01*
G04 #@! TO.N,Net-(D46-A)*
X82947500Y-106920000D02*
X82947500Y-112060000D01*
X82947500Y-112060000D02*
X85487500Y-114600000D01*
G04 #@! TO.N,Net-(D47-A)*
X101997500Y-106920000D02*
X101997500Y-112060000D01*
X101997500Y-112060000D02*
X104537500Y-114600000D01*
G04 #@! TO.N,Net-(D48-A)*
X121047500Y-112060000D02*
X123587500Y-114600000D01*
X121047500Y-106920000D02*
X121047500Y-112060000D01*
G04 #@! TO.N,Net-(D49-A)*
X140097500Y-112060000D02*
X142637500Y-114600000D01*
X140097500Y-106920000D02*
X140097500Y-112060000D01*
G04 #@! TO.N,Net-(D50-A)*
X159147500Y-112060000D02*
X161687500Y-114600000D01*
X159147500Y-106920000D02*
X159147500Y-112060000D01*
G04 #@! TO.N,Net-(D51-A)*
X178197500Y-106920000D02*
X178197500Y-112060000D01*
X178197500Y-112060000D02*
X180737500Y-114600000D01*
G04 #@! TO.N,Net-(D52-A)*
X197247500Y-112060000D02*
X199787500Y-114600000D01*
X197247500Y-106920000D02*
X197247500Y-112060000D01*
G04 #@! TO.N,Net-(D53-A)*
X216297500Y-106920000D02*
X216297500Y-112060000D01*
X216297500Y-112060000D02*
X218837500Y-114600000D01*
G04 #@! TO.N,Net-(D54-A)*
X235347500Y-112060000D02*
X237887500Y-114600000D01*
X235347500Y-106920000D02*
X235347500Y-112060000D01*
G04 #@! TO.N,Net-(D55-A)*
X266303750Y-106920000D02*
X266303750Y-112060000D01*
X266303750Y-112060000D02*
X268843750Y-114600000D01*
G04 #@! TO.N,Net-(D56-A)*
X302022500Y-116445000D02*
X302022500Y-121585000D01*
X302022500Y-121585000D02*
X304562500Y-124125000D01*
G04 #@! TO.N,Net-(D57-A)*
X23416250Y-125970000D02*
X23416250Y-131110000D01*
X23416250Y-131110000D02*
X25956250Y-133650000D01*
G04 #@! TO.N,ROW4*
X114062500Y-136450000D02*
X133112500Y-136450000D01*
X152162500Y-136450000D02*
X171212500Y-136450000D01*
X133112500Y-136450000D02*
X152162500Y-136450000D01*
X56912500Y-136450000D02*
X75962500Y-136450000D01*
X209312500Y-136450000D02*
X228362500Y-136450000D01*
X171212500Y-136450000D02*
X190262500Y-136450000D01*
X75962500Y-136450000D02*
X95012500Y-136450000D01*
X95012500Y-136450000D02*
X114062500Y-136450000D01*
X228362500Y-136450000D02*
X264081250Y-136450000D01*
X190262500Y-136450000D02*
X209312500Y-136450000D01*
X25956250Y-136450000D02*
X56912500Y-136450000D01*
G04 #@! TO.N,Net-(D58-A)*
X54372500Y-125970000D02*
X54372500Y-131110000D01*
X54372500Y-131110000D02*
X56912500Y-133650000D01*
G04 #@! TO.N,Net-(D59-A)*
X73422500Y-131110000D02*
X75962500Y-133650000D01*
X73422500Y-125970000D02*
X73422500Y-131110000D01*
G04 #@! TO.N,Net-(D60-A)*
X92472500Y-131110000D02*
X95012500Y-133650000D01*
X92472500Y-125970000D02*
X92472500Y-131110000D01*
G04 #@! TO.N,Net-(D61-A)*
X111522500Y-131110000D02*
X114062500Y-133650000D01*
X111522500Y-125970000D02*
X111522500Y-131110000D01*
G04 #@! TO.N,Net-(D62-A)*
X130572500Y-131110000D02*
X133112500Y-133650000D01*
X130572500Y-125970000D02*
X130572500Y-131110000D01*
G04 #@! TO.N,Net-(D63-A)*
X149622500Y-131110000D02*
X152162500Y-133650000D01*
X149622500Y-125970000D02*
X149622500Y-131110000D01*
G04 #@! TO.N,Net-(D64-A)*
X168672500Y-131110000D02*
X171212500Y-133650000D01*
X168672500Y-125970000D02*
X168672500Y-131110000D01*
G04 #@! TO.N,Net-(D65-A)*
X187722500Y-131110000D02*
X190262500Y-133650000D01*
X187722500Y-125970000D02*
X187722500Y-131110000D01*
G04 #@! TO.N,Net-(D66-A)*
X206772500Y-131110000D02*
X209312500Y-133650000D01*
X206772500Y-125970000D02*
X206772500Y-131110000D01*
G04 #@! TO.N,Net-(D67-A)*
X225822500Y-131110000D02*
X228362500Y-133650000D01*
X225822500Y-125970000D02*
X225822500Y-131110000D01*
G04 #@! TO.N,Net-(D68-A)*
X261541250Y-125970000D02*
X261541250Y-131110000D01*
X261541250Y-131110000D02*
X264081250Y-133650000D01*
G04 #@! TO.N,Net-(D69-A)*
X302022500Y-135495000D02*
X302022500Y-140635000D01*
X302022500Y-140635000D02*
X304562500Y-143175000D01*
G04 #@! TO.N,ROW5*
X206931250Y-155500000D02*
X230743750Y-155500000D01*
X64056250Y-155500000D02*
X135493750Y-155500000D01*
X135493750Y-155500000D02*
X206931250Y-155500000D01*
X254556250Y-155500000D02*
X278368750Y-155500000D01*
X230743750Y-155500000D02*
X254556250Y-155500000D01*
X16431250Y-155500000D02*
X40243750Y-155500000D01*
X40243750Y-155500000D02*
X64056250Y-155500000D01*
G04 #@! TO.N,Net-(D70-A)*
X13891250Y-150160000D02*
X16431250Y-152700000D01*
X13891250Y-145020000D02*
X13891250Y-150160000D01*
G04 #@! TO.N,Net-(D71-A)*
X37703750Y-150160000D02*
X40243750Y-152700000D01*
X37703750Y-145020000D02*
X37703750Y-150160000D01*
G04 #@! TO.N,Net-(D72-A)*
X61516250Y-145020000D02*
X61516250Y-150160000D01*
X61516250Y-150160000D02*
X64056250Y-152700000D01*
G04 #@! TO.N,Net-(D73-A)*
X132953750Y-145020000D02*
X132953750Y-150160000D01*
X132953750Y-150160000D02*
X135493750Y-152700000D01*
G04 #@! TO.N,Net-(D74-A)*
X204391250Y-150160000D02*
X206931250Y-152700000D01*
X204391250Y-145020000D02*
X204391250Y-150160000D01*
G04 #@! TO.N,Net-(D75-A)*
X228203750Y-150160000D02*
X230743750Y-152700000D01*
X228203750Y-145020000D02*
X228203750Y-150160000D01*
G04 #@! TO.N,Net-(D76-A)*
X252016250Y-150160000D02*
X254556250Y-152700000D01*
X252016250Y-145020000D02*
X252016250Y-150160000D01*
G04 #@! TO.N,Net-(D77-A)*
X275828750Y-145020000D02*
X275828750Y-150160000D01*
X275828750Y-150160000D02*
X278368750Y-152700000D01*
G04 #@! TD*
M02*
